<svg width="272" height="40" viewBox="0 0 272 40" fill="none" xmlns="http://www.w3.org/2000/svg">
<line x1="76.5476" y1="20.1483" x2="0.750008" y2="20.1483" stroke="#4C7DA1" stroke-width="0.5"/>
<path d="M94.8601 13.0333L96.3047 15.9601C96.407 16.1675 96.6043 16.3115 96.8334 16.3447L100.064 16.8142C100.64 16.8978 100.869 17.605 100.453 18.0112L98.1153 20.2898C97.9496 20.4511 97.8747 20.683 97.9136 20.9106L98.4653 24.1283C98.5632 24.7015 97.9611 25.1394 97.4469 24.8686L94.5576 23.3491C94.3531 23.241 94.1082 23.241 93.9037 23.3491L91.0144 24.8686C90.4987 25.1394 89.8981 24.7015 89.996 24.1283L90.5477 20.9106C90.5866 20.683 90.5117 20.4511 90.346 20.2898L88.0084 18.0112C87.5921 17.605 87.8211 16.8978 88.3973 16.8142L91.628 16.3447C91.857 16.3115 92.0543 16.1675 92.1566 15.9601L93.5998 13.0333C93.8576 12.5119 94.6008 12.5119 94.8586 13.0333H94.8601Z" fill="#E9BE40"/>
<path d="M114.811 11.9521L116.577 15.5292C116.702 15.7827 116.943 15.9588 117.223 15.9993L121.172 16.5732C121.876 16.6753 122.156 17.5396 121.647 18.0361L118.79 20.8211C118.587 21.0182 118.496 21.3017 118.543 21.5798L119.218 25.5126C119.337 26.2132 118.601 26.7484 117.973 26.4174L114.442 24.5602C114.192 24.4282 113.892 24.4282 113.642 24.5602L110.111 26.4174C109.481 26.7484 108.747 26.2132 108.866 25.5126L109.541 21.5798C109.588 21.3017 109.497 21.0182 109.294 20.8211L106.437 18.0361C105.928 17.5396 106.208 16.6753 106.912 16.5732L110.861 15.9993C111.141 15.9588 111.382 15.7827 111.507 15.5292L113.271 11.9521C113.586 11.3148 114.494 11.3148 114.81 11.9521H114.811Z" fill="#E9BE40"/>
<path d="M136.212 11.4114L138.139 15.3138C138.275 15.5903 138.538 15.7824 138.843 15.8266L143.151 16.4526C143.919 16.564 144.225 17.507 143.67 18.0485L140.553 21.0867C140.332 21.3018 140.232 21.611 140.284 21.9144L141.019 26.2047C141.15 26.969 140.347 27.5529 139.662 27.1918L135.809 25.1657C135.536 25.0217 135.21 25.0217 134.937 25.1657L131.085 27.1918C130.397 27.5529 129.596 26.969 129.727 26.2047L130.463 21.9144C130.514 21.611 130.415 21.3018 130.194 21.0867L127.077 18.0485C126.522 17.507 126.827 16.564 127.595 16.4526L131.903 15.8266C132.208 15.7824 132.471 15.5903 132.608 15.3138L134.532 11.4114C134.876 10.7162 135.867 10.7162 136.211 11.4114H136.212Z" fill="#E9BE40"/>
<path d="M159.286 11.9521L161.052 15.5292C161.177 15.7827 161.418 15.9588 161.698 15.9993L165.647 16.5732C166.351 16.6753 166.631 17.5396 166.122 18.0361L163.265 20.8211C163.063 21.0182 162.971 21.3017 163.018 21.5798L163.693 25.5126C163.812 26.2132 163.077 26.7484 162.448 26.4174L158.917 24.5602C158.667 24.4282 158.367 24.4282 158.117 24.5602L154.586 26.4174C153.956 26.7484 153.222 26.2132 153.341 25.5126L154.016 21.5798C154.063 21.3017 153.972 21.0182 153.769 20.8211L150.912 18.0361C150.403 17.5396 150.683 16.6753 151.387 16.5732L155.336 15.9993C155.616 15.9588 155.857 15.7827 155.982 15.5292L157.746 11.9521C158.061 11.3148 158.97 11.3148 159.285 11.9521H159.286Z" fill="#E9BE40"/>
<path d="M178.583 13.0333L180.028 15.9601C180.13 16.1675 180.327 16.3115 180.556 16.3447L183.787 16.8142C184.363 16.8978 184.592 17.605 184.176 18.0112L181.838 20.2898C181.673 20.4511 181.598 20.683 181.637 20.9106L182.188 24.1283C182.286 24.7015 181.684 25.1394 181.17 24.8686L178.281 23.3491C178.076 23.241 177.831 23.241 177.627 23.3491L174.738 24.8686C174.222 25.1394 173.621 24.7015 173.719 24.1283L174.271 20.9106C174.31 20.683 174.235 20.4511 174.069 20.2898L171.732 18.0112C171.315 17.605 171.544 16.8978 172.12 16.8142L175.351 16.3447C175.58 16.3115 175.777 16.1675 175.88 15.9601L177.323 13.0333C177.581 12.5119 178.324 12.5119 178.582 13.0333H178.583Z" fill="#E9BE40"/>
<line x1="271.75" y1="20.1483" x2="195.952" y2="20.1483" stroke="#4C7DA1" stroke-width="0.5"/>
</svg>
