<svg width="107" height="39" viewBox="0 0 107 39" fill="none" xmlns="http://www.w3.org/2000/svg">
<path d="M11.9245 29.6475C11.7347 29.6475 11.5604 29.582 11.4339 29.451C11.2913 29.32 11.2119 29.1402 11.2119 28.9271C11.2119 28.7301 11.2757 28.5498 11.4023 28.4027L14.0605 25.5202C14.2037 25.3726 14.3774 25.291 14.5833 25.291C14.7731 25.291 14.9474 25.3565 15.0739 25.4875C15.2165 25.6184 15.2959 25.8149 15.2959 26.0114C15.2959 26.2078 15.2321 26.3887 15.1055 26.5358L12.4467 29.4183C12.3041 29.5659 12.1304 29.6475 11.9245 29.6475Z" fill="url(#paint0_linear_136_2927)"/>
<path d="M7.52208 25.3259C7.33228 25.3259 7.15802 25.2443 7.01539 25.1134C6.87332 24.9824 6.81006 24.7859 6.81006 24.5889C6.81006 24.3925 6.88886 24.2121 7.01539 24.065L9.51606 21.4606C9.64259 21.3135 9.83239 21.248 10.0227 21.248C10.2125 21.248 10.3862 21.3296 10.5289 21.4606C10.6715 21.5916 10.7342 21.788 10.7342 21.985C10.7342 22.1815 10.6554 22.3613 10.5289 22.5089L8.0282 25.1139C7.90167 25.2449 7.71187 25.3259 7.52208 25.3259Z" fill="url(#paint1_linear_136_2927)"/>
<path d="M7.77205 29.6055C7.58115 29.6055 7.40633 29.5233 7.26315 29.3918C7.11997 29.2603 7.05615 29.0633 7.05615 28.8663C7.05615 28.6693 7.11997 28.4889 7.26315 28.3407L12.29 23.0686C12.4332 22.921 12.608 22.8555 12.7989 22.8555C12.9898 22.8555 13.1652 22.9376 13.3078 23.0686C13.5942 23.3477 13.5942 23.8239 13.3239 24.1197L8.29705 29.3918C8.15698 29.5294 7.96835 29.6061 7.77205 29.6055Z" fill="url(#paint2_linear_136_2927)"/>
<path d="M10.8106 18.8495C12.4327 17.3877 17.4435 13.2655 22.9154 12.6905C22.9519 12.687 22.9887 12.6921 23.0229 12.7053C23.0571 12.7185 23.0877 12.7394 23.1124 12.7665C23.1372 12.7936 23.1552 12.826 23.1652 12.8613C23.1752 12.8965 23.1769 12.9336 23.1701 12.9697C22.9792 14.3493 21.9131 19.9333 17.1893 24.9097C17.1379 24.9638 17.0736 25.004 17.0024 25.0265C16.9312 25.049 16.8555 25.053 16.7823 25.0382C16.7091 25.0234 16.6409 24.9902 16.5841 24.9418C16.5272 24.8934 16.4836 24.8314 16.4573 24.7615L15.3751 22.1998L14.0238 22.5605C13.9616 22.5757 13.8964 22.5741 13.8351 22.5558C13.7737 22.5376 13.7183 22.5033 13.6746 22.4565C13.6308 22.4097 13.6003 22.3521 13.5862 22.2896C13.5721 22.2272 13.5749 22.1621 13.5943 22.101L13.96 20.8035L10.9376 19.6214C10.6352 19.506 10.5558 19.0792 10.81 18.8495H10.8106Z" fill="url(#paint3_linear_136_2927)"/>
<path d="M25.9218 23.6946L20.5137 23.7934C20.3228 23.7934 20.1474 23.8916 20.0364 24.0725C19.4954 24.9754 17.6823 27.9317 16.266 29.2292C15.9325 29.5417 15.423 29.4595 15.1844 29.065C15.1459 29.0002 15.1088 28.9345 15.0734 28.868C14.7393 28.0966 14.4851 27.6359 14.0395 26.8479C13.6577 26.1747 12.8941 25.2219 12.4484 24.6475C11.9079 23.9737 10.7625 22.9226 10.1736 22.4959C9.07648 21.6745 8.05812 21.1984 7.32668 20.9359C6.80169 20.7383 6.65851 20.0324 7.07195 19.6384C8.26512 18.4718 10.3013 16.5506 11.5738 15.8935C11.7647 15.7953 11.8757 15.5816 11.8757 15.3679L11.7803 10.0958C11.7803 9.66902 12.1943 9.37322 12.5761 9.55414C13.721 10.063 15.8687 11.1469 17.0935 12.5598C17.2367 12.7241 17.4597 12.7896 17.6662 12.7241C18.5885 12.4444 21.2135 11.6891 23.7586 11.5415C24.1082 11.5248 24.3946 11.8206 24.3468 12.1819C24.2198 13.4306 23.8862 16.1232 23.3129 17.8975C23.2497 18.0778 23.2813 18.2748 23.4084 18.4391C23.965 19.1617 25.6038 21.3626 26.383 22.8405C26.6061 23.2184 26.3514 23.6951 25.9224 23.6951L25.9218 23.6946Z" fill="url(#paint4_linear_136_2927)"/>
<path d="M14.7234 22.3797L14.023 22.5601C13.9607 22.5754 13.8955 22.5738 13.8341 22.5555C13.7726 22.5371 13.7172 22.5028 13.6734 22.4559C13.6297 22.4091 13.5992 22.3514 13.5851 22.2888C13.5711 22.2263 13.574 22.1611 13.5935 22.1L13.9597 20.8031L10.9374 19.6205C10.6189 19.4889 10.5395 19.0622 10.7942 18.8324C12.4158 17.3701 17.4271 13.2478 22.8991 12.6729C22.9355 12.6695 22.9722 12.6746 23.0064 12.6879C23.0405 12.7011 23.0711 12.7221 23.0957 12.7491C23.1204 12.7762 23.1384 12.8086 23.1484 12.8438C23.1583 12.879 23.16 12.9161 23.1532 12.952C22.9623 14.3317 21.8968 19.9152 17.1724 24.8915C17.1211 24.9457 17.0568 24.9859 16.9856 25.0084C16.9145 25.0309 16.8387 25.035 16.7656 25.0202C16.6924 25.0055 16.6242 24.9724 16.5673 24.924C16.5104 24.8757 16.4668 24.8137 16.4404 24.7439L15.3588 22.1816L14.7228 22.3792L14.7234 22.3797Z" fill="#FFFFFC"/>
<path d="M18.891 18.5046C19.7872 18.5046 20.5137 17.7549 20.5137 16.8297C20.5137 15.9041 19.7872 15.1543 18.891 15.1543C17.9952 15.1543 17.2688 15.9041 17.2688 16.8297C17.2688 17.7549 17.9952 18.5046 18.891 18.5046Z" fill="url(#paint5_linear_136_2927)"/>
<path d="M35.5591 17.6995C35.0075 17.1729 34.4009 17.0225 33.7205 17.0225C32.8198 17.0042 32.2316 17.3044 32.2316 17.8871C32.2499 18.4887 32.8565 18.714 33.7577 18.8083C35.0447 18.921 36.7362 19.2218 36.7173 21.0637C36.699 22.3984 35.5591 23.3191 33.7388 23.3191C32.599 23.3191 31.4591 23.056 30.54 22.0038L31.312 20.9511C31.9741 21.6836 32.9486 22.0038 33.776 22.0038C34.4747 22.0038 35.2467 21.7408 35.265 21.0826C35.2833 20.4438 34.6767 20.1991 33.6473 20.0864C32.3231 19.9549 30.8159 19.5226 30.7975 17.9437C30.7975 16.3648 32.3969 15.7633 33.7022 15.7633C34.7872 15.7633 35.6146 16.0074 36.4049 16.7222L35.5591 17.6995ZM39.8063 13.8276C39.8063 15.0679 37.986 15.0679 37.986 13.8276C37.986 12.6244 39.8063 12.6244 39.8063 13.8276ZM38.1702 15.9142V23.0938H39.6409V15.9137L38.1702 15.9142ZM43.8697 13.8842V15.9514H45.9103V17.2483H43.8514V20.6503C43.8514 21.4022 44.1821 21.8346 44.8625 21.8346C45.1383 21.8346 45.4691 21.7402 45.7632 21.5904L46.1861 22.8685C45.7083 23.0938 45.2854 23.1881 44.7887 23.1881C43.2626 23.2253 42.399 22.3423 42.399 20.6691V17.2672H41.0566V15.9703H42.399V14.034L43.8697 13.8842ZM48.4848 20.0676C48.613 21.1581 49.4959 21.8723 50.7645 21.8723C51.4816 21.8723 52.364 21.5904 52.7868 21.1015L53.743 22.041C53.026 22.8496 51.8123 23.263 50.7274 23.263C48.4298 23.263 46.9586 21.7591 46.9586 19.4848C46.9586 17.3044 48.4476 15.7633 50.6358 15.7633C52.8973 15.7633 54.4234 17.1729 54.1476 20.0864L48.4848 20.0676ZM52.7502 18.8083C52.6581 17.6807 51.8489 17.0791 50.6724 17.0791C49.6063 17.0791 48.7234 17.6807 48.5025 18.8083H52.7502ZM57.1072 15.9137V23.9395C57.1072 25.7443 56.4635 26.6838 54.9012 26.6838C54.3767 26.6857 53.8639 26.5283 53.4306 26.2326L53.9634 25.0489C54.2575 25.1987 54.5705 25.2742 54.8641 25.2742C55.5633 25.2553 55.6732 24.7664 55.6732 23.9395V15.9137H57.1072ZM55.4712 13.8087C55.4712 15.049 57.2915 15.049 57.2915 13.8087C57.2915 12.5872 55.4712 12.5872 55.4712 13.8087ZM64.7191 15.9325H66.1348V23.0943H64.7374L64.6642 21.9289C64.2041 22.8501 63.1197 23.283 62.2556 23.283C60.2145 23.3013 58.6706 21.9478 58.6706 19.5043C58.6706 17.1179 60.27 15.7827 62.2922 15.7827C63.2851 15.7827 64.2413 16.2527 64.6825 17.0796L64.7191 15.9331V15.9325ZM60.1406 19.5037C60.1406 20.9888 61.1707 21.8912 62.421 21.8912C65.4361 21.8912 65.4361 17.1546 62.421 17.1546C61.1523 17.1546 60.1406 18.0381 60.1406 19.5037ZM69.5911 12.9441V17.0413C70.0512 16.1956 71.1911 15.7633 72.0552 15.7633C74.0774 15.7633 75.6036 17.0602 75.6036 19.4848C75.6036 21.8534 74.0591 23.2064 72.0185 23.2064C71.0806 23.2064 70.1427 22.8496 69.5911 21.9283L69.4995 23.056H68.1205V12.9063L69.5911 12.9441ZM69.6649 19.5037C69.6649 20.9133 70.6761 21.8346 71.9081 21.8346C73.1212 21.8346 74.1141 20.9322 74.1141 19.5037C74.1141 18.0375 73.1212 17.1729 71.9081 17.1729C70.6944 17.1917 69.6649 18.1318 69.6649 19.5037ZM78.6187 12.9441V17.0413C79.0782 16.1956 80.2181 15.7633 81.0822 15.7633C83.105 15.7633 84.6312 17.0602 84.6312 19.4848C84.6312 21.8534 83.0867 23.2064 81.0455 23.2064C80.1082 23.2064 79.1703 22.8496 78.6187 21.9283L78.5266 23.056H77.148V12.9063L78.6187 12.9441ZM78.6925 19.5037C78.6925 20.9133 79.7036 21.8346 80.9351 21.8346C82.1488 21.8346 83.1416 20.9322 83.1416 19.5037C83.1416 18.0375 82.1488 17.1729 80.9351 17.1729C79.722 17.1917 78.6925 18.1318 78.6925 19.5037ZM87.2783 20.0676C87.4071 21.1581 88.29 21.8723 89.5581 21.8723C90.2757 21.8723 91.1581 21.5904 91.581 21.1015L92.5366 22.041C91.8196 22.8496 90.6064 23.263 89.5215 23.263C87.2234 23.263 85.7527 21.7591 85.7527 19.4848C85.7527 17.3044 87.2417 15.7633 89.4299 15.7633C91.6914 15.7633 93.217 17.1729 92.9412 20.0864L87.2783 20.0676ZM91.5438 18.8083C91.4522 17.6807 90.6431 17.0791 89.4666 17.0791C88.3999 17.0791 87.5175 17.6807 87.2972 18.8083H91.5438ZM95.8098 15.9325L95.9013 16.8726C96.4164 15.9514 97.2066 15.7633 97.9608 15.7633C98.6412 15.7633 99.3027 16.0074 99.689 16.3648L99.0269 17.6618C98.6778 17.3799 98.3282 17.2295 97.7954 17.2295C96.7837 17.2295 95.9013 17.8688 95.9013 19.1841V23.056H94.4307V15.8948L95.8098 15.9325Z" fill="#6F6F6F"/>
<defs>
<linearGradient id="paint0_linear_136_2927" x1="10.8634" y1="30.2185" x2="14.2276" y2="26.8449" gradientUnits="userSpaceOnUse">
<stop offset="1" stop-color="#6F6F6F"/>
</linearGradient>
<linearGradient id="paint1_linear_136_2927" x1="6.2551" y1="26.0657" x2="10.3663" y2="21.9245" gradientUnits="userSpaceOnUse">
<stop offset="1" stop-color="#6F6F6F"/>
</linearGradient>
<linearGradient id="paint2_linear_136_2927" x1="11.3788" y1="25.3128" x2="8.39805" y2="27.5815" gradientUnits="userSpaceOnUse">
<stop offset="1" stop-color="#6F6F6F"/>
</linearGradient>
<linearGradient id="paint3_linear_136_2927" x1="10.2789" y1="26.5701" x2="40.9606" y2="-9.2516" gradientUnits="userSpaceOnUse">
<stop offset="0.102" stop-color="white" stop-opacity="0.7"/>
<stop offset="0.481" stop-color="white" stop-opacity="0"/>
</linearGradient>
<linearGradient id="paint4_linear_136_2927" x1="25.8891" y1="10.7029" x2="11.222" y2="22.7073" gradientUnits="userSpaceOnUse">
<stop offset="0.916" stop-color="#6F6F6F"/>
</linearGradient>
<linearGradient id="paint5_linear_136_2927" x1="24.2652" y1="10.2673" x2="12.3879" y2="23.8328" gradientUnits="userSpaceOnUse">
<stop offset="1" stop-color="#6F6F6F"/>
</linearGradient>
</defs>
</svg>
