<svg width="61" height="18" viewBox="0 0 61 18" fill="none" xmlns="http://www.w3.org/2000/svg">
<g clip-path="url(#clip0_11341_2201)">
<g opacity="0.8">
<path d="M3.91172 0.287598L0.644165 7.91432H2.77242L3.37614 6.38662H6.88095L7.47996 7.91432H9.65521L6.39 0.287598H3.91172ZM5.1215 2.06284L6.19032 4.73161H4.05032L5.1215 2.06284Z" fill="white"/>
<path d="M9.87863 7.91196V0.287598L12.9019 0.299385L14.6613 5.21491L16.3785 0.287598H19.3783V7.91196H17.4779V2.29388L15.4647 7.91196H13.7992L11.779 2.29388V7.91196H9.87863Z" fill="white"/>
<path d="M20.675 7.91184V0.287476H26.8742V1.99199H22.5966V3.29573H26.7756V4.90123H22.5966V6.25683H26.8742V7.91184H20.675Z" fill="white"/>
<path d="M27.9738 0.287476V7.91184H29.8742V5.203H30.6729L32.9515 7.91184H35.2724L32.773 5.10162C33.7995 5.01439 34.8566 4.1303 34.8566 2.76056C34.8566 1.15742 33.6022 0.287476 32.2022 0.287476H27.9762H27.9738ZM29.8742 1.99199H32.0448C32.5663 1.99199 32.9445 2.39985 32.9445 2.79357C32.9445 3.30044 32.4535 3.59514 32.073 3.59514H29.8742V1.98964V1.99199Z" fill="white"/>
<path d="M37.5717 7.91196H35.6314V0.287598H37.5717V7.91196Z" fill="white"/>
<path d="M42.1693 7.91184H41.7511C39.7262 7.91184 38.4953 6.31105 38.4953 4.1303C38.4953 1.94956 39.7121 0.287476 42.2703 0.287476H44.3704V2.09337H42.1951C41.1568 2.09337 40.4216 2.90673 40.4216 4.14916C40.4216 5.625 41.2602 6.24504 42.47 6.24504H42.9703L42.1716 7.90948L42.1693 7.91184Z" fill="white"/>
<path d="M46.3032 0.287598L43.0357 7.91196H45.1639L45.7676 6.38426H49.2725L49.8715 7.91196H52.0467L48.7792 0.287598H46.3009H46.3032ZM47.513 2.06284L48.5818 4.73161H46.4418L47.513 2.06284Z" fill="white"/>
<path d="M52.2677 7.91196V0.287598H54.6825L57.7669 5.07817V0.287598H59.6673V7.91196H57.33L54.1681 2.99644V7.91196H52.2677Z" fill="white"/>
<path d="M9.69778 17.0852V9.46082H15.897V11.1653H11.6193V12.4691H15.7983V14.0746H11.6193V15.4302H15.897V17.0852H9.69778Z" fill="white"/>
<path d="M40.0689 17.0852V9.46082H46.2681V11.1653H41.9904V12.4691H46.1483V14.0746H41.9904V15.4302H46.2681V17.0852H40.0689Z" fill="white"/>
<path d="M16.1362 17.0852L19.1548 13.3201L16.0657 9.46082H18.4594L20.2988 11.8467L22.1451 9.46082H24.4449L21.3958 13.273L24.419 17.0852H22.0253L20.2377 14.737L18.4947 17.0852H16.1362Z" fill="white"/>
<path d="M24.6427 9.46082V17.0852H26.5924V14.6781H28.5915C30.2828 14.6781 31.5654 13.7775 31.5654 12.0258C31.5654 10.5736 30.56 9.46082 28.8381 9.46082H24.6427ZM26.5924 11.1842H28.6972C29.2445 11.1842 29.6345 11.5213 29.6345 12.0612C29.6345 12.5704 29.2469 12.9382 28.6902 12.9382H26.5901V11.1818L26.5924 11.1842Z" fill="white"/>
<path d="M32.3919 9.46082V17.0852H34.2923V14.3763H35.091L37.3696 17.0852H39.6905L37.1911 14.275C38.2176 14.1877 39.2747 13.3036 39.2747 11.9339C39.2747 10.3284 38.0203 9.46082 36.6203 9.46082H32.3943H32.3919ZM34.2923 11.1653H36.4629C36.9844 11.1653 37.3626 11.5732 37.3626 11.9669C37.3626 12.4738 36.8716 12.7685 36.4911 12.7685H34.2923V11.163V11.1653Z" fill="white"/>
<path d="M47.1464 17.0852V15.4302H50.9472C51.5086 15.4302 51.7529 15.126 51.7529 14.7913C51.7529 14.4565 51.511 14.1477 50.9472 14.1477H49.23C47.736 14.1477 46.9044 13.2353 46.9044 11.8632C46.9044 10.6396 47.6655 9.46082 49.8854 9.46082H53.5852L52.7865 11.1771H49.5871C48.9763 11.1771 48.7884 11.5001 48.7884 11.8066C48.7884 12.1131 49.0209 12.4714 49.4884 12.4714H51.2878C52.9533 12.4714 53.6744 13.4192 53.6744 14.6592C53.6744 15.9936 52.8687 17.0852 51.1962 17.0852H47.1487H47.1464Z" fill="white"/>
<path d="M54.1183 17.0852V15.4302H57.9191C58.4805 15.4302 58.7248 15.126 58.7248 14.7913C58.7248 14.4565 58.4828 14.1477 57.9191 14.1477H56.2019C54.7079 14.1477 53.8763 13.2353 53.8763 11.8632C53.8763 10.6396 54.6374 9.46082 56.8573 9.46082H60.5571L59.7584 11.1771H56.5589C55.9482 11.1771 55.7603 11.5001 55.7603 11.8066C55.7603 12.1131 55.9928 12.4714 56.4603 12.4714H58.2597C59.9252 12.4714 60.6463 13.4192 60.6463 14.6592C60.6463 15.9936 59.8406 17.0852 58.1681 17.0852H54.1206H54.1183Z" fill="white"/>
</g>
</g>
<defs>
<clipPath id="clip0_11341_2201">
<rect width="60" height="16.8" fill="white" transform="translate(0.644165 0.287598)"/>
</clipPath>
</defs>
</svg>
