<svg width="77" height="14" viewBox="0 0 77 14" fill="none" xmlns="http://www.w3.org/2000/svg">
<g clip-path="url(#clip0_11341_2219)">
<g opacity="0.56">
<path d="M40.2957 13.0735C43.8233 13.0735 46.6829 10.2138 46.6829 6.68627C46.6829 3.15872 43.8233 0.299072 40.2957 0.299072C36.7682 0.299072 33.9085 3.15872 33.9085 6.68627C33.9085 10.2138 36.7682 13.0735 40.2957 13.0735Z" fill="white"/>
</g>
<path opacity="0.65" d="M40.2957 13.0735C43.8233 13.0735 46.6829 10.2138 46.6829 6.68627C46.6829 3.15872 43.8233 0.299072 40.2957 0.299072C36.7682 0.299072 33.9085 3.15872 33.9085 6.68627C33.9085 10.2138 36.7682 13.0735 40.2957 13.0735Z" fill="url(#paint0_linear_11341_2219)"/>
<path opacity="0.8" d="M4.08215 0.641964H0.644073V12.6509H4.06423C5.88183 12.6509 7.19511 12.2208 8.34967 11.2634C9.71927 10.1293 10.5308 8.4218 10.5308 6.65284C10.5308 3.1098 7.88375 0.639404 4.08471 0.639404L4.08215 0.641964ZM6.81879 9.6634C6.08151 10.329 5.12663 10.6183 3.61367 10.6183H2.98391V2.6746H3.61367C5.12663 2.6746 6.04567 2.94596 6.81879 3.64484C7.62775 4.36676 8.11671 5.48292 8.11671 6.63492C8.11671 7.78692 7.63031 8.93892 6.81879 9.66084V9.6634Z" fill="white"/>
<path opacity="0.8" d="M13.9482 0.642212H11.6058V12.6512H13.9482V0.642212Z" fill="white"/>
<path opacity="0.8" d="M19.6752 5.24982C18.2697 4.73014 17.8576 4.3871 17.8576 3.73942C17.8576 2.98166 18.5923 2.40822 19.6035 2.40822C20.3049 2.40822 20.8809 2.6975 21.4928 3.38102L22.719 1.7759C21.7129 0.895262 20.5072 0.444702 19.1913 0.444702C17.0665 0.444702 15.446 1.91926 15.446 3.88534C15.446 5.5391 16.2012 6.38646 18.4003 7.1775C19.3168 7.50006 19.7852 7.7151 20.0208 7.86102C20.4892 8.16566 20.7222 8.5983 20.7222 9.10262C20.7222 10.0754 19.9491 10.7973 18.9046 10.7973C17.7884 10.7973 16.8873 10.2393 16.3472 9.19478L14.8342 10.6514C15.9145 12.2361 17.2099 12.9375 18.9916 12.9375C21.4262 12.9375 23.1337 11.3196 23.1337 8.9951C23.1337 7.0879 22.3452 6.22262 19.6803 5.24982H19.6752Z" fill="white"/>
<path opacity="0.8" d="M23.8685 6.65272C23.8685 10.183 26.641 12.9196 30.2071 12.9196C31.2157 12.9196 32.0784 12.7225 33.1434 12.2207V9.4636C32.2064 10.4006 31.377 10.7794 30.3146 10.7794C27.9568 10.7794 26.2826 9.06936 26.2826 6.63736C26.2826 4.3308 28.0106 2.5132 30.2071 2.5132C31.3232 2.5132 32.1706 2.91256 33.1434 3.86488V1.10776C32.1143 0.585523 31.2695 0.370483 30.2608 0.370483C26.7127 0.370483 23.8659 3.16344 23.8659 6.65528L23.8685 6.65272Z" fill="white"/>
<path opacity="0.8" d="M51.7134 8.70621L48.5134 0.642212H45.9534L51.0504 12.9584H52.3099L57.4965 0.642212H54.9595L51.7134 8.70621Z" fill="white"/>
<path opacity="0.8" d="M58.5569 12.6484H65.2001V10.6157H60.8967V7.37477H65.0413V5.34213H60.8967V2.67461H65.2001V0.641968H58.5569V12.6484Z" fill="white"/>
<path opacity="0.8" d="M74.4719 4.185C74.4719 1.93732 72.9231 0.639404 70.2223 0.639404H66.7484V12.6484H69.0882V7.82532H69.3928L72.6338 12.6484H75.5138L71.7327 7.5898C73.4965 7.2314 74.4668 6.02564 74.4668 4.185H74.4719ZM69.7743 6.169H69.0908V2.53124H69.8127C71.2719 2.53124 72.0655 3.14308 72.0655 4.31044C72.0655 5.51876 71.2719 6.16644 69.7768 6.16644L69.7743 6.169Z" fill="white"/>
<g opacity="0.8">
<path d="M75.9668 1.09233C75.9668 0.882412 75.8209 0.767212 75.5675 0.767212H75.2296V1.82193H75.4804V1.41233L75.7748 1.82193H76.082L75.7339 1.38673C75.8824 1.34577 75.9643 1.23825 75.9643 1.09233H75.9668ZM75.524 1.23569H75.4804V0.959212H75.5265C75.652 0.959212 75.716 1.00529 75.716 1.09489C75.716 1.18449 75.6494 1.23569 75.524 1.23569Z" fill="white"/>
<path d="M75.6186 0.373291C75.1066 0.373291 74.6995 0.782891 74.6995 1.29233C74.6995 1.80177 75.1117 2.21393 75.6186 2.21393C76.1255 2.21393 76.5274 1.79921 76.5274 1.29233C76.5274 0.785451 76.1178 0.373291 75.6186 0.373291ZM75.6135 2.05009C75.209 2.05009 74.8813 1.71473 74.8813 1.29489C74.8813 0.875051 75.2064 0.539691 75.6135 0.539691C76.0205 0.539691 76.3431 0.882731 76.3431 1.29489C76.3431 1.70705 76.0154 2.05009 75.6135 2.05009Z" fill="white"/>
</g>
</g>
<defs>
<linearGradient id="paint0_linear_11341_2219" x1="42.866" y1="11.7116" x2="36.402" y2="-0.922046" gradientUnits="userSpaceOnUse">
<stop stop-color="white" stop-opacity="0"/>
<stop offset="0.7" stop-color="white" stop-opacity="0.5"/>
<stop offset="0.99" stop-color="white" stop-opacity="0.8"/>
</linearGradient>
<clipPath id="clip0_11341_2219">
<rect width="75.8835" height="12.777" fill="white" transform="translate(0.644165 0.299072)"/>
</clipPath>
</defs>
</svg>
