<svg width="86" height="17" viewBox="0 0 86 17" fill="none" xmlns="http://www.w3.org/2000/svg">
<g clip-path="url(#clip0_11341_2191)">
<g opacity="0.8">
<path d="M38.489 11.2201V7.92883C38.489 6.67107 37.7539 5.84398 36.4913 5.84398C35.86 5.84398 35.1741 6.06074 34.704 6.7766C34.3378 6.17482 33.8104 5.84398 33.0206 5.84398C32.4932 5.84398 31.9684 6.0094 31.5503 6.61118V5.95236H30.449V11.2172H31.5503V8.30815C31.5503 7.37553 32.0231 6.93346 32.7555 6.93346C33.4879 6.93346 33.8568 7.42687 33.8568 8.30815V11.2172H34.9582V8.30815C34.9582 7.37553 35.4856 6.93346 36.1634 6.93346C36.8985 6.93346 37.2647 7.42687 37.2647 8.30815V11.2172H38.4836L38.489 11.2201ZM54.8397 5.95521H53.0524V4.36377H51.9511V5.95521H50.9536V6.99621H51.9511V9.41189C51.9511 10.6212 52.4239 11.3285 53.6837 11.3285C54.1565 11.3285 54.6812 11.1631 55.0501 10.9463L54.7304 9.95664C54.4107 10.1734 54.0445 10.2304 53.7821 10.2304C53.2547 10.2304 53.047 9.89674 53.047 9.35485V6.99621H54.8342V5.95521H54.8397ZM64.197 5.84113C63.5657 5.84113 63.1449 6.17482 62.8798 6.60833V5.94951H61.7784V11.2144H62.8798V8.24826C62.8798 7.37268 63.246 6.87357 63.9319 6.87357C64.1396 6.87357 64.4047 6.93061 64.6179 6.98195L64.9376 5.88391C64.7163 5.83828 64.4047 5.83828 64.197 5.83828V5.84113ZM50.0572 6.39157C49.5298 6.0094 48.7946 5.84113 48.0048 5.84113C46.7423 5.84113 45.9033 6.49995 45.9033 7.54095C45.9033 8.41653 46.5346 8.91564 47.6359 9.07535L48.1633 9.13239C48.74 9.24077 49.057 9.40619 49.057 9.68284C49.057 10.065 48.6334 10.3417 47.8983 10.3417C47.1631 10.3417 46.581 10.0679 46.2148 9.79122L45.6874 10.6668C46.264 11.1089 47.0538 11.3256 47.8436 11.3256C49.3139 11.3256 50.1583 10.6098 50.1583 9.6258C50.1583 8.69318 49.4724 8.19977 48.4257 8.03435L47.8983 7.97731C47.4255 7.92027 47.0593 7.81189 47.0593 7.48391C47.0593 7.10173 47.4255 6.88213 48.0076 6.88213C48.6389 6.88213 49.2702 7.15592 49.5872 7.32419L50.0517 6.39157H50.0572ZM79.3862 5.84113C78.7549 5.84113 78.3341 6.17482 78.069 6.60833V5.94951H76.9676V11.2144H78.069V8.24826C78.069 7.37268 78.4352 6.87357 79.1211 6.87357C79.3288 6.87357 79.5939 6.93061 79.8071 6.98195L80.1268 5.89532C79.9137 5.83828 79.5994 5.83828 79.3862 5.83828V5.84113ZM65.3011 8.5905C65.3011 10.1819 66.3532 11.3313 67.9847 11.3313C68.7199 11.3313 69.2473 11.1659 69.772 10.7295L69.2446 9.79692C68.821 10.1306 68.4056 10.2903 67.9274 10.2903C67.0337 10.2903 66.4024 9.6315 66.4024 8.5905C66.4024 7.54951 67.0337 6.94202 67.9274 6.89068C68.4001 6.89068 68.821 7.0561 69.2446 7.38409L69.772 6.45147C69.2446 6.0094 68.7199 5.84968 67.9847 5.84968C66.356 5.84398 65.3011 6.99906 65.3011 8.5905ZM75.4974 8.5905V5.95806H74.396V6.61689C74.0298 6.12348 73.5024 5.84968 72.8164 5.84968C71.3954 5.84968 70.294 6.99906 70.294 8.5905C70.294 10.1819 71.3954 11.3313 72.8164 11.3313C73.5516 11.3313 74.079 11.0575 74.396 10.5641V11.2229H75.4974V8.5905ZM71.45 8.5905C71.45 7.65788 72.0266 6.89068 72.9749 6.89068C73.8686 6.89068 74.4999 7.60655 74.4999 8.5905C74.4999 9.52312 73.8686 10.2903 72.9749 10.2903C72.0321 10.2333 71.45 9.51742 71.45 8.5905ZM58.2585 5.84113C56.7882 5.84113 55.7361 6.93917 55.7361 8.58195C55.7361 10.2247 56.7882 11.3228 58.3132 11.3228C59.0483 11.3228 59.7834 11.106 60.3655 10.6069L59.8381 9.78266C59.4145 10.1164 58.8898 10.3331 58.3678 10.3331C57.6819 10.3331 57.0014 9.99942 56.8429 9.07535H60.5732V8.63328C60.6224 6.93917 59.6741 5.84113 58.2585 5.84113ZM58.2585 6.83079C58.9445 6.83079 59.4172 7.27286 59.5211 8.08854H56.8948C56.9987 7.37838 57.4715 6.83079 58.2612 6.83079H58.2585ZM85.6445 8.58765V3.87036H84.5431V6.61118C84.1769 6.11778 83.6495 5.84398 82.9635 5.84398C81.5424 5.84398 80.4411 6.99336 80.4411 8.5848C80.4411 10.1762 81.5424 11.3256 82.9635 11.3256C83.6987 11.3256 84.2261 11.0518 84.5431 10.5584V11.2172H85.6445V8.5848V8.58765ZM81.5971 8.58765C81.5971 7.65503 82.1737 6.88783 83.122 6.88783C84.0157 6.88783 84.647 7.60369 84.647 8.58765C84.647 9.52027 84.0157 10.2875 83.122 10.2875C82.1737 10.2304 81.5971 9.51457 81.5971 8.58765ZM44.6926 8.58765V5.95521H43.5913V6.61403C43.2251 6.12063 42.6976 5.84683 42.0117 5.84683C40.5906 5.84683 39.4893 6.99621 39.4893 8.58765C39.4893 10.1791 40.5906 11.3285 42.0117 11.3285C42.7468 11.3285 43.2743 11.0547 43.5913 10.5613V11.2201H44.6926V8.58765ZM40.5961 8.58765C40.5961 7.65503 41.1727 6.88783 42.121 6.88783C43.0146 6.88783 43.6459 7.60369 43.6459 8.58765C43.6459 9.52027 43.0146 10.2875 42.121 10.2875C41.1727 10.2304 40.5961 9.51457 40.5961 8.58765Z" fill="white"/>
<path d="M12.9696 14.571C11.278 13.1136 10.3133 10.986 10.3133 8.68725C10.3133 6.38849 11.278 4.26086 12.9696 2.80347C14.6612 4.26086 15.6259 6.38849 15.6259 8.68725C15.6259 10.986 14.6612 13.1136 12.9696 14.571Z" fill="white"/>
<path d="M12.9691 3.28872C14.4394 4.66626 15.2729 6.60566 15.2729 8.68765C15.2729 10.7696 14.4394 12.709 12.9691 14.0866C11.4988 12.709 10.6653 10.7696 10.6653 8.68765C10.6653 6.60566 11.4988 4.66626 12.9691 3.28872ZM12.9691 2.33899C11.1408 3.80209 9.96298 6.10084 9.96298 8.6905C9.96298 11.2802 11.1408 13.5789 12.9691 15.042C14.7974 13.5789 15.9753 11.2802 15.9753 8.6905C15.9753 6.10084 14.7974 3.80209 12.9691 2.33899Z" fill="white"/>
<path d="M8.30999 16.3224C4.2763 16.3224 0.994141 12.8971 0.994141 8.68743C0.994141 4.4778 4.2763 1.05249 8.30999 1.05249C9.52065 1.05249 10.704 1.36336 11.7643 1.95944C9.94424 3.68208 8.90849 6.10632 8.90849 8.68743C8.90849 11.2685 9.94424 13.6899 11.7643 15.4154C10.704 16.0115 9.52065 16.3224 8.30999 16.3224Z" fill="white"/>
<path d="M8.30995 1.4206C9.29924 1.4206 10.2694 1.64021 11.1603 2.05946C9.49601 3.82203 8.55864 6.18352 8.55864 8.69047C8.55864 11.1974 9.49601 13.5589 11.1603 15.3215C10.2667 15.7407 9.29651 15.9604 8.30995 15.9604C4.47028 15.9604 1.34663 12.7005 1.34663 8.69333C1.34663 4.6862 4.47028 1.4206 8.30995 1.4206ZM8.30995 0.687622C4.07675 0.687622 0.644287 4.2698 0.644287 8.68762C0.644287 13.1054 4.07675 16.6876 8.30995 16.6876C9.80208 16.6876 11.1904 16.2399 12.3682 15.4726C10.3924 13.8042 9.26098 11.3457 9.26098 8.68762C9.26098 6.02951 10.3924 3.57104 12.3682 1.9026C11.1904 1.13539 9.80208 0.687622 8.30995 0.687622Z" fill="white"/>
<path d="M17.629 16.3226C16.4184 16.3226 15.235 16.0117 14.1747 15.4157C15.9948 13.693 17.0305 11.2688 17.0305 8.68767C17.0305 6.10657 15.9948 3.68518 14.1747 1.95969C15.235 1.36361 16.4184 1.05273 17.629 1.05273C21.6627 1.05273 24.9449 4.47805 24.9449 8.68767C24.9449 12.8973 21.6627 16.3226 17.629 16.3226Z" fill="white"/>
<path d="M17.6292 1.42069C21.4688 1.42069 24.5925 4.68058 24.5925 8.68771C24.5925 12.6948 21.4688 15.9547 17.6292 15.9547C16.6399 15.9547 15.6697 15.7351 14.7788 15.3159C16.4431 13.5533 17.3805 11.1918 17.3805 8.68486C17.3805 6.17791 16.4431 3.81641 14.7788 2.05384C15.6725 1.63459 16.6426 1.41498 17.6292 1.41498M17.6292 0.682007C16.137 0.682007 14.7488 1.12978 13.5709 1.89698C15.5467 3.56543 16.6781 6.0239 16.6781 8.68201C16.6781 11.3401 15.5467 13.7986 13.5709 15.467C14.7488 16.2371 16.137 16.682 17.6292 16.682C21.8624 16.682 25.2948 13.0998 25.2948 8.68201C25.2948 4.26418 21.8624 0.687711 17.6292 0.687711V0.682007Z" fill="white"/>
</g>
</g>
<defs>
<clipPath id="clip0_11341_2191">
<rect width="85" height="16" fill="white" transform="translate(0.644165 0.687622)"/>
</clipPath>
</defs>
</svg>
