<svg width="64" height="18" viewBox="0 0 64 18" fill="none" xmlns="http://www.w3.org/2000/svg">
<g clip-path="url(#clip0_11341_2235)">
<g opacity="0.8">
<path d="M20.7106 3.66736C20.58 3.66736 20.4699 3.76208 20.4495 3.89008L18.9467 13.4261C18.9263 13.5592 19.0159 13.6846 19.149 13.7051C19.1618 13.7051 19.1746 13.7077 19.1874 13.7077H20.9717C21.1023 13.7077 21.2123 13.613 21.2328 13.485L21.6757 10.6843C21.6962 10.5563 21.8063 10.4616 21.9368 10.4616H23.5573C25.4517 10.4616 27.0594 9.0792 27.3538 7.20784C27.6507 5.31856 26.1736 3.67248 24.0821 3.66736H20.7131H20.7106ZM22.4437 5.79472H23.7416C24.8091 5.79472 25.1573 6.42448 25.0472 7.1208C24.9371 7.81968 24.397 8.33424 23.3653 8.33424H22.0443L22.4437 5.79472ZM30.9762 6.4424C30.5256 6.4424 30.0085 6.53712 29.4274 6.77776C28.0936 7.33328 27.4536 8.48272 27.1797 9.31984C27.1797 9.31984 26.3144 11.8773 28.2703 13.2802C28.2703 13.2802 30.0853 14.6318 32.1282 13.1957L32.0923 13.421C32.0719 13.5541 32.1615 13.6795 32.2946 13.7C32.3074 13.7 32.3202 13.7026 32.333 13.7026H34.0251C34.1557 13.7026 34.2658 13.6078 34.2863 13.4798L35.3154 6.94928C35.3359 6.81616 35.2463 6.69072 35.1131 6.67024C35.1003 6.67024 35.0875 6.66768 35.0747 6.66768H33.3826C33.252 6.66768 33.1419 6.7624 33.1215 6.8904L33.0651 7.24112C33.0651 7.24112 32.3253 6.43472 30.9762 6.43984V6.4424ZM31.0325 8.50576C31.2271 8.50576 31.4037 8.53136 31.565 8.58512C32.2946 8.82064 32.7093 9.52208 32.589 10.2824C32.4405 11.2194 31.6725 11.908 30.6895 11.908C30.4949 11.908 30.3183 11.8824 30.157 11.8312C29.4274 11.5957 29.0101 10.8942 29.1304 10.1339C29.2789 9.19696 30.0495 8.50832 31.0325 8.50832V8.50576Z" fill="white"/>
<path d="M45.0844 3.66736C44.9538 3.66736 44.8438 3.76208 44.8233 3.89008L43.3206 13.4261C43.3001 13.5592 43.3897 13.6846 43.5228 13.7051C43.5356 13.7051 43.5484 13.7077 43.5612 13.7077H45.3455C45.4761 13.7077 45.5862 13.613 45.6066 13.485L46.0495 10.6843C46.07 10.5563 46.1801 10.4616 46.3106 10.4616H47.9311C49.8255 10.4616 51.4332 9.0792 51.7276 7.20784C52.0246 5.31856 50.5474 3.67248 48.4585 3.66736H45.0895H45.0844ZM46.8175 5.79472H48.1154C49.183 5.79472 49.5311 6.42448 49.421 7.1208C49.311 7.81968 48.7708 8.33424 47.7391 8.33424H46.4182L46.8175 5.79472ZM55.35 6.4424C54.8994 6.4424 54.3823 6.53712 53.8012 6.77776C52.4674 7.33328 51.8274 8.48272 51.5535 9.31984C51.5535 9.31984 50.6882 11.8773 52.6441 13.2802C52.6441 13.2802 54.4591 14.6318 56.502 13.1957L56.4662 13.421C56.4457 13.5541 56.5353 13.6795 56.6684 13.7C56.6812 13.7 56.694 13.7026 56.7068 13.7026H58.399C58.5295 13.7026 58.6396 13.6078 58.6601 13.4798L59.6892 6.94928C59.7097 6.81616 59.6201 6.69072 59.487 6.67024C59.4742 6.67024 59.4614 6.66768 59.4486 6.66768H57.7564C57.6258 6.66768 57.5158 6.7624 57.4953 6.8904L57.439 7.24112C57.439 7.24112 56.6991 6.43472 55.35 6.43984V6.4424ZM55.4063 8.50576C55.6009 8.50576 55.7775 8.53136 55.9388 8.58512C56.6684 8.82064 57.0831 9.52208 56.9628 10.2824C56.8143 11.2194 56.0463 11.908 55.0633 11.908C54.8687 11.908 54.6921 11.8824 54.5308 11.8312C53.8012 11.5957 53.3839 10.8942 53.5042 10.1339C53.6527 9.19696 54.4233 8.50832 55.4063 8.50832V8.50576Z" fill="white"/>
<path d="M36.1193 6.67285C35.9862 6.67285 35.8889 6.80341 35.9299 6.93141L37.7859 12.6914L36.1091 15.405C36.0271 15.5356 36.1219 15.7071 36.278 15.7071H38.262C38.3772 15.7071 38.4847 15.6457 38.5436 15.5484L43.7276 6.97493C43.807 6.84437 43.7123 6.67541 43.5587 6.67541H41.5747C41.4569 6.67541 41.3494 6.73685 41.2905 6.83669L39.2502 10.2799L38.2134 6.86229C38.1801 6.75221 38.0777 6.67541 37.9599 6.67541H36.1193V6.67285Z" fill="white"/>
<path d="M61.6145 3.66736C61.4839 3.66736 61.3738 3.76208 61.3534 3.89008L59.8506 13.4261C59.8302 13.5592 59.9198 13.6846 60.0529 13.7051C60.0657 13.7051 60.0785 13.7077 60.0913 13.7077H61.8756C62.0062 13.7077 62.1162 13.613 62.1367 13.485L63.6394 3.94896C63.6599 3.81584 63.5703 3.6904 63.4372 3.66992C63.4244 3.66992 63.4116 3.66736 63.3988 3.66736H61.6145Z" fill="white"/>
<path opacity="0.8" d="M5.84529 3.66736C5.60721 3.66736 5.40497 3.84144 5.36913 4.0744L4.57809 9.09456C4.61393 8.85904 4.81617 8.68752 5.05425 8.68752H7.37361C9.70833 8.68752 11.6872 6.98512 12.0507 4.676C12.0789 4.50448 12.0917 4.3304 12.0968 4.15632C11.5029 3.84656 10.8066 3.66736 10.0437 3.66736H5.84785H5.84529Z" fill="white"/>
<path opacity="0.6" d="M12.0937 4.15649C12.0912 4.33057 12.0758 4.50465 12.0477 4.67617C11.6867 6.98273 9.70526 8.68769 7.37054 8.68769H5.05118C4.8131 8.68769 4.61086 8.85921 4.57502 9.09473L3.84798 13.7078L3.3923 16.6006C3.35902 16.8131 3.50494 17.0154 3.71742 17.0486C3.7379 17.0512 3.75838 17.0538 3.77886 17.0538H6.29534C6.53342 17.0538 6.73566 16.8797 6.7715 16.6467L7.43454 12.4406C7.47294 12.2051 7.67262 12.0336 7.9107 12.0336H9.39294C11.7277 12.0336 13.7065 10.3312 14.0701 8.02209C14.3261 6.38369 13.5017 4.89377 12.0937 4.15393V4.15649Z" fill="white"/>
<path d="M2.98527 0.321533C2.74719 0.321533 2.54495 0.493053 2.50911 0.728573L0.532788 13.2547C0.494388 13.4927 0.678708 13.7078 0.919348 13.7078H3.84799L4.57503 9.09465L5.36607 4.07449C5.40191 3.83897 5.60415 3.66745 5.84223 3.66745H10.0381C10.8009 3.66745 11.4973 3.84665 12.0912 4.15641C12.1347 2.05721 10.4016 0.321533 8.01823 0.321533H2.98527Z" fill="white"/>
</g>
</g>
<defs>
<clipPath id="clip0_11341_2235">
<rect width="63.1142" height="16.7322" fill="white" transform="translate(0.52771 0.321533)"/>
</clipPath>
</defs>
</svg>
