<svg width="48" height="17" viewBox="0 0 48 17" fill="none" xmlns="http://www.w3.org/2000/svg">
<g clip-path="url(#clip0_11341_2184)">
<g opacity="0.8">
<path d="M45.8577 16.1619C45.2971 16.1619 44.7364 16.1619 44.1758 16.1619C44.0887 16.1619 44.058 16.1312 44.0401 16.0492C43.8993 15.3606 43.7508 14.6745 43.61 13.9859C43.5947 13.9142 43.5665 13.8937 43.4948 13.8937C41.9153 13.8937 40.3383 13.8937 38.7588 13.8937C38.6897 13.8937 38.6564 13.9168 38.6334 13.9833C38.3979 14.672 38.1572 15.358 37.9217 16.0467C37.8935 16.1286 37.8577 16.1619 37.7655 16.1619C36.4907 16.1593 35.2158 16.1619 33.9409 16.1619C33.8155 16.1619 33.8155 16.1619 33.8641 16.0441C34.7345 13.9577 35.6049 11.8713 36.4753 9.78236C37.0692 8.35644 37.6631 6.93308 38.2571 5.50716C38.6795 4.4934 39.0993 3.47964 39.5268 2.46844C39.6753 2.11516 39.875 1.7926 40.1822 1.54684C40.4587 1.32668 40.7761 1.22172 41.1243 1.21148C42.0535 1.18332 42.9828 1.20636 43.9146 1.19868C44.0836 1.19868 44.2526 1.20124 44.419 1.19868C44.5035 1.19612 44.5419 1.22172 44.5572 1.30876C44.7543 2.2662 44.954 3.2262 45.1537 4.18364C45.4814 5.7606 45.8116 7.335 46.1419 8.9094C46.4311 10.2995 46.7204 11.6896 47.0097 13.0771C47.2171 14.0678 47.4219 15.0585 47.6292 16.0467C47.6523 16.1593 47.6523 16.1619 47.5345 16.1619C46.9739 16.1619 46.4132 16.1619 45.8526 16.1619H45.8577ZM41.8052 5.31004C41.8052 5.31004 41.795 5.31004 41.7899 5.31004C41.7796 5.34076 41.7668 5.36892 41.7566 5.39964C41.4366 6.29308 41.114 7.18396 40.794 8.0774C40.474 8.97084 40.1515 9.86173 39.8315 10.7552C39.7982 10.8473 39.7982 10.8473 39.9006 10.8473C40.195 10.8473 40.4919 10.8473 40.7863 10.8473C41.4827 10.8473 42.1764 10.8473 42.8727 10.8473C42.9905 10.8473 42.9931 10.8448 42.97 10.7321C42.9291 10.5376 42.8881 10.343 42.8446 10.151C42.5195 8.63293 42.1943 7.1174 41.8692 5.59932C41.8487 5.5046 41.8257 5.40732 41.8052 5.3126V5.31004Z" fill="white"/>
<path d="M10.0251 11.3206C10.0763 11.2489 10.0916 11.1824 10.1172 11.1209C10.77 9.47484 11.4203 7.82876 12.0705 6.18268C12.7131 4.55964 13.3556 2.9366 13.9956 1.31356C14.0289 1.22652 14.075 1.19836 14.1671 1.19836C15.4369 1.20092 16.7067 1.19836 17.9764 1.19836C17.9841 1.19836 17.9918 1.19836 18.002 1.19836C18.0993 1.19836 18.107 1.2086 18.0686 1.2982C17.9585 1.56444 17.8459 1.83324 17.7332 2.09948C17.2417 3.27452 16.7502 4.44956 16.2561 5.6246C15.5111 7.40636 14.7636 9.18556 14.0187 10.9673C13.4785 12.2601 12.9383 13.5529 12.3956 14.8432C12.2241 15.2553 12.05 15.6675 11.8785 16.0796C11.8529 16.1385 11.8222 16.1641 11.7556 16.1641C10.4577 16.1641 9.16234 16.1641 7.86442 16.1641C7.79018 16.1641 7.76458 16.136 7.74666 16.0694C7.51882 15.1862 7.28842 14.303 7.06058 13.4198C6.4513 11.0748 5.84458 8.72732 5.2353 6.38236C5.0433 5.64508 4.8513 4.91036 4.65674 4.17308C4.5825 3.8966 4.4929 3.63036 4.31626 3.3974C4.10122 3.11324 3.80426 2.9366 3.48938 2.7958C2.39626 2.30684 1.26474 1.94588 0.089697 1.71548C0.020577 1.70268 -0.012703 1.67964 0.00521699 1.60284C0.028257 1.49788 0.043617 1.39036 0.061537 1.2854C0.071777 1.22652 0.097377 1.1958 0.161377 1.20092C0.184417 1.20092 0.204897 1.20092 0.227937 1.20092C2.2913 1.20092 4.35722 1.20092 6.42058 1.20092C6.8225 1.20092 7.21162 1.2598 7.5649 1.47484C8.0129 1.74876 8.27658 2.15068 8.37642 2.66012C8.69898 4.3318 9.01642 6.00604 9.33386 7.68028C9.55658 8.85532 9.7793 10.0304 10.0046 11.2054C10.0123 11.2387 10.0199 11.272 10.0302 11.3206H10.0251Z" fill="white"/>
<path d="M27.4153 16.41C26.4323 16.4049 25.4621 16.2845 24.5072 16.0465C24.0387 15.9313 23.5779 15.7879 23.1248 15.6164C23.0505 15.5882 23.0326 15.5524 23.048 15.4756C23.2681 14.4516 23.4883 13.4276 23.7059 12.4036C23.7289 12.2961 23.7315 12.2961 23.8237 12.3473C24.4739 12.6929 25.1625 12.9335 25.8793 13.0948C26.5065 13.2356 27.1414 13.3047 27.784 13.274C28.3216 13.2509 28.8413 13.1409 29.3072 12.8541C29.4761 12.7492 29.6272 12.6212 29.7475 12.4599C30.0752 12.0221 30.0521 11.5076 29.6912 11.098C29.4736 10.8522 29.2125 10.6679 28.9385 10.4964C28.4777 10.2071 27.9888 9.96645 27.5152 9.70277C26.9904 9.41093 26.4707 9.10373 26.0073 8.71717C25.4441 8.24869 24.9936 7.69573 24.7709 6.98405C24.6403 6.56421 24.6019 6.13413 24.6275 5.69381C24.6582 5.17157 24.7657 4.66725 24.9705 4.18597C25.2777 3.46405 25.7564 2.87269 26.3734 2.39397C27.1696 1.77701 28.0758 1.40325 29.0512 1.18565C29.5709 1.07045 30.0982 1.00645 30.6333 0.983412C31.4397 0.947572 32.2358 1.01413 33.0294 1.16005C33.5824 1.25989 34.1225 1.40325 34.6499 1.60037C34.7241 1.62853 34.7446 1.65925 34.7267 1.73861C34.5091 2.72933 34.2941 3.72005 34.0816 4.71333C34.0662 4.78757 34.0406 4.80293 33.9715 4.76965C33.3033 4.46757 32.6045 4.26789 31.88 4.16549C31.2041 4.07077 30.5283 4.04261 29.8601 4.22437C29.5094 4.31909 29.1869 4.46757 28.9283 4.73637C28.5597 5.11781 28.5545 5.61189 28.9129 6.00357C29.1741 6.29029 29.4966 6.48997 29.8294 6.67941C30.3926 7.00197 30.9763 7.28357 31.5344 7.61637C32.0541 7.92613 32.5507 8.26917 32.9756 8.70693C33.4902 9.23685 33.8384 9.85381 33.9715 10.586C34.0457 11.0033 34.0457 11.4231 34.0022 11.8455C33.9561 12.2833 33.8512 12.7082 33.6848 13.1178C33.3827 13.8577 32.9014 14.4644 32.2793 14.9585C31.5036 15.5754 30.6128 15.9441 29.6553 16.1719C29.174 16.2871 28.6851 16.3562 28.1936 16.3895C27.935 16.4074 27.6764 16.4228 27.4153 16.4202V16.41Z" fill="white"/>
<path d="M18.478 16.1616C17.8687 16.1616 17.2568 16.1616 16.6476 16.1616C16.54 16.1616 16.54 16.1616 16.5631 16.054C16.9496 14.2364 17.3362 12.4188 17.7228 10.6012C18.204 8.33564 18.6853 6.0726 19.1666 3.807C19.3432 2.975 19.5224 2.14044 19.6965 1.30844C19.7144 1.22396 19.7503 1.19836 19.8348 1.19836C21.0456 1.19836 22.2591 1.19836 23.47 1.19836C23.58 1.19836 23.5852 1.20604 23.5672 1.30332C23.0911 3.54588 22.6175 5.791 22.1413 8.03356C21.7829 9.72828 21.4245 11.4204 21.0636 13.1152C20.8588 14.0854 20.6514 15.0556 20.4466 16.0284C20.4184 16.1616 20.4184 16.1641 20.2828 16.1641C19.6812 16.1641 19.0796 16.1641 18.478 16.1641V16.1616Z" fill="white"/>
</g>
</g>
<defs>
<clipPath id="clip0_11341_2184">
<rect width="47.6442" height="15.4445" fill="white" transform="translate(0 0.965332)"/>
</clipPath>
</defs>
</svg>
