<svg width="96" height="29" viewBox="0 0 96 29" fill="none" xmlns="http://www.w3.org/2000/svg">
<g clip-path="url(#clip0_133_2791)">
<path d="M42.2897 28.4347C41.2327 28.5887 40.1687 28.5537 39.1117 28.5607C38.2857 28.5677 37.4597 28.5957 36.6407 28.5257C36.0317 28.4767 35.4157 28.4487 34.8137 28.3437C34.3867 28.2737 33.9527 28.2527 33.5257 28.1897C32.6997 28.0777 31.8807 27.9167 31.0617 27.7417C30.4107 27.6087 29.7527 27.4757 29.1157 27.2657C28.3247 27.0067 27.5197 26.7897 26.7287 26.5237C25.4827 26.1037 24.2647 25.6277 23.0817 25.0747C21.7727 24.4657 20.5127 23.7657 19.2877 23.0027C17.4817 21.8757 15.7877 20.6087 14.2057 19.1877C13.8347 18.8587 13.7647 18.6207 13.9397 18.3757C14.0867 18.1657 14.3877 18.1797 14.7797 18.4037C18.0837 20.3007 21.5627 21.7707 25.2167 22.8487C26.8477 23.3317 28.4927 23.7377 30.1587 24.0877C31.1457 24.2907 32.1467 24.4237 33.1547 24.5427C34.2187 24.6687 35.2897 24.7947 36.3537 24.8507C37.5787 24.9137 38.8107 24.9627 40.0427 24.9277C40.8267 24.9067 41.6177 24.9277 42.3947 24.8577C43.3887 24.7807 44.3827 24.7107 45.3697 24.5357C45.8177 24.4517 46.2867 24.4797 46.7417 24.4027C48.3447 24.1087 49.9477 23.8217 51.5227 23.4087C53.8957 22.7927 56.2267 22.0227 58.4877 21.0637C58.7187 20.9657 58.9567 20.9237 59.1947 20.9867C59.4607 21.0637 59.6637 21.2247 59.7267 21.5117C59.7897 21.8057 59.6707 22.0507 59.4537 22.2327C59.0267 22.5967 58.5507 22.8977 58.0747 23.2057C55.2887 24.9977 52.2647 26.2507 49.0797 27.1397C47.4487 27.5947 45.7967 27.9517 44.1237 28.1827C43.5147 28.2667 42.9127 28.3437 42.3037 28.4207L42.2897 28.4347Z" fill="#F8991C"/>
<path d="M20.4989 2.86299C21.4509 0.755991 22.8369 0.0209906 24.7199 0.153991C26.5119 0.286991 27.4919 1.22499 28.1569 2.82799C28.3809 2.68099 28.4299 2.42199 28.5489 2.21899C29.1789 1.11999 30.1309 0.405991 31.3559 0.223991C32.7909 0.0139905 34.1839 0.230991 35.2899 1.32299C35.8359 1.86199 36.1369 2.52699 36.2769 3.26899C36.4309 4.09499 36.4379 4.92799 36.4379 5.76099C36.4309 9.02999 36.4309 12.299 36.4239 15.568C36.4239 15.75 36.4169 15.932 36.3889 16.114C36.3609 16.338 36.1019 16.541 35.8569 16.548C34.8839 16.548 33.9179 16.555 32.9449 16.548C32.5809 16.548 32.3709 16.296 32.3709 15.939C32.3709 13.146 32.3849 10.353 32.3919 7.55999C32.3919 7.03499 32.3919 6.50999 32.3849 5.99199C32.3779 5.55099 32.3079 5.11699 32.1329 4.71799C31.9789 4.36799 31.6989 4.13699 31.3279 4.03899C30.6209 3.85699 29.9489 3.85699 29.3609 4.40299C28.9549 4.78099 28.7449 5.23599 28.6539 5.76099C28.5629 6.29999 28.5489 6.83899 28.5489 7.38499C28.5699 10.234 28.5629 13.09 28.5559 15.939C28.5559 16.317 28.3179 16.548 27.9399 16.548C27.0089 16.548 26.0779 16.548 25.1469 16.548C24.7199 16.548 24.5099 16.324 24.5099 15.911C24.5099 13.251 24.5169 10.598 24.5239 7.93799C24.5239 7.36399 24.5589 6.79699 24.5099 6.22299C24.4609 5.68399 24.3839 5.15199 24.1529 4.66199C23.9499 4.22799 23.5579 3.98999 23.1169 3.93399C22.5009 3.85699 21.8569 3.84999 21.3879 4.39599C21.0449 4.79499 20.8839 5.28499 20.7859 5.79599C20.6599 6.43999 20.6949 7.08399 20.6949 7.73499C20.6949 10.402 20.6949 13.069 20.6949 15.736C20.6949 16.394 20.5339 16.555 19.8829 16.555C19.0009 16.555 18.1189 16.555 17.2369 16.555C16.8519 16.555 16.6629 16.359 16.6629 15.974C16.6629 11.221 16.6629 6.46799 16.6629 1.71499C16.6629 1.51899 16.6559 1.32999 16.6489 1.13399C16.6489 0.671991 16.8449 0.461991 17.2999 0.461991C18.1539 0.461991 19.0079 0.461991 19.8619 0.461991C20.2749 0.461991 20.4989 0.699991 20.5059 1.12699C20.5059 1.70799 20.5059 2.28899 20.5059 2.86999L20.4989 2.86299ZM51.7399 7.72799C51.7119 6.36299 51.8239 4.99099 51.5789 3.62599C51.3479 2.33099 50.6549 1.36499 49.4999 0.790991C48.0509 0.0699906 46.5039 -0.126009 44.8869 0.0559906C44.1519 0.139991 43.4379 0.286991 42.7519 0.538991C41.9329 0.839991 41.2259 1.32299 40.6379 1.95999C39.9799 2.67399 39.6439 3.55599 39.4129 4.47999C39.3779 4.62699 39.4409 4.75299 39.5319 4.87199C39.7139 5.12399 39.9799 5.10999 40.2459 5.13799C41.0439 5.23599 41.8349 5.37599 42.6399 5.36199C43.0039 5.36199 43.1929 5.22899 43.2419 4.88599C43.2699 4.68299 43.3469 4.50799 43.4309 4.33299C43.7389 3.73799 44.2009 3.33899 44.8799 3.19899C45.2789 3.12199 45.6779 3.10799 46.0559 3.16399C46.6579 3.24799 47.1479 3.54199 47.3929 4.16499C47.6589 4.85099 47.5959 5.55799 47.6099 6.26499C47.6099 6.34199 47.5609 6.34899 47.4979 6.35599C46.8189 6.43299 46.1399 6.50299 45.4609 6.58699C44.9919 6.64299 44.5229 6.69899 44.0539 6.78999C43.5289 6.88799 43.0179 7.03499 42.5069 7.20999C41.4779 7.55999 40.6309 8.14799 39.9589 9.00899C39.2239 9.95399 38.9509 11.039 38.9579 12.208C38.9579 13.412 39.2239 14.532 40.0779 15.442C40.7849 16.205 41.6599 16.625 42.6959 16.716C43.3469 16.772 43.9979 16.744 44.6489 16.66C45.3769 16.562 46.0209 16.296 46.6439 15.918C47.1759 15.596 47.6099 15.169 48.0579 14.756C48.1839 14.637 48.2259 14.672 48.3029 14.791C48.7019 15.393 49.1429 15.96 49.7029 16.429C50.0389 16.709 50.3609 16.716 50.6829 16.415C50.8859 16.226 51.1029 16.051 51.3129 15.869C51.8239 15.428 52.3349 14.994 52.8459 14.553C52.9509 14.462 52.9929 14.35 52.9859 14.189C52.9579 13.874 52.7689 13.664 52.5939 13.44C52.0269 12.726 51.7049 11.935 51.7329 10.997C51.7679 10.08 51.7329 9.15599 51.7329 8.23199C51.7329 8.05699 51.7329 7.88199 51.7329 7.70699L51.7399 7.72799ZM47.2109 12.159C46.7909 13.132 45.8949 13.937 44.7259 13.804C44.1239 13.734 43.6899 13.342 43.4659 12.81C43.0879 11.907 43.1229 10.423 44.0959 9.61799C44.5999 9.20499 45.1739 8.97399 45.7969 8.86199C46.2939 8.77799 46.7979 8.73599 47.3089 8.72899C47.5819 8.72899 47.6379 8.81299 47.6169 9.05799C47.5959 9.23299 47.6169 9.40799 47.6169 9.58299C47.6029 10.458 47.5679 11.333 47.2109 12.152V12.159ZM1.21388 14.959C1.91388 16.002 2.90088 16.59 4.14688 16.73C4.81188 16.807 5.47688 16.779 6.14188 16.674C6.77888 16.576 7.38088 16.401 7.94788 16.086C8.55688 15.743 9.05388 15.267 9.56488 14.805C9.67688 14.707 9.72588 14.644 9.83788 14.826C10.2159 15.442 10.6989 15.981 11.2309 16.478C11.4899 16.716 11.8539 16.751 12.1129 16.527C12.8199 15.918 13.5199 15.302 14.2339 14.7C14.6259 14.371 14.5209 14.077 14.3459 13.769C14.2899 13.671 14.2059 13.587 14.1429 13.496C13.8629 13.104 13.6039 12.698 13.4289 12.243C13.2399 11.753 13.2819 11.249 13.2679 10.745C13.2119 8.45599 13.3939 6.15999 13.1559 3.87099C13.0929 3.31099 12.9319 2.77199 12.6379 2.28899C11.9309 1.11999 10.8039 0.573991 9.52988 0.251991C9.08888 0.139991 8.63388 0.104991 8.17888 0.0629906C7.57688 -9.43853e-06 6.97488 -9.43592e-06 6.38688 0.0419906C5.78488 0.0769906 5.20388 0.244991 4.62988 0.433991C3.74088 0.720991 2.93588 1.17599 2.29188 1.85499C1.61988 2.56199 1.19288 3.42299 0.996877 4.38199C0.905877 4.82299 1.13688 5.14499 1.60588 5.14499C1.65488 5.14499 1.70388 5.14499 1.75288 5.14499C2.58588 5.27799 3.41888 5.36199 4.25888 5.37599C4.51088 5.37599 4.65088 5.25699 4.72088 5.03299C4.79788 4.78799 4.84688 4.52199 4.97288 4.29799C5.67288 3.02399 7.18488 2.92599 8.25588 3.39499C8.57788 3.53499 8.78788 3.80799 8.92788 4.15099C9.17988 4.77399 9.13788 5.41799 9.16588 6.06899C9.17988 6.36299 9.03988 6.41199 8.80188 6.43299C8.21388 6.48199 7.62588 6.54499 7.03788 6.60799C6.13488 6.71299 5.23888 6.85999 4.36388 7.11899C3.60088 7.34299 2.89388 7.69299 2.29188 8.20399C1.05288 9.25399 0.443877 10.598 0.499877 12.201C0.471877 13.202 0.660877 14.126 1.21388 14.952V14.959ZM8.54988 12.523C8.10188 13.293 7.45788 13.755 6.54088 13.825C5.81988 13.881 5.11988 13.286 4.94488 12.677C4.62988 11.585 4.69288 10.556 5.55388 9.70899C5.99488 9.27499 6.55488 9.08599 7.13588 8.93199C7.73788 8.77799 8.34688 8.74999 8.95588 8.75699C9.09588 8.75699 9.14488 8.79199 9.13788 8.93199C9.13088 9.19099 9.13788 9.45699 9.13788 9.71599C9.13788 10.696 9.05388 11.655 8.54988 12.523ZM87.0829 1.03599C87.0829 0.685991 86.8799 0.461991 86.5299 0.461991C85.6269 0.454991 84.7239 0.454991 83.8209 0.461991C83.4639 0.461991 83.2469 0.706991 83.2469 1.06399C83.2469 1.38599 83.2609 1.70099 83.2609 2.02299C83.2609 6.67099 83.2609 11.319 83.2609 15.96C83.2609 16.303 83.4499 16.548 83.7859 16.548C84.7729 16.562 85.7669 16.555 86.7539 16.548C87.0129 16.548 87.2579 16.317 87.2649 16.093C87.2789 15.764 87.2929 15.435 87.2929 15.106C87.2929 12.691 87.2929 10.276 87.2929 7.86099C87.2929 7.61599 87.2649 7.36399 87.2789 7.11899C87.2999 6.56599 87.3769 6.00599 87.5659 5.48099C87.8389 4.71799 88.2519 4.05299 89.1199 3.88499C89.8549 3.74499 90.7089 4.02499 90.9889 4.87899C91.2059 5.52999 91.2759 6.19499 91.2829 6.87399C91.2829 9.09299 91.2829 11.319 91.2829 13.538C91.2829 14.35 91.2829 15.169 91.2829 15.981C91.2829 16.24 91.4999 16.534 91.7169 16.534C92.7459 16.541 93.7749 16.548 94.8039 16.534C95.0839 16.534 95.2939 16.317 95.3079 16.079C95.3149 15.855 95.3289 15.631 95.3289 15.414C95.2589 11.641 95.4899 7.86099 95.1889 4.09499C95.0979 2.96799 94.7899 1.93899 93.9149 1.13399C93.4459 0.699991 92.8999 0.440991 92.2909 0.286991C91.6889 0.139991 91.0939 0.111991 90.4709 0.167991C89.4279 0.265991 88.6299 0.762991 87.9999 1.56799C87.6359 2.03699 87.3629 2.56199 87.0829 3.10799C87.0829 2.41499 87.0829 1.71499 87.0829 1.02199V1.03599ZM67.8119 9.91899C67.9099 10.78 68.0919 11.613 68.3859 12.418C68.8829 13.762 69.6459 14.931 70.8289 15.792C71.5919 16.352 72.4389 16.716 73.3769 16.828C74.0419 16.905 74.7209 16.898 75.3929 16.786C76.7159 16.569 77.8359 15.981 78.7739 15.036C79.3969 14.399 79.8729 13.657 80.2369 12.831C80.7129 11.746 80.9369 10.612 81.0489 9.44299C81.1119 8.77099 81.0629 8.09899 81.0069 7.42699C80.9299 6.51699 80.7689 5.62799 80.4679 4.76699C80.1109 3.74499 79.6209 2.79999 78.8649 2.00899C77.8569 0.94499 76.6039 0.370991 75.1619 0.195991C73.8389 0.0419906 72.5719 0.223991 71.3819 0.867991C70.0169 1.60999 69.1349 2.77899 68.5469 4.17199C67.9659 5.55099 67.7209 7.00699 67.7839 8.70799C67.8259 8.98099 67.7629 9.44999 67.8189 9.91899H67.8119ZM76.4499 11.704C76.2469 12.397 76.0509 13.097 75.3439 13.482C74.3569 14.021 73.4189 13.825 72.8169 12.81C72.4039 12.11 72.2849 11.34 72.1799 10.549C72.0329 9.44999 72.1099 8.34399 72.1029 7.24499C72.1029 6.34199 72.1869 5.45299 72.5369 4.61299C72.8869 3.76599 73.4469 3.21999 74.2449 3.23399C74.6159 3.24099 74.9939 3.26199 75.3509 3.44399C76.0159 3.76599 76.2049 4.38199 76.3659 5.00499C76.5759 5.81699 76.7019 6.64299 76.6599 7.48299C76.6389 7.88199 76.7579 8.26699 76.7369 8.65899C76.6179 9.66699 76.7299 10.703 76.4429 11.697L76.4499 11.704ZM60.8259 3.77299C59.8459 5.16599 58.8659 6.55899 57.8859 7.95199C57.0879 9.09299 56.3179 10.255 55.4849 11.375C54.9389 12.11 54.6659 12.88 54.7499 13.797C54.8059 14.406 54.7639 15.015 54.7569 15.631C54.7569 16.072 55.1559 16.261 55.5199 16.086C55.6389 16.03 55.7509 15.946 55.8699 15.897C57.0109 15.379 58.2009 15.043 59.4469 14.924C60.4269 14.826 61.4069 14.882 62.3799 15.043C63.4649 15.225 64.5149 15.554 65.4949 16.065C65.9429 16.296 66.3349 16.065 66.3489 15.547C66.3629 14.819 66.3699 14.091 66.3489 13.363C66.3349 12.964 66.1529 12.628 65.7749 12.432C64.2489 11.641 62.6039 11.34 60.9029 11.291C60.7349 11.291 60.5669 11.291 60.3359 11.291C60.6439 10.85 60.9169 10.465 61.1899 10.073C62.6109 8.04299 64.0249 6.00599 65.4599 3.98999C65.8869 3.39499 66.1459 2.78599 66.0619 2.04399C66.0269 1.73599 66.0619 1.42099 66.0619 1.11299C66.0619 0.608991 65.8729 0.419991 65.3619 0.419991C64.2769 0.419991 63.1919 0.419991 62.0999 0.419991C60.0559 0.419991 58.0049 0.419991 55.9609 0.419991C55.4709 0.419991 55.2959 0.594991 55.2959 1.09199C55.2959 1.67299 55.2959 2.25399 55.2959 2.83499C55.2959 3.54899 55.4149 3.66799 56.1429 3.66799C57.5989 3.66799 59.0549 3.66799 60.5109 3.66799C60.6159 3.66799 60.7209 3.66799 60.8539 3.66799C60.8329 3.73799 60.8259 3.75899 60.8189 3.77299H60.8259Z" fill="black"/>
<path d="M59.2161 19.2084C58.2081 19.2084 57.3611 19.2854 56.5071 19.3974C56.0521 19.4604 55.5901 19.4814 55.1281 19.5234C54.9671 19.5374 54.7991 19.5024 54.7361 19.3484C54.6801 19.2014 54.7361 19.0474 54.8621 18.9354C55.2961 18.5294 55.8211 18.2774 56.3531 18.0464C57.3961 17.6054 58.4811 17.3744 59.6151 17.2974C60.1541 17.2624 60.7001 17.2204 61.2391 17.2554C61.8901 17.2974 62.5411 17.3674 63.1781 17.5284C63.4161 17.5914 63.6191 17.7174 63.8431 17.8154C63.9971 17.8854 64.0531 18.0324 64.0951 18.1864C64.1931 18.5574 64.2001 18.9424 64.1511 19.3134C64.0811 19.7964 64.0461 20.2794 63.9341 20.7624C63.5981 22.1834 63.1081 23.5414 62.2611 24.7454C61.8831 25.2774 61.4911 25.8024 60.9941 26.2294C60.9521 26.2644 60.9101 26.3064 60.8611 26.3414C60.6651 26.4814 60.4481 26.6284 60.2311 26.4604C60.0351 26.3064 60.1471 26.0894 60.2241 25.9004C60.7491 24.5634 61.2811 23.2334 61.6171 21.8404C61.7501 21.2944 61.7991 20.7344 61.7781 20.1744C61.7641 19.7684 61.4211 19.4534 60.9171 19.3624C60.3081 19.2504 59.6921 19.1874 59.2231 19.2154L59.2161 19.2084Z" fill="#F8991C"/>
</g>
<defs>
<clipPath id="clip0_133_2791">
<rect width="94.843" height="28.574" fill="white" transform="translate(0.5)"/>
</clipPath>
</defs>
</svg>
