<svg width="119" height="42" viewBox="0 0 119 42" fill="none" xmlns="http://www.w3.org/2000/svg">
<g clip-path="url(#clip0_320_9889)">
<mask id="mask0_320_9889" style="mask-type:luminance" maskUnits="userSpaceOnUse" x="0" y="0" width="119" height="42">
<path d="M118.45 0.0996094H0.549805V41.4996H118.45V0.0996094Z" fill="white"/>
</mask>
<g mask="url(#mask0_320_9889)">
<path d="M99.5561 39.8989C100.851 39.7146 101.198 38.3935 101.282 37.2872C101.751 31.0561 100.931 24.2645 101.287 17.9753C101.137 15.7804 100.406 15.0228 98.1245 15.1725V14.0879H116.181L116.477 20.4924H115.491C115.314 17.9497 114.429 16.4848 111.902 15.8493C109.54 15.2553 106.958 15.539 104.539 15.4681V26.3047C105.832 26.2614 107.142 26.3639 108.435 26.3038C109.359 26.2614 111.082 26.1737 111.833 25.6575C112.714 25.0526 112.536 24.1739 112.742 23.2646L113.616 23.2508V30.1961C113.616 30.2168 113.764 30.3074 113.714 30.3429H112.629C112.796 27.547 110.643 27.7953 108.629 27.6879C108.396 27.6751 108.181 27.5894 107.947 27.5815C106.814 27.5411 105.671 27.6199 104.539 27.5854V37.7818C104.539 38.3384 105.16 39.0841 105.672 39.3107C106.693 39.7629 109.683 39.6733 110.902 39.6033C112.39 39.5176 114.468 39.1866 115.636 38.2231C116.805 37.2596 117.222 35.7129 117.408 34.2786L118.45 34.1869L117.656 40.9786L98.1245 40.9845V39.8998C98.5744 39.8555 99.121 39.961 99.5561 39.8989Z" fill="#00A4E4"/>
<path d="M10.3173 39.8999V40.9845C7.09595 40.8633 3.86776 40.8505 0.647461 40.9845V39.8999H2.17769C2.2211 39.8999 2.76571 39.6447 2.85253 39.5886C3.52047 39.1551 3.70003 38.4261 3.80363 37.6813V17.4887C3.6211 15.4977 2.5161 15.0524 0.647461 15.1726V14.0879C3.54513 14.2416 6.47438 14.2091 9.3839 14.1913C10.998 14.1815 12.2076 14.0022 13.872 14.3312C21.0378 15.7449 21.5745 25.8437 14.46 27.9293C12.1691 28.6012 9.6345 28.4652 7.2834 28.1953L7.06043 28.3243V37.1907C7.06043 37.5867 7.31201 38.7512 7.49848 39.1177C7.64648 39.4083 8.17727 39.8999 8.49101 39.8999H10.3163H10.3173ZM7.06142 15.3696V26.0585C8.9636 27.1776 11.8949 27.5076 13.8385 26.3235C16.4885 24.7098 16.3958 20.2766 14.9711 17.865C13.3649 15.146 9.90384 14.8711 7.06142 15.3696Z" fill="#00A4E4"/>
<path d="M71.2898 39.8995V40.9841C67.88 40.859 64.4407 40.8235 61.028 40.9841V39.8995H62.6569C62.6905 39.8995 63.1907 39.6729 63.2696 39.6246C64.2562 39.0266 63.7708 38.0011 63.4699 37.1164C62.8306 35.2357 61.6378 32.1059 60.7498 30.375C60.6837 30.246 60.6492 30.0992 60.5367 29.9967L51.7509 29.9938C51.0475 32.2389 50.0875 34.5107 49.459 36.7686C49.239 37.5587 48.727 38.9675 49.4492 39.5891C49.5222 39.6522 49.9731 39.8975 50.0283 39.8975H51.4589V40.9821C48.7063 40.8826 45.925 40.7959 43.1704 40.9821V39.8975C45.188 40.129 46.1815 39.1419 47.0043 37.4701L56.3545 13.1152L56.9849 13.1496L66.7642 36.4849C67.0977 37.4927 68.6999 39.8975 69.8582 39.8975H71.2888L71.2898 39.8995ZM59.9437 28.5702L55.7023 18.2261L52.2482 28.5702H59.9437Z" fill="#00A4E4"/>
<path d="M94.9683 37.1915C89.2667 43.4344 77.381 42.8177 72.5506 35.834C68.0546 29.3339 70.7727 19.2026 77.5379 15.3536C82.985 12.2544 89.1681 13.9242 94.7276 15.7585L94.6734 20.7887C94.4533 20.7818 94.2106 20.8498 94.0301 20.6912C93.9423 20.6134 93.2645 19.2548 93.0346 18.9268C90.8216 15.7812 86.7667 14.8818 83.0817 15.1743C71.8146 16.0669 70.5339 36.8398 82.1227 39.6741C86.7686 40.81 90.7506 38.9027 93.8357 35.567C94.18 35.1956 94.4918 34.5454 94.9693 34.3838L94.9683 37.1915Z" fill="#00A4E4"/>
<path d="M22.0088 39.8999C22.653 39.7935 23.3644 39.0713 23.4926 38.4261C23.8231 31.4768 23.5459 24.4616 23.6347 17.4887C23.4522 15.4977 22.3472 15.0524 20.4785 15.1726V14.0879H30.247V15.1716H28.8164C28.7513 15.1716 28.2402 15.3331 28.1356 15.3785C27.22 15.7656 26.9685 16.7764 26.8945 17.6857C26.4002 23.7542 27.2644 30.467 26.8895 36.6026C26.9951 37.571 27.1806 38.5216 28.0448 39.094C29.6017 40.1264 34.6867 39.8792 36.506 39.3984C39.0288 38.7315 39.4106 36.7799 39.7628 34.4736L40.9033 34.3801L40.706 40.9816H20.4795V39.8969C20.9501 39.8427 21.5608 39.9708 22.0088 39.8969V39.8999Z" fill="#00A4E4"/>
<path d="M43.566 8.07876C43.5019 7.70835 44.1471 7.84134 44.3326 7.66204C44.4628 7.47585 44.4431 7.26109 44.4579 7.0483C44.5921 5.10459 44.3543 3.00228 44.4471 1.04084C44.3701 0.554178 44.006 0.459603 43.564 0.492113V0.197553C44.4421 0.356162 45.4485 0.356162 46.3266 0.197553V0.492113C46.0296 0.383746 45.4396 0.616242 45.4396 0.935431V3.84163H49.9287L50.0767 3.69385V1.23196C50.0767 1.19945 49.8823 0.639886 49.8566 0.614272C49.7136 0.465514 49.2913 0.497039 49.0891 0.493098V0.197553C49.1966 0.160117 49.3061 0.296068 49.3367 0.296068H51.7046C51.7253 0.296068 51.817 0.148295 51.8516 0.197553L51.8535 0.493098C51.3297 0.43793 51.0445 0.611316 50.9715 1.14034C50.7989 2.38163 50.8452 5.7479 50.9607 7.04928C50.9794 7.26207 50.9912 7.48275 51.157 7.64136C51.4046 7.87878 51.8585 7.65909 51.8535 8.07876H49.091C49.0486 7.71426 49.6199 7.89848 49.833 7.68667C49.8744 7.6453 50.0776 7.08672 50.0776 7.04436V4.23667H45.4406V7.43842C45.4406 7.80292 46.0542 7.83051 46.3295 7.78322V8.07876H43.566Z" fill="#00A4E4"/>
<path d="M9.72512 8.07847C9.72118 7.65979 10.1751 7.87947 10.4217 7.64106C10.5865 7.48246 10.5983 7.2608 10.6181 7.04899C10.7325 5.75844 10.7799 2.36952 10.6042 1.14301C10.5233 0.58049 10.2796 0.458331 9.72512 0.492811V0.197266C10.6033 0.355875 11.6096 0.355875 12.4877 0.197266V0.491826C11.9184 0.349964 11.5021 0.781461 11.5021 1.3292V3.69356L11.6501 3.84134H16.0898C16.3226 3.399 16.2763 2.53897 16.2417 2.01487C16.1944 1.30457 16.2121 0.28987 15.2502 0.491826V0.197266C16.1303 0.355875 17.1366 0.355875 18.0127 0.197266V0.491826C17.5727 0.459316 17.2076 0.552906 17.1317 1.04055C17.252 2.97736 16.9511 5.13977 17.1208 7.04899C17.1396 7.26277 17.1504 7.48147 17.3171 7.64106C17.5628 7.87652 18.0482 7.71692 18.0137 8.07847H15.2512C15.1969 7.74057 15.7248 7.86962 15.9379 7.72973C16.3394 7.46472 16.2121 4.80777 16.2378 4.23638H11.5021V6.94555C11.5021 7.00761 11.6944 7.63614 11.7458 7.68737L12.4897 7.78293V8.07847H9.72512Z" fill="#00A4E4"/>
<path d="M67.8365 8.07847C67.7724 7.70807 68.4177 7.84105 68.6031 7.66175C68.7501 7.51989 68.8113 6.97215 68.8271 6.75246C68.9238 5.38901 68.9711 2.65817 68.8113 1.34102C68.7344 0.706589 68.5074 0.442569 67.8356 0.491826V0.197266C68.0191 0.223865 68.1848 0.294796 68.3742 0.300707C71.1072 0.384445 74.7547 -0.538642 75.759 2.97539C76.4033 5.22941 74.7872 8.07847 72.3256 8.07847H67.8365ZM69.7111 0.591327V7.14258C69.7111 8.0105 72.1658 7.72185 72.7143 7.57999C75.5558 6.84211 75.5479 2.76752 73.4543 1.23857C73.2313 1.07602 72.2556 0.591327 72.0306 0.591327H69.7111Z" fill="#00A4E4"/>
<path d="M78.5908 8.07861C78.7487 7.53186 79.3456 8.01852 79.4728 7.23533C79.3525 5.33201 79.6534 3.19916 79.4837 1.3254C79.4284 0.712636 79.2548 0.423987 78.5898 0.492947V0.197402C79.311 0.360937 80.0747 0.294932 80.8156 0.299858C81.0988 0.301828 81.3375 0.189521 81.595 0.193461C84.3122 0.227942 84.914 3.35974 82.4494 4.38134C83.0207 5.10444 83.9422 7.36635 84.6713 7.76829C84.8903 7.88947 85.133 7.89735 85.3659 7.96631C85.5287 8.01458 85.6431 7.88848 85.5948 8.17516C84.9515 8.186 84.176 8.20471 83.6294 7.82346C82.8845 7.30429 81.8565 4.72811 81.2823 4.55177C81.0988 4.49562 80.4782 4.39513 80.3667 4.57936V7.04224C80.3667 7.08066 80.5719 7.64712 80.6094 7.68652C80.7811 7.86287 81.1274 7.75943 81.3533 7.78208V8.07763H78.5898L78.5908 8.07861ZM80.3667 4.03949C82.0361 4.50252 83.6442 3.46712 82.8204 1.63868C82.3922 0.688008 81.2744 0.329412 80.3667 0.739235V4.03949Z" fill="#00A4E4"/>
<path d="M97.583 0.296068C97.6126 0.296068 97.6639 0.178835 97.7823 0.282276L102.96 6.69955V1.52751C102.96 1.07926 102.603 0.43793 102.074 0.489158V0.197553C102.108 0.148295 102.2 0.296068 102.22 0.296068H104.194C104.214 0.296068 104.306 0.148295 104.341 0.197553L104.343 0.492113C103.631 0.40542 103.595 0.991585 103.466 1.53834L103.256 8.17629C102.984 8.22555 102.876 8.04625 102.713 7.88272C101.229 6.38233 99.7209 4.09186 98.3209 2.41611C98.0496 2.09101 97.7793 1.7334 97.436 1.47825C97.5208 3.07124 97.3205 4.77949 97.431 6.35869C97.4537 6.68083 97.5297 7.51033 97.7754 7.68963C97.9983 7.85316 98.4749 7.7379 98.4216 8.07876H96.0537C96.0202 7.66697 96.5095 7.8709 96.698 7.68766C97.0739 7.32315 96.918 5.73804 96.9427 5.17355C96.993 4.03275 97.215 2.25356 97.0166 1.15709C96.9111 0.570925 96.5135 0.442855 95.9541 0.493098L95.956 0.197553C95.9906 0.148295 96.0823 0.296068 96.103 0.296068C96.5954 0.296068 97.0916 0.280305 97.583 0.296068Z" fill="#00A4E4"/>
<path d="M25.7083 0.197266V2.06905C25.3916 2.10845 25.4508 1.54889 25.3343 1.3095C25.1666 0.965684 24.4188 0.591327 24.0804 0.591327H22.2551V3.84232C22.8284 3.80784 24.1583 3.97039 24.5263 3.49949C24.6911 3.28768 24.6161 2.89461 24.919 2.95568V4.92599C24.5648 4.97919 24.6338 4.48464 24.5036 4.35657C24.4799 4.33391 23.9166 4.13787 23.883 4.13787H22.2551V7.24109C22.2551 7.29823 22.4732 7.58196 22.556 7.63023C22.9902 7.8844 24.3181 7.75042 24.8262 7.64106C25.2949 7.53959 25.6866 7.26671 25.8947 6.8362C26.0112 6.59582 25.9825 6.06187 26.2992 6.10817L26.1029 8.07749H20.3806C20.3145 7.70608 20.9696 7.83908 21.1482 7.66175C21.2804 7.52974 21.3563 6.87265 21.3711 6.65296C21.4649 5.30823 21.5132 2.63847 21.3553 1.34004C21.2784 0.705604 21.0515 0.441584 20.3796 0.490841V0.197266H25.7083Z" fill="#00A4E4"/>
<path d="M92.8966 0.197266V1.62573C92.8966 1.69666 93.0703 1.9065 92.9943 2.06905H92.6993C92.8276 1.30162 91.9761 0.591327 91.2687 0.591327H89.4435V3.69455C89.8234 3.99206 91.4858 3.86104 91.7591 3.54481C91.9643 3.30738 91.7709 2.91529 92.1074 2.95568V4.92599C91.7837 4.98411 91.9505 4.58808 91.7107 4.38514C91.6496 4.33391 91.1227 4.13787 91.0714 4.13787H89.4435V7.14258C89.4435 8.01641 91.4769 7.7514 92.0146 7.64106C92.8296 7.4726 93.2143 7.0086 93.2933 6.17713L93.5883 6.11014C93.3594 6.71502 93.5488 7.53959 93.2429 8.07946H87.6686C87.642 7.6785 88.1017 7.85484 88.3198 7.69525C88.4411 7.6056 88.5269 7.28936 88.5477 7.1347C88.7174 5.90818 88.6769 2.60694 88.5615 1.32624C88.5131 0.789342 88.302 0.505618 87.7377 0.491826L87.6696 0.198251H92.8976L92.8966 0.197266Z" fill="#00A4E4"/>
<path d="M115.884 0.395315V2.16859H115.49C115.78 0.175627 112.277 -0.203657 112.228 1.72428C112.175 3.74483 115.615 3.48573 116.04 5.31417C116.704 8.17013 113.482 8.66763 111.445 7.98098V6.20771C111.671 6.1683 111.603 6.21854 111.665 6.33381C111.826 6.62837 111.829 6.86874 112.084 7.19483C113.043 8.4243 115.399 8.00955 115.399 6.35548C115.399 4.26499 111.177 4.58615 111.352 2.13312C111.512 -0.128785 114.239 -0.134696 115.884 0.395315Z" fill="#00A4E4"/>
<path d="M41.0898 0.700114L41 2.16799C40.4683 1.40351 40.2019 0.982853 39.2764 0.689278C37.2884 0.0587812 35.6901 0.870547 35.1534 2.87927C34.0296 7.07995 38.1892 9.67189 41.0513 6.30562C41.4568 7.16566 40.196 7.82374 39.5172 8.02471C36.0907 9.03843 32.9976 6.48295 34.1905 2.90291C35.2254 -0.20524 38.4348 -0.348087 41.0898 0.700114Z" fill="#00A4E4"/>
<path d="M7.55474 0.197266V2.16756H7.25974C7.20844 1.00016 6.75164 0.664228 5.63479 0.587386C5.29935 0.564727 4.73402 0.511529 4.49624 0.739099V7.14258C4.49624 7.20267 4.66989 7.64402 4.73303 7.69426C4.95107 7.86962 5.54205 7.69624 5.48286 8.07847H2.62168V7.88243C2.88314 7.84795 3.60829 7.76224 3.60829 7.43812V0.591327H2.17771C2.14614 0.591327 1.62422 0.737129 1.56305 0.765698C1.07566 0.990313 0.901038 1.674 0.944449 2.16855H0.549805V0.197266H7.55474Z" fill="#00A4E4"/>
<path d="M62.0652 0.296068C62.1076 0.291142 62.2013 0.161102 62.3108 0.197553V0.492113C61.8363 0.43793 61.4081 0.644812 61.3311 1.13837C61.4475 2.94317 61.1555 4.97554 61.3213 6.75177C61.3824 7.40689 61.5906 7.68175 62.2714 7.77337C63.5471 7.94577 65.1572 7.81967 65.175 6.20599H65.469L65.3703 8.07778H59.5493C59.5325 7.65416 60.0199 7.88567 60.2468 7.64136C60.3879 7.48964 60.4225 7.15469 60.4412 6.9488C60.6079 5.10459 60.3139 3.01016 60.4313 1.13837C60.3613 0.690129 59.9854 0.456648 59.5483 0.492113L59.5503 0.197553C59.5848 0.148295 59.6766 0.296068 59.6973 0.296068C60.4215 0.296068 61.3785 0.375865 62.0652 0.296068Z" fill="#00A4E4"/>
<path d="M56.8357 0.296594C56.8634 0.292653 56.9472 0.147836 56.9827 0.198079L56.9847 0.492639C56.5476 0.458158 56.1727 0.690654 56.1017 1.1389C56.2191 3.01069 55.9251 5.10512 56.0918 6.94932C56.1106 7.15522 56.1451 7.49017 56.2862 7.64188C56.5131 7.8862 57.0005 7.65469 56.9837 8.07831H54.2212C54.1808 7.67341 54.7757 7.90295 55.0174 7.64188C55.1595 7.4882 55.193 7.1562 55.2118 6.94932C55.3252 5.69818 55.3677 2.43437 55.1989 1.24037C55.1171 0.66307 54.7984 0.443381 54.2202 0.491654V0.198079C54.3278 0.160643 54.4373 0.296594 54.4679 0.296594C55.1693 0.296594 56.1846 0.386242 56.8357 0.296594Z" fill="#00A4E4"/>
<path d="M106.907 2.75853C107.562 2.13986 107.781 1.24436 107.106 0.542927L107.891 0.0996094C108.386 1.12614 108.048 2.42358 106.907 2.75853Z" fill="#00A4E4"/>
</g>
</g>
<defs>
<clipPath id="clip0_320_9889">
<rect width="119" height="42" fill="white"/>
</clipPath>
</defs>
</svg>
