<svg width="122" height="26" viewBox="0 0 122 26" fill="none" xmlns="http://www.w3.org/2000/svg">
<g clip-path="url(#clip0_320_9970)">
<mask id="mask0_320_9970" style="mask-type:luminance" maskUnits="userSpaceOnUse" x="0" y="0" width="122" height="26">
<path d="M122 0.800781H0V25.8008H122V0.800781Z" fill="white"/>
</mask>
<g mask="url(#mask0_320_9970)">
<path d="M93.2812 1.69366C92.6247 2.31849 93.5258 4.59838 93.7993 5.38235C95.2134 9.4312 97.3712 14.2641 99.1974 18.1856C99.5376 18.9143 100.35 21.5527 101.237 20.1237C101.967 18.9461 103.344 15.4852 103.8 14.0932C103.927 13.7113 104.188 13.2271 104.151 12.8368C103.216 10.4598 102.396 8.01737 101.359 5.6822C100.861 4.5632 100.122 2.54799 99.0435 1.91981C98.5938 1.65848 96.9079 1.5228 97.0053 1.07218C97.1626 0.841012 97.337 0.817559 97.6021 0.804158C98.4501 0.760604 99.9326 1.15259 100.846 1.16096C102.019 1.17269 103.173 0.859438 104.358 0.98675C104.349 1.62833 103.332 1.61493 103.08 2.16103C102.928 2.49271 102.961 2.88302 103.007 3.23313C103.096 3.92162 105.139 9.28378 105.474 9.36252C105.719 9.39435 105.844 9.17825 105.975 9.01743C106.375 8.52326 108.051 4.26502 108.123 3.58491C108.16 3.22475 108.189 2.46423 108.037 2.15768C107.67 1.65346 106.934 1.61325 106.459 1.36031C106.259 1.25477 106.17 1.36701 106.242 0.98675C108.092 1.16766 109.863 1.00685 111.713 0.98675L111.71 1.48427C110.751 1.55127 110.223 2.09235 109.764 2.84784C109.051 4.02548 106.451 9.96892 106.399 11.1181C106.345 12.3778 107.555 14.7633 108.09 16.0096C108.655 17.3279 109.552 19.5743 110.308 20.705C110.877 21.556 111.236 20.8022 111.57 20.1975C113.649 16.4183 116.188 9.86339 117.652 5.71906C117.972 4.81447 118.827 2.96175 118.119 2.16438C117.662 1.65178 116.315 1.72884 115.985 0.9901C117.336 0.996801 118.652 1.18106 120.011 1.16431C120.716 1.15594 121.27 0.829286 121.969 1.15761C122.229 1.5094 120.87 1.98681 120.601 2.24479C120.232 2.59992 119.847 3.46262 119.601 3.94507C116.204 10.5385 113.82 18.0382 110.544 24.722C110.45 24.9147 110.06 25.7774 109.916 25.7791L104.787 14.7298C104.382 15.0497 104.206 15.5154 103.988 15.9543C102.499 18.9779 101.473 22.4623 100.126 25.5697L99.7462 25.7824L90.4275 3.49948C89.7846 2.09067 88.5757 1.57305 87.0899 1.32178C87.0864 0.502631 88.2372 0.991775 88.7074 0.996801C90.0188 1.0102 91.3423 1.01187 92.6554 0.996801C93.0025 0.993451 94.4303 0.566286 94.2713 1.23802C94.2063 1.51275 93.4659 1.52447 93.2847 1.69701L93.2812 1.69366Z" fill="black"/>
<path d="M68.9619 25.1112C69.3826 25.54 67.5735 25.7913 67.3376 25.793C62.4628 25.8164 60.2194 19.2029 57.8154 15.8442C56.4509 13.9362 55.4233 13.6012 52.9662 13.8759C52.2071 13.9614 52.1028 14.8291 52.0378 15.4791C51.8771 17.0855 51.995 21.6369 52.4635 23.0993C53.0586 24.9588 54.0862 24.8683 55.7123 25.277C55.9482 25.3373 56.244 25.2737 56.3107 25.6104C54.5359 25.7963 52.7149 25.4027 50.9178 25.4379C50.369 25.4479 47.3784 25.9069 47.2485 25.7796L47.3647 25.2754C49.5038 24.8331 49.6987 23.3942 49.8201 21.5163C50.1074 17.1408 49.8286 12.0014 49.6354 7.61249C49.514 4.88031 50.4083 1.78295 46.5645 1.48813V0.987257L57.2306 0.839844C63.2373 1.27036 65.1951 7.84701 60.8367 11.7016C60.5084 11.9931 59.2363 12.7099 59.1286 12.8808C58.7986 13.4001 59.7595 14.6365 60.069 15.1457C61.2334 17.0604 65.3063 23.2702 66.9238 24.344C67.5188 24.7393 68.2814 24.9202 68.9637 25.1112H68.9619ZM53.1834 1.86001C52.4174 2.02753 52.113 2.90028 52.0344 3.58207C51.8292 5.37616 51.8548 9.47191 52.0275 11.2945C52.1301 12.375 52.337 12.7519 53.4877 12.8792C58.2104 13.4019 61.6711 11.3565 60.5409 6.30419C59.8433 3.19008 56.3671 1.16482 53.1834 1.85834V1.86001Z" fill="black"/>
<path d="M85.3749 5.50811C84.8311 5.28699 85.1047 4.58007 84.997 4.12275C84.6379 2.60339 83.3008 2.26166 81.8782 2.15277C80.8557 2.07404 76.4238 2.02378 75.7039 2.31359C75.1756 2.52633 75.0388 2.89989 74.9636 3.43091C74.8507 4.22829 74.7926 5.73258 74.7686 6.59026C74.7413 7.56352 74.7139 11.2556 75.2046 11.8737C75.8202 12.6493 76.8854 12.2188 77.6001 12.2104C79.9461 12.1836 83.4359 12.7565 83.9232 9.69767C84.2737 9.92214 84.1164 10.088 84.1062 10.3627C84.0497 11.7916 83.9574 13.2122 84.0019 14.6461C84.0155 15.0515 84.5661 16.4569 83.8394 16.3983C83.6889 15.6478 83.4393 14.4384 82.7656 14.0129C81.7739 13.3864 77.53 13.4249 76.2203 13.5422C75.521 13.6041 75.0405 13.7164 74.9379 14.4635C74.731 15.9728 74.8062 21.541 75.1978 22.9381C75.4338 23.779 75.8287 24.1291 76.7572 24.2581C78.8808 24.5513 84.8004 23.7305 86.5632 22.5026L88.4543 20.7554C88.1209 22.7002 86.6162 25.2264 84.4344 25.4425C81.3259 25.7507 77.6053 25.1443 74.3412 25.2699C72.9186 25.3252 71.4088 25.9115 69.9896 25.4425C69.8494 24.9081 70.6068 25.1527 71.0275 25.0387C72.4723 24.6468 72.6433 22.9348 72.7322 21.6834C73.0365 17.3498 72.7117 12.6125 72.5475 8.28216C72.4501 5.74263 73.3631 1.49444 69.4766 1.65693V1.15605L85.6091 1.01367L85.857 1.36545L85.3766 5.50978L85.3749 5.50811Z" fill="black"/>
<path d="M45.5368 8.18833C45.1863 8.25869 45.1401 8.02081 44.9914 7.80304C42.0778 3.55653 40.2875 1.13593 34.3407 1.65858C21.6074 2.77926 23.2557 25.9249 37.9262 24.6032C41.5135 24.2799 43.6902 21.8543 45.7078 19.2461C45.4154 20.1724 45.2495 22.5461 44.5998 23.1006C43.7893 23.7924 41.8059 24.5546 40.7492 24.8562C29.9839 27.925 21.3902 21.7169 23.5309 10.5001C25.2835 1.32355 35.1204 -1.22939 43.037 2.51458C43.3242 2.65027 44.752 3.43257 44.8631 3.57328C45.0974 3.87648 45.6907 8.00909 45.5368 8.18833Z" fill="black"/>
<path d="M20.9149 1.15385C21.2774 1.63629 19.1435 1.90097 18.8152 2.14889C18.4014 2.46214 18.2133 3.87597 18.174 4.41202C17.7585 9.9216 19.6393 18.5938 15.5322 22.9308C12.7247 25.8958 8.04823 26.0952 4.29339 25.0599C2.48949 24.5624 0.986524 23.8052 0.447919 21.9592C0.31284 21.4969 -0.2839 19.0244 0.164082 18.9004C0.938648 18.6876 1.30285 20.2723 1.69441 20.9055C5.11412 26.4537 13.7677 25.6446 15.1971 18.7496C15.7665 16.0057 15.7648 7.16933 15.4467 4.24953C15.2039 2.03163 13.6189 1.78873 11.6833 1.48385V0.986328L20.9149 1.15385Z" fill="black"/>
<path d="M20.8622 21.1037C21.488 20.9412 22.6199 22.8275 23.1277 23.206L21.0024 25.6099L18.877 23.3283L20.8622 21.1054V21.1037Z" fill="black"/>
</g>
</g>
<defs>
<clipPath id="clip0_320_9970">
<rect width="122" height="26" fill="white"/>
</clipPath>
</defs>
</svg>
