<svg width="143" height="19" viewBox="0 0 143 19" fill="none" xmlns="http://www.w3.org/2000/svg">
<g clip-path="url(#clip0_320_9981)">
<mask id="mask0_320_9981" style="mask-type:luminance" maskUnits="userSpaceOnUse" x="0" y="0" width="143" height="19">
<path d="M143 0.800781H0V18.8008H143V0.800781Z" fill="white"/>
</mask>
<g mask="url(#mask0_320_9981)">
<path d="M43.216 9.73679H40.1125V3.7879H43.216C44.7171 3.7879 45.9117 5.11603 45.9117 6.74967C45.9117 8.38331 44.716 9.73679 43.216 9.73679ZM45.4534 11.9065L45.5039 11.8811C45.7842 11.7532 46.0633 11.5745 46.293 11.3958C47.6919 10.3489 48.5315 8.63809 48.5315 6.77503C48.5315 3.71181 46.2677 1.2089 43.4951 1.2089H37.4915V18.3154H40.0861V12.3158H42.6038L42.6291 12.3411L46.5721 18.3154H49.6755L45.4534 11.9065ZM57.078 15.8897H55.501V3.71181H57.078C59.8759 3.71181 61.987 6.44415 61.987 9.81404C61.987 13.1839 59.8759 15.8909 57.078 15.8909V15.8897ZM57.1538 1.23426H52.9317V18.3407H57.1538C61.2749 18.3407 64.5299 14.5109 64.5299 9.78752C64.5299 5.06415 61.2496 1.23426 57.1538 1.23426ZM98.3093 9.73679H95.2058V3.7879H98.3093C99.8104 3.7879 101.006 5.11603 101.006 6.74967C101.006 8.38331 99.8104 9.73679 98.3093 9.73679ZM100.548 11.9065L100.598 11.8811C100.879 11.7532 101.158 11.5745 101.387 11.3958C102.786 10.3489 103.626 8.63809 103.626 6.77503C103.626 3.71181 101.362 1.2089 98.5895 1.2089H92.5871V18.3154H95.1817V12.3158H97.6994L97.7246 12.3411L101.668 18.3154H104.796L100.549 11.9065H100.548ZM89.1782 1.23426H78.2921V3.63457H82.3878V18.3407H85.0835V3.63457H89.1782V1.23426ZM12.7939 18.8007V1.23426H10.1993V12.1359L0 0.876871V18.3407H2.59461V7.61779L2.69683 7.7204L12.795 18.8007H12.7939ZM115.428 16.1964C111.917 16.1964 109.069 13.3372 109.069 9.81404C109.069 6.29082 111.917 3.43166 115.428 3.43166C118.938 3.43166 121.787 6.29082 121.787 9.81404C121.787 13.3372 118.939 16.1964 115.428 16.1964ZM115.428 0.800781C110.493 0.800781 106.474 4.83472 106.474 9.78752C106.474 14.7403 110.493 18.7742 115.428 18.7742C120.362 18.7742 124.381 14.7403 124.381 9.78752C124.381 4.83472 120.363 0.800781 115.428 0.800781ZM25.1559 16.1964C21.6459 16.1964 18.7974 13.3372 18.7974 9.81404C18.7974 6.29082 21.6459 3.43166 25.1559 3.43166C28.6659 3.43166 31.5155 6.29082 31.5155 9.81404C31.5408 13.3119 28.6671 16.1964 25.1559 16.1964ZM25.1559 0.800781C20.2217 0.800781 16.2028 4.83472 16.2028 9.78752C16.2028 14.7403 20.2217 18.7742 25.1559 18.7742C30.0902 18.7742 34.109 14.7403 34.109 9.78752C34.1343 4.83472 30.1154 0.800781 25.1559 0.800781ZM76.0788 13.8214C76.0282 12.928 75.6205 11.141 73.3061 9.27679L71.2709 7.48982C70.406 6.80039 69.9994 6.06024 69.9741 5.19212C69.9741 4.19603 70.6357 3.5066 71.6281 3.45587C71.6533 3.45587 72.8995 3.30254 73.6622 4.37472L73.6874 4.42545L75.748 3.02124L75.7227 2.97051C75.3667 2.40905 73.7644 0.876871 71.6016 0.979478C70.3807 1.0302 69.2873 1.51557 68.5235 2.28108C67.7344 3.09848 67.3531 4.17066 67.4301 5.42154C67.507 6.87649 68.3455 8.22997 70.1005 9.65955L72.0082 11.345C73.0764 12.2132 73.5347 12.9533 73.5852 13.8214C73.6358 14.4601 73.4072 15.0723 73.0006 15.5323C72.6445 15.9404 72.238 16.1191 71.6786 16.171H71.5511C69.9489 16.171 69.2873 15.0216 68.906 14.3322L68.8037 14.1535L66.5905 15.2257C66.7937 15.7871 67.9894 18.6209 71.4994 18.6209H71.55C72.8214 18.5448 73.9918 18.0341 74.8314 17.166C75.6963 16.2978 76.1546 15.0977 76.0776 13.8214H76.0788ZM135.37 11.2943L143 0.903388V18.3673H140.405V8.97128L135.344 15.7375L130.332 8.97128V18.3673H127.738V0.876871L135.37 11.2943Z" fill="#231F20"/>
</g>
</g>
<defs>
<clipPath id="clip0_320_9981">
<rect width="143" height="19" fill="white"/>
</clipPath>
</defs>
</svg>
