<svg width="98" height="42" viewBox="0 0 98 42" fill="none" xmlns="http://www.w3.org/2000/svg">
<g clip-path="url(#clip0_320_9987)">
<mask id="mask0_320_9987" style="mask-type:luminance" maskUnits="userSpaceOnUse" x="0" y="0" width="98" height="42">
<path d="M98 0.800781H0V41.8008H98V0.800781Z" fill="white"/>
</mask>
<g mask="url(#mask0_320_9987)">
<path d="M92.9734 40.5875L78.454 0.827018L78.444 0.800781H78.1575L75.1676 8.97146L69.7244 23.8462L69.7116 23.8345C67.8251 22.1788 65.1635 21.1438 61.8116 20.7584L60.7892 20.6534L61.8034 20.524C67.3312 19.5361 71.047 16.0637 71.047 11.8802C71.047 6.14326 65.622 2.13889 57.8511 2.13889H41.6825V2.42931H46.3807V32.073L34.9704 0.827018L34.9604 0.800781H34.6739L31.684 8.97146L20.1518 40.4853L20.0808 40.4934C19.8837 40.5176 19.6888 40.5368 19.4959 40.5513C19.2058 40.5739 18.9174 40.5875 18.6282 40.5875H6.97589L29.1252 2.4293L29.2898 2.1425H2.20038V13.9466H2.48782C2.53876 8.19701 5.90527 2.42931 13.3433 2.42931H22.3167L0 40.8734H30.0648V29.5642H29.7774C29.7383 34.5755 26.8821 39.3353 20.6712 40.4102L20.4738 40.4436L25.2038 27.5122H38.4543L43.2289 40.5875H38.5189V40.8734H57.0051V40.5875H52.2751V20.8642H57.7328C63.287 20.8642 66.4725 23.3323 66.4725 27.6335V31.1321C66.4725 31.5175 66.4989 32.0811 66.528 32.5525V32.5697L63.5944 40.5857H59.7622V40.8716H67.695V40.5857H63.9037L66.5753 33.2863C66.5807 33.3568 66.5835 33.3994 66.5835 33.3994L66.6571 34.0571L66.7281 34.4923C67.1738 37.1839 68.209 39.1625 69.8035 40.3731L70.0327 40.5386C71.2444 41.3764 72.7498 41.8007 74.5099 41.8007C76.8413 41.8007 78.3958 41.2226 79.6793 39.8619L79.511 39.7045C78.3285 40.7902 77.3361 41.2299 76.0927 41.2299C73.9741 41.2299 72.8653 38.674 72.8653 36.1534V31.2515C72.8766 30.0352 72.6851 28.8255 72.2986 27.6715L72.2458 27.5195V27.514H81.9379L86.7125 40.5893H82.0025V40.8752H98V40.5893L92.9734 40.5875ZM25.3093 27.2263L31.8368 9.38945L38.3497 27.2263H25.3093ZM52.2778 20.5774V2.42931H56.4439C62.009 2.42931 64.947 5.71984 64.947 11.9417C64.947 18.5589 63.2606 20.5774 57.7328 20.5774H52.2778ZM72.1331 27.2263L72.1049 27.1558C71.6742 26.1124 71.0472 25.1604 70.2574 24.3511L69.9845 24.0797L69.9554 24.0525L75.3167 9.38945L81.8296 27.2263H72.1331Z" fill="black"/>
</g>
</g>
<defs>
<clipPath id="clip0_320_9987">
<rect width="98" height="42" fill="white"/>
</clipPath>
</defs>
</svg>
