<svg width="126" height="59" viewBox="0 0 126 59" fill="none" xmlns="http://www.w3.org/2000/svg">
<path d="M48.2964 53.8869V5.6758C48.2964 4.08222 48.9176 3.76958 49.9919 3.76958H76.1998C76.9414 3.76958 77.7341 3.93152 77.7341 5.86136V53.7002C77.7341 54.4941 77.5638 55.0643 77.2299 55.3961C76.9641 55.6592 76.5632 55.7919 76.0386 55.7919H49.8306C48.9607 55.7919 48.2964 55.6514 48.2964 53.8869ZM49.9919 2.44141C48.0056 2.44141 46.9551 3.55928 46.9551 5.6758V53.8869C46.9551 56.0619 47.8955 57.1201 49.8306 57.1201H76.0386C76.9312 57.1201 77.6524 56.857 78.177 56.3351C78.7721 55.7458 79.0754 54.8585 79.0754 53.7002V5.86136C79.0754 3.03521 77.5104 2.44141 76.1998 2.44141H49.9919Z" fill="black"/>
<path d="M83.0679 52.6194C82.4853 52.6194 81.9867 52.8241 81.5756 53.2357C81.1656 53.6439 80.9601 54.1387 80.9601 54.7157C80.9601 55.2993 81.1634 55.7964 81.5711 56.2069C81.9833 56.6185 82.4807 56.8243 83.0679 56.8243C83.6539 56.8243 84.1525 56.6185 84.5636 56.2069C84.9735 55.7964 85.1791 55.2993 85.1791 54.7157C85.1791 54.1387 84.9735 53.6439 84.5636 53.2357C84.1513 52.8241 83.6516 52.6194 83.0679 52.6194ZM85.5266 54.7157C85.5266 55.3893 85.287 55.9651 84.8066 56.442C84.3273 56.9199 83.7481 57.1583 83.0679 57.1583C82.3876 57.1583 81.8084 56.9199 81.3303 56.442C80.8567 55.9685 80.6182 55.3916 80.6182 54.7157C80.6182 54.0476 80.859 53.4752 81.3383 52.9995C81.8152 52.5272 82.391 52.291 83.0679 52.291C83.7481 52.291 84.3273 52.5272 84.8066 52.9995C85.287 53.473 85.5266 54.0454 85.5266 54.7157ZM83.71 54.1865C83.71 53.992 83.6498 53.8615 83.5317 53.7952C83.4113 53.7288 83.2205 53.6962 82.9571 53.6962H82.5516V54.6634H82.9809C83.1819 54.6634 83.3318 54.6431 83.4329 54.6038C83.618 54.5307 83.71 54.3923 83.71 54.1865ZM82.078 53.3734H83.0206C83.3557 53.3734 83.5998 53.4072 83.7566 53.4702C84.0359 53.5849 84.1745 53.8098 84.1745 54.1461C84.1745 54.3856 84.087 54.561 83.911 54.6735C83.8168 54.7331 83.6862 54.7758 83.5192 54.8017C83.7316 54.8366 83.886 54.9232 83.9848 55.0637C84.0814 55.2066 84.1313 55.3438 84.1313 55.4787V55.6733C84.1313 55.7363 84.1336 55.8026 84.1381 55.8723C84.1427 55.9432 84.1506 55.9904 84.1609 56.0118L84.1779 56.0455H83.7338C83.7316 56.0365 83.7293 56.0275 83.7259 56.0185C83.7248 56.0095 83.7225 55.9994 83.7202 55.9893L83.71 55.9027V55.6913C83.71 55.382 83.6248 55.1762 83.4556 55.0784C83.3557 55.021 83.1796 54.9918 82.9264 54.9918H82.5516V56.0455H82.078V53.3734Z" fill="black"/>
<path d="M55.7075 12.9185C55.7075 11.8096 55.7643 11.5116 56.9715 11.5116H69.0539C70.2611 11.5116 70.3179 11.8377 70.3179 12.9477V46.5996C70.3179 47.7838 70.035 48.1088 69.0663 48.1088H57.3769C55.8687 48.1088 55.7108 48.0402 55.7108 46.6434V21.7388V12.9477M78.4174 5.87054C78.4174 3.84623 77.5737 3.11523 76.2143 3.11523H50.0052C48.6446 3.11523 47.6396 3.65955 47.6396 5.68498V53.9894C47.6396 56.0148 48.4834 56.5591 49.8428 56.5591H76.0519C77.4113 56.5591 78.4174 55.8281 78.4174 53.8027V5.87054Z" fill="#E6830F"/>
<path d="M47.9743 53.9891V5.68471C47.9743 3.71776 48.9498 3.44672 50.0049 3.44672H76.2139C77.0827 3.44672 78.0821 3.72225 78.0821 5.87027V53.8024C78.0821 54.6875 77.8788 55.3375 77.4791 55.7334C77.1497 56.0595 76.6682 56.226 76.0515 56.226H49.8425C48.6886 56.226 47.9743 55.8526 47.9743 53.9891ZM50.0049 2.7832C48.1878 2.7832 47.3042 3.73125 47.3042 5.68471V53.9891C47.3042 55.9954 48.0856 56.8906 49.8425 56.8906H76.0515C76.8522 56.8906 77.4938 56.6589 77.9538 56.2023C78.483 55.6772 78.7522 54.8697 78.7522 53.8024V5.87027C78.7522 3.82122 77.8981 2.7832 76.2139 2.7832H50.0049Z" fill="black"/>
<path d="M56.0456 46.6432V12.9475L56.0433 12.9183C56.0433 11.8837 56.0433 11.8432 56.9712 11.8432H69.0536C69.9826 11.8432 69.9826 11.9062 69.9826 12.9475V46.5994C69.9826 47.7206 69.7463 47.778 69.0661 47.778H57.3766C56.0456 47.778 56.0456 47.778 56.0456 46.6432ZM56.9712 11.1797C55.5175 11.1797 55.3721 11.6824 55.3721 12.9183L55.3755 12.9475V46.6432C55.3755 48.2762 55.7537 48.4404 57.3766 48.4404H69.0661C70.3925 48.4404 70.6526 47.7667 70.6526 46.5994V12.9475C70.6526 11.8184 70.5788 11.1797 69.0536 11.1797H56.9712Z" fill="black"/>
<path d="M60.8071 36.0455H65.2192V42.7651H70.3899V39.371V33.0957C70.4058 32.6492 70.1208 30.9027 68.6387 30.9027H66.8012H66.0528L70.4717 23.7051H64.9716L60.8128 29.9467V28.9762V23.7164H55.9101V42.7651H60.8071V36.0455ZM97.6559 30.6646V28.7291H104.705H106.454L106.465 23.7133H93.7787C92.768 23.7133 91.9424 24.5084 91.9424 25.488V27.9239V29.4163V33.8832C91.9424 34.9471 92.2978 35.7062 93.3086 35.7062H100.722V37.744H91.9424V42.7553H99.1141H104.655C105.663 42.7553 106.454 41.7398 106.454 40.7602V38.7865V38.2265V32.4617C106.454 31.4822 105.663 30.6646 104.654 30.6646H97.6559ZM119.313 30.7984V23.7291H124.326V42.7621H119.313V36.3855H114.868V42.7621H109.855V23.7291H114.868V30.7984H119.313ZM11.142 37.0073C11.0625 37.7979 10.4095 37.7507 10.0801 37.7439H7.40102C6.97855 37.6168 6.90019 37.5325 6.67987 37.0703V29.7603C6.6299 29.4623 6.62422 28.7605 7.40102 28.6795H10.3981C11.176 28.7605 11.1942 29.5072 11.142 29.8053V37.0073ZM14.3661 42.7237C15.2009 42.4369 16.1526 41.5125 16.1526 40.6207V25.5711C16.1526 24.5736 15.3462 23.6705 14.3661 23.7335H3.33191C2.45744 23.7593 1.78967 24.6298 1.67383 25.5711V40.6207C1.75787 41.6666 2.45631 42.4369 3.33191 42.7237H14.3661ZM25.2952 30.6646V28.7291H32.3443H34.0921L34.1046 23.7133H21.418C20.4084 23.7133 19.5816 24.5084 19.5816 25.488V27.9239V29.4163V33.8832C19.5816 34.9471 19.9371 35.7062 20.9467 35.7062H28.3615V37.744H19.5816V42.7553H26.7545H32.2932C33.3028 42.7553 34.0921 41.7398 34.0921 40.7602V38.7865V38.2265V32.4617C34.0921 31.4822 33.3028 30.6646 32.2932 30.6646H25.2952ZM46.9709 30.7782V23.7088H51.9837V42.7418H46.9709V36.3664H42.5258V42.7418H37.513V23.7088H42.5258V30.7782H46.9709ZM83.52 37.0022C83.4394 37.794 82.7875 37.7467 82.4593 37.74H79.7802C79.3566 37.6118 79.2782 37.5286 79.0591 37.0652V29.7563C79.008 29.4561 79.0023 28.7566 79.7802 28.6745H82.7761C83.5541 28.7566 83.5722 29.5022 83.52 29.8002V37.0022ZM86.7442 42.7187C87.5789 42.4319 88.5306 41.5086 88.5306 40.6167V25.566C88.5306 24.5696 87.7231 23.6654 86.7442 23.7295H75.71C74.8355 23.7554 74.1677 24.6259 74.0519 25.566V40.6167C74.1359 41.6626 74.8355 42.4319 75.71 42.7187H86.7442Z" fill="black"/>
</svg>
