<svg width="128" height="70" viewBox="0 0 128 70" fill="none" xmlns="http://www.w3.org/2000/svg">
<path d="M87.3776 25.635C86.3066 26.272 85.3546 27 84.4866 27.847C83.6676 28.652 82.9606 29.548 82.4006 30.556C81.9106 31.431 81.5396 32.348 81.3016 33.321C80.9166 34.875 80.8466 36.45 80.9866 38.039C81.0776 39.026 81.2736 39.985 81.5816 40.923C81.8756 41.798 82.2816 42.631 82.7716 43.415C83.5136 44.619 84.4726 45.634 85.5366 46.551C86.2436 47.16 87.0206 47.685 87.8466 48.126C88.2036 48.315 88.5746 48.483 88.9456 48.658C88.9456 48.714 88.9456 48.763 88.9316 48.812C88.5466 49.806 88.1826 50.807 87.7556 51.78C87.3916 52.613 86.9856 53.432 86.5446 54.23C86.0896 55.042 85.6066 55.84 85.0746 56.603C84.3466 57.653 83.5906 58.675 82.8066 59.683C82.0296 60.684 81.1616 61.608 80.1676 62.399C79.0966 63.253 77.8926 63.841 76.5346 64.072C76.2266 64.121 75.9046 64.135 75.5896 64.135C74.9386 64.135 74.2946 64.079 73.6576 63.925C72.7476 63.701 71.8656 63.421 70.9906 63.078C70.2486 62.791 69.4926 62.511 68.7226 62.294C67.3296 61.909 65.9086 61.783 64.4666 61.937C63.3256 62.056 62.2336 62.336 61.1626 62.721C60.5536 62.945 59.9446 63.169 59.3426 63.4C58.6006 63.68 57.8446 63.904 57.0676 64.058C56.1506 64.24 55.2266 64.289 54.3166 64.079C53.9456 63.995 53.5746 63.855 53.2246 63.708C51.9016 63.141 50.8376 62.224 49.8366 61.223C48.9406 60.32 48.1426 59.34 47.4006 58.311C46.8126 57.499 46.2036 56.694 45.6506 55.861C45.2306 55.231 44.8526 54.573 44.4886 53.908C44.0756 53.152 43.6836 52.382 43.3126 51.605C43.0746 51.115 42.8786 50.604 42.6686 50.1C42.5566 49.827 42.4376 49.561 42.3396 49.281C42.0106 48.364 41.6606 47.454 41.3806 46.523C41.0656 45.466 40.7996 44.388 40.5756 43.31C40.2956 41.966 40.1066 40.608 40.0296 39.236C39.9736 38.291 40.0156 37.346 40.0086 36.401C40.0086 35.463 40.1416 34.539 40.2816 33.615C40.4426 32.551 40.7086 31.508 41.0516 30.486C41.4156 29.408 41.8846 28.372 42.4586 27.392C43.2706 25.999 44.2506 24.739 45.4616 23.668C46.1966 23.017 46.9876 22.436 47.8416 21.932C48.4226 21.596 49.0106 21.288 49.6336 21.022C50.5436 20.637 51.4816 20.343 52.4546 20.175C53.2736 20.035 54.0996 19.895 54.9396 19.923C55.4226 19.937 55.9126 19.979 56.3956 20.056C57.2006 20.175 57.9916 20.357 58.7616 20.623C59.5106 20.882 60.2526 21.141 61.0016 21.4C61.7996 21.673 62.5906 21.953 63.3956 22.205C63.7946 22.331 64.2076 22.394 64.6066 22.492C64.8516 22.548 65.0966 22.527 65.3276 22.457C66.0066 22.261 66.6926 22.065 67.3646 21.834C68.4286 21.477 69.4856 21.078 70.5496 20.721C71.6696 20.343 72.8106 20.049 73.9726 19.895C74.8476 19.776 75.7296 19.762 76.6186 19.832C77.4096 19.895 78.1866 20.035 78.9636 20.175C79.4536 20.266 79.9296 20.406 80.4056 20.56C80.9936 20.756 81.5816 20.959 82.1416 21.211C82.6946 21.463 83.2196 21.771 83.7446 22.079C84.4586 22.506 85.1096 23.031 85.7116 23.598C86.3136 24.172 86.8456 24.809 87.3496 25.474C87.3776 25.509 87.3846 25.565 87.4056 25.635H87.3776ZM65.1456 19.783C65.7826 19.727 66.4266 19.699 67.0496 19.573C68.0436 19.377 68.9676 18.978 69.8426 18.474C70.7036 17.977 71.4946 17.368 72.2156 16.682C72.7896 16.136 73.3356 15.569 73.8256 14.946C74.3786 14.246 74.8756 13.504 75.2956 12.72C75.6666 12.027 75.9746 11.313 76.2056 10.564C76.4996 9.619 76.6536 8.646 76.7166 7.659C76.7516 7.113 76.7446 6.567 76.6536 6.035C76.6186 6.021 76.6046 6 76.5836 6C76.5136 6 76.4436 6 76.3736 6C75.6246 6.07 74.8826 6.203 74.1686 6.427C73.2026 6.735 72.2646 7.127 71.3756 7.617C70.4236 8.142 69.5346 8.758 68.7296 9.493C67.9806 10.179 67.3226 10.956 66.7556 11.789C66.3846 12.328 66.0626 12.909 65.7616 13.49C65.5306 13.931 65.3206 14.386 65.1666 14.855C64.8936 15.66 64.6556 16.479 64.5646 17.333C64.4806 18.124 64.4316 18.908 64.5576 19.734C64.7746 19.748 64.9706 19.783 65.1596 19.769L65.1456 19.783Z" fill="#969696"/>
</svg>
