<svg width="135" height="33" viewBox="0 0 135 33" fill="none" xmlns="http://www.w3.org/2000/svg">
<path d="M77.9687 17.0453C77.9687 13.8813 76.6177 11.0883 72.0327 11.0883C69.6807 11.0883 67.8187 11.7603 66.8037 12.3413L67.5457 14.8753C68.4767 14.2943 69.9607 13.8113 71.3677 13.8113C73.6847 13.8113 74.0627 15.1203 74.0627 15.9603V16.1633C69.0017 16.1563 65.8027 17.9063 65.8027 21.4623C65.8027 23.6393 67.4267 25.6763 70.2687 25.6763C71.9977 25.6763 73.4677 24.9763 74.3357 23.8773H74.4197C74.4197 23.8773 74.9937 26.2853 78.1857 25.3683C78.0247 24.3603 77.9617 23.2963 77.9617 22.0013V17.0383L77.9687 17.0453ZM74.1957 20.3843C74.1957 20.6363 74.1747 20.9023 74.0977 21.1333C73.8037 22.1063 72.8027 22.9253 71.5497 22.9253C70.4927 22.9253 69.6667 22.3303 69.6667 21.0773C69.6667 19.1593 71.7807 18.6343 74.1957 18.6483" fill="#0075D5"/>
<path d="M0.5 6.7832C0.5 6.7832 3.804 20.3072 4.329 22.4982C4.945 25.0602 6.058 26.0052 9.257 25.3752L11.322 16.9892C11.847 14.9102 12.197 13.4192 12.54 11.3052H12.596C12.827 13.4402 13.17 14.9102 13.597 16.9962C13.597 16.9962 14.437 20.8042 14.878 22.7992C15.305 24.7942 16.502 26.0542 19.638 25.3752L24.559 6.7832H20.59L18.903 14.8262C18.455 17.1572 18.049 18.9912 17.734 21.1262H17.678C17.391 19.0122 17.034 17.2552 16.565 14.9732L14.815 6.7832H10.671L8.802 14.7632C8.27 17.1992 7.773 19.1522 7.458 21.2172H7.402C7.08 19.2782 6.639 16.8072 6.177 14.4622C6.177 14.4622 5.071 8.7502 4.679 6.7832" fill="#0075D5"/>
<path d="M35.619 17.0453C35.619 13.8813 34.261 11.0883 29.683 11.0883C27.338 11.0883 25.469 11.7603 24.461 12.3413L25.203 14.8753C26.134 14.2943 27.618 13.8113 29.025 13.8113C31.342 13.8113 31.72 15.1203 31.72 15.9603V16.1633C26.659 16.1563 23.46 17.9063 23.46 21.4623C23.46 23.6393 25.091 25.6763 27.919 25.6763C29.669 25.6763 31.118 24.9763 31.993 23.8773H32.084C32.084 23.8773 32.665 26.2853 35.85 25.3683C35.689 24.3603 35.633 23.2963 35.633 22.0013V17.0383L35.619 17.0453ZM31.839 20.3843C31.839 20.6363 31.818 20.9023 31.748 21.1333C31.454 22.1063 30.446 22.9253 29.193 22.9253C28.143 22.9253 27.31 22.3303 27.31 21.0773C27.31 19.1593 29.424 18.6343 31.839 18.6483" fill="#0075D5"/>
<path d="M37.6768 6.7832V25.3682H41.4568V6.7832H37.6768Z" fill="#0075D5"/>
<path d="M89.5684 6.7832V20.4962C89.5684 22.3862 89.9254 23.7092 90.6884 24.5142C91.3604 25.2212 92.4594 25.6832 93.7684 25.6832C94.8884 25.6832 95.9874 25.4662 96.5054 25.2772L96.4564 22.3232C96.0714 22.4142 95.6234 22.4912 95.0144 22.4912C93.7264 22.4912 93.2994 21.6722 93.2994 19.9782V14.7282H96.5894V11.1792H93.2994V6.7832" fill="#0075D5"/>
<path d="M79.8027 11.4102V25.3752H83.7087V18.2212C83.7087 17.8362 83.7297 17.5072 83.7927 17.1992C84.0867 15.6942 85.2277 14.7352 86.8797 14.7352C87.3417 14.7352 87.6497 14.7842 87.9997 14.8402V11.1792C87.7057 11.1302 87.5097 11.1022 87.1527 11.1022C85.6897 11.1022 84.0307 12.0332 83.3377 14.0492H83.2397V11.4102" fill="#0075D5"/>
<path d="M43.6475 11.4103V25.3753H47.4555V17.1783C47.4555 16.7933 47.4975 16.4013 47.6305 16.0443C47.9385 15.2113 48.7085 14.2523 49.9405 14.2523C51.4735 14.2523 52.1945 15.5473 52.1945 17.4093V25.3683H55.9885V17.0733C55.9885 16.7093 56.0375 16.2683 56.1425 15.9463C56.4505 15.0083 57.2765 14.2453 58.4245 14.2453C59.9715 14.2453 60.7205 15.5123 60.7205 17.7103V25.3613H64.5145V17.1293C64.5145 12.8033 62.3165 11.0883 59.8175 11.0883C58.7185 11.0883 57.8435 11.3613 57.0595 11.8443C56.3945 12.2503 55.8135 12.8243 55.2885 13.5803H55.2325C54.6305 12.0753 53.2235 11.0953 51.3755 11.0953C49.0095 11.0953 47.9385 12.2853 47.3085 13.3003H47.2525V11.4103" fill="#0075D5"/>
<path d="M117.036 10.78C117.785 10.78 118.408 10.388 118.492 9.891L119.234 1.512C119.234 0.679 118.254 0 117.036 0C115.818 0 114.838 0.679 114.838 1.512L115.587 9.891C115.664 10.395 116.294 10.78 117.036 10.78Z" fill="#FFC220"/>
<path d="M112.493 13.405C112.864 12.747 112.843 12.026 112.444 11.697L105.535 6.86701C104.814 6.44701 103.743 6.94401 103.127 8.00801C102.511 9.06501 102.637 10.248 103.344 10.661L110.995 14.21C111.485 14.392 112.122 14.056 112.5 13.405" fill="#FFC220"/>
<path d="M121.572 13.398C121.964 14.049 122.601 14.385 123.077 14.21L130.728 10.654C131.442 10.234 131.547 9.058 130.945 8.008C130.329 6.951 129.251 6.454 128.53 6.867L121.621 11.69C121.236 12.019 121.208 12.747 121.579 13.405" fill="#FFC220"/>
<path d="M117.036 21.252C117.785 21.252 118.408 21.644 118.492 22.141L119.234 30.52C119.234 31.353 118.254 32.025 117.036 32.025C115.818 32.025 114.838 31.353 114.838 30.52L115.587 22.141C115.664 21.637 116.294 21.252 117.036 21.252Z" fill="#FFC220"/>
<path d="M121.572 18.634C121.964 17.983 122.601 17.64 123.077 17.822L130.728 21.371C131.442 21.784 131.547 22.967 130.945 24.024C130.329 25.074 129.251 25.571 128.53 25.165L121.621 20.335C121.236 20.006 121.208 19.285 121.579 18.634" fill="#FFC220"/>
<path d="M112.493 18.627C112.864 19.278 112.843 20.006 112.444 20.335L105.535 25.158C104.814 25.578 103.743 25.074 103.127 24.024C102.511 22.967 102.637 21.784 103.344 21.371L110.995 17.822C111.485 17.633 112.122 17.976 112.5 18.627" fill="#FFC220"/>
<path d="M132.968 24.4309H133.066C133.192 24.4309 133.248 24.4729 133.262 24.5779C133.29 24.6899 133.304 24.7669 133.332 24.8019H133.577C133.577 24.8019 133.528 24.7179 133.514 24.5709C133.486 24.4449 133.423 24.3749 133.332 24.3539V24.3329C133.458 24.3049 133.528 24.2209 133.528 24.1159C133.528 24.0249 133.486 23.9549 133.444 23.9129C133.36 23.8709 133.283 23.8429 133.108 23.8429C132.954 23.8429 132.842 23.8569 132.751 23.8779V24.8019H132.968V24.4309ZM132.968 24.0109L133.08 23.9969C133.213 23.9969 133.283 24.0599 133.283 24.1439C133.283 24.2419 133.185 24.2839 133.066 24.2839H132.968V24.0109ZM133.108 23.3809C132.569 23.3809 132.142 23.8009 132.142 24.3119C132.142 24.8229 132.569 25.2569 133.108 25.2569C133.647 25.2569 134.067 24.8369 134.067 24.3119C134.067 23.7869 133.654 23.3809 133.108 23.3809ZM133.108 23.5699C133.521 23.5699 133.829 23.9059 133.829 24.3119C133.829 24.7179 133.521 25.0679 133.108 25.0609C132.695 25.0609 132.38 24.7249 132.38 24.3119C132.38 23.8989 132.695 23.5699 133.101 23.5699" fill="#FFC220"/>
</svg>
