<svg width="98" height="50" viewBox="0 0 98 50" fill="none" xmlns="http://www.w3.org/2000/svg">
<g clip-path="url(#clip0_133_2835)">
<path fill-rule="evenodd" clip-rule="evenodd" d="M64.4756 36.6431C64.2242 36.9923 64.0985 37.4672 64.0985 38.0679C64.0985 39.3809 64.5734 40.0374 65.5093 40.0374C65.9423 40.0374 66.2915 39.8418 66.543 39.5206C66.7944 39.1993 66.9201 38.6964 66.9201 38.0679C66.9201 36.7827 66.4452 36.1542 65.5093 36.1542C65.0763 36.1542 64.7271 36.3218 64.4756 36.6431ZM61.8775 35.6373L61.2908 36.6431C60.9695 36.3078 60.5365 36.1821 59.9778 36.1821C59.419 36.1821 59.0419 36.3497 58.7485 36.6989C58.4412 37.0481 58.3015 37.5231 58.3015 38.1517C58.3015 39.3809 58.8743 40.0095 60.0616 40.0095C60.5924 40.0095 61.0394 39.8139 61.4165 39.4926L61.9194 40.5822C61.5143 40.8336 61.1651 41.0012 60.8578 41.0431C60.5784 41.127 60.2013 41.1549 59.7962 41.1549C58.8882 41.1549 58.1619 40.8895 57.6311 40.3587C57.1003 39.8139 56.8488 39.0736 56.8488 38.1377C56.8488 37.2018 57.1282 36.4475 57.7009 35.9027C58.2736 35.33 59.0838 35.0507 60.0755 35.0507C60.7879 35.0646 61.3746 35.2462 61.8775 35.6373ZM67.5906 35.8748C68.0935 36.3637 68.3449 37.132 68.3449 38.0679C68.3449 39.0037 68.0935 39.758 67.5627 40.3028C67.0598 40.8755 66.3753 41.1549 65.4953 41.1549C64.6153 41.1549 63.8889 40.8895 63.4 40.3028C62.8972 39.758 62.6458 38.9898 62.6458 38.0679C62.6458 37.1459 62.8972 36.4615 63.428 35.9027C63.9588 35.33 64.6432 35.0507 65.4953 35.0507C66.4172 35.0646 67.0877 35.33 67.5906 35.8748ZM74.6726 35.2183C74.9799 35.1065 75.2733 35.0507 75.6085 35.0507C76.265 35.0507 76.7679 35.2462 77.1451 35.5954C77.4943 35.9726 77.7038 36.4754 77.7038 37.132V41.0431H76.3209V37.3275C76.3209 36.5593 75.9717 36.1821 75.2593 36.1821C75.0638 36.1821 74.8542 36.238 74.6587 36.3777C74.4771 36.4894 74.3514 36.6291 74.2536 36.7827V41.0431H72.8986V37.132C72.8986 36.8247 72.8009 36.5872 72.6193 36.4196C72.4377 36.2519 72.1862 36.1681 71.865 36.1681C71.6834 36.1681 71.4878 36.224 71.2783 36.3637C71.0827 36.5034 70.9291 36.6431 70.8313 36.7688V41.0292H69.4763V35.1484H70.4122L70.7195 35.6653C71.0967 35.2322 71.5716 35.0367 72.2002 35.0367C72.9824 35.0367 73.5552 35.2602 73.9602 35.6653C74.1279 35.4976 74.3514 35.33 74.6726 35.2183ZM51.5408 38.8082C51.5408 37.8723 52.2253 37.1459 53.0494 37.1459C53.8735 37.1459 54.5301 37.8863 54.5301 38.8082C54.5301 39.7301 53.8456 40.4425 53.0494 40.4425C52.2532 40.4425 51.5408 39.7022 51.5408 38.8082ZM49.7808 35.358V40.9035C49.7808 41.6159 50.3395 42.1886 50.996 42.1886H79.5476C80.2042 42.1886 80.7629 41.6159 80.7629 40.9035V35.358C80.7629 34.6456 80.2042 34.0449 79.5476 34.0449H50.996C50.3395 34.0449 49.7808 34.6456 49.7808 35.358Z" fill="#0076BD"/>
<path fill-rule="evenodd" clip-rule="evenodd" d="M93.0551 28.0663C92.9015 28.5413 92.7478 29.0162 92.5662 29.4911C92.5522 29.547 92.3567 30.0498 92.3288 30.0359C92.3148 30.0359 92.3008 30.0359 92.2868 30.0219C92.0494 29.966 91.7979 29.9241 91.5605 29.8683C90.5827 29.6587 89.6189 29.4492 88.6411 29.2536C87.775 29.0721 86.9229 28.8905 86.0569 28.7089C86.029 28.2339 86.029 27.773 86.015 27.2981C85.987 26.8231 86.0569 26.3482 86.0569 25.8733C87.5795 26.2225 89.102 26.5717 90.6246 26.9209C91.4906 27.1165 92.3707 27.312 93.2367 27.5216C93.1669 27.6892 93.111 27.8708 93.0551 28.0663ZM86.3921 22.3392C86.6017 21.3195 86.7553 20.2998 87.0067 19.2941C87.1325 18.7912 87.2861 18.2884 87.4398 17.7995C87.4817 17.6877 87.8309 16.5423 87.8588 16.5563C88.5712 16.7099 89.2696 16.8776 89.982 17.0312C90.8621 17.2268 91.7421 17.4223 92.6081 17.6319L86.3083 22.9539C86.3363 22.7304 86.3642 22.5348 86.3921 22.3392ZM89.0182 13.8743C89.4931 13.0642 89.9541 12.2679 90.6386 11.6114C91.1694 11.1086 91.9795 10.5638 92.678 11.0806C93.2786 11.5276 93.5999 12.3378 93.8373 13.0083C94.1447 13.9023 94.3262 14.894 94.4101 15.8299C92.5103 15.369 90.6106 14.9639 88.6969 14.5308C88.7947 14.3213 88.9065 14.0978 89.0182 13.8743ZM87.9845 24.0015L94.5218 18.1207C94.5358 19.322 94.4939 20.5233 94.3681 21.7107C94.2285 22.9119 94.0189 24.0993 93.7675 25.2866C92.1751 24.9374 90.5827 24.5742 88.9903 24.225C88.655 24.1551 88.3198 24.0853 87.9845 24.0015ZM92.7059 8.06343C91.2671 7.75612 90.0379 8.6082 89.1858 9.69774C88.1941 10.9409 87.5375 12.4495 87.0067 13.9442C86.2944 15.9137 85.8055 17.9671 85.4143 20.0065C85.0232 22.1157 84.7718 24.2529 84.7019 26.4041C84.674 27.4657 84.674 28.5273 84.7299 29.5889C84.7578 30.1057 84.8137 30.6365 84.8835 31.1534C84.9254 31.4048 84.9673 31.6562 85.0093 31.8937C85.0372 32.0194 85.0651 32.1451 85.0931 32.2569C85.121 32.2848 85.2327 32.2429 85.2607 32.2429C86.1826 32.0473 87.1744 32.0054 88.1103 32.0613C89.116 32.1312 90.0519 32.4385 90.9179 32.9413C91.1275 33.067 91.337 33.1928 91.5325 33.3324C91.6303 33.4023 91.7421 33.4721 91.8399 33.5559C91.9237 33.6258 92.0075 33.7096 92.1052 33.7655C92.3707 33.3464 92.6081 32.9134 92.8176 32.4664C93.2507 31.5724 93.5859 30.6365 93.9072 29.6867C94.5777 27.7031 95.0805 25.6637 95.4437 23.5964C95.8069 21.5011 96.0444 19.3779 96.1142 17.2407C96.1701 15.4388 96.1142 13.581 95.6812 11.821C95.304 10.2285 94.4799 8.44058 92.7059 8.06343Z" fill="#0076BD"/>
<path fill-rule="evenodd" clip-rule="evenodd" d="M15.3904 32.2559H2.51146C1.95272 32.2559 1.4778 32.0604 1.07271 31.6832C0.695559 31.3061 0.5 30.8591 0.5 30.3702C0.5 29.8254 0.723496 29.113 1.19843 28.2051L10.4176 10.4651H5.58453C4.35531 10.4651 3.48926 10.6886 3.04227 11.0937C2.59528 11.4988 2.32987 12.3229 2.31591 13.608H0.77937V8.0625H12.3174C14.0494 8.0625 14.9434 8.77489 14.9434 10.1717C14.9434 10.5768 14.8177 11.0657 14.5383 11.5965L5.01183 29.8813H15.3904V32.2559Z" fill="black"/>
<path fill-rule="evenodd" clip-rule="evenodd" d="M23.8275 28.179V24.8406C21.1874 25.0082 19.8464 25.986 19.8464 27.8438C19.8464 29.3244 20.3493 30.0787 21.355 30.0787C22.4446 30.0927 23.2548 29.4502 23.8275 28.179ZM27.5291 30.2883H25.7691C25.0148 30.2883 24.3862 30.4838 23.9113 30.8889C22.9475 31.6292 22.4725 32.0343 22.4306 32.0623C21.83 32.4394 21.1176 32.635 20.3353 32.635C19.0782 32.635 18.0166 32.2299 17.1645 31.4057C16.3124 30.5816 15.8794 29.6038 15.8794 28.4584C15.8794 25.092 18.5474 23.2621 23.8414 22.9967V21.4602C23.8414 19.9795 23.7437 18.9179 23.4922 18.2614C23.2687 17.6049 22.8357 17.2836 22.263 17.2836C21.6903 17.2836 21.2852 17.563 21.1036 18.1636C21.0757 18.1915 20.9779 18.8201 20.7963 19.9935C20.6147 21.1668 19.9163 21.7954 18.6312 21.7954L16.5918 19.6862C16.6477 18.4011 17.1785 17.3674 18.1842 16.5991C19.2179 15.8029 20.5728 15.4258 22.2909 15.4258C24.2046 15.4258 25.5596 15.9147 26.3697 16.8506C27.152 17.8144 27.5571 19.4208 27.5571 21.6557V30.2883H27.5291Z" fill="black"/>
<path fill-rule="evenodd" clip-rule="evenodd" d="M33.312 25.3143C33.312 28.6528 34.2199 30.2871 36.0079 30.2871C37.7959 30.2871 38.606 28.1778 38.606 24.0013C38.606 19.8247 37.7819 17.9669 36.0917 17.9669C34.9603 17.9669 34.0244 19.0843 33.326 21.3612V25.3143H33.312ZM29.6802 18.4558H30.1551C30.3786 18.4837 30.5323 18.4837 30.6161 18.4837C31.6497 18.4837 32.3342 18.344 32.7113 18.0786C33.3399 17.5059 33.9964 16.9332 34.6809 16.3325C35.4073 15.7598 36.2454 15.4805 37.1813 15.4805C38.8715 15.4805 40.1985 16.2208 41.1902 17.7434C42.168 19.2799 42.6709 21.3752 42.6709 24.0851C42.6709 26.795 42.1401 29.0299 41.1064 30.5665C40.0727 32.075 38.606 32.8293 36.7482 32.8293C35.3374 32.8293 34.206 32.2566 33.326 31.1392V37.6485C33.326 38.2212 33.1444 38.6821 32.8231 39.0733C32.4739 39.4504 32.0409 39.646 31.538 39.646C31.0072 39.646 30.5742 39.4504 30.2249 39.0453C29.8757 38.6682 29.6941 38.1933 29.6941 37.6485V18.4558H29.6802Z" fill="black"/>
<path fill-rule="evenodd" clip-rule="evenodd" d="M47.7973 25.3143C47.7973 28.6528 48.6774 30.2871 50.4933 30.2871C52.3092 30.2871 53.0914 28.1778 53.0914 24.0013C53.0914 19.8247 52.2393 17.9669 50.5491 17.9669C49.4177 17.9669 48.5097 19.0843 47.7973 21.3612V25.3143ZM44.1655 18.4558H44.6405C44.836 18.4837 44.9897 18.4837 45.1014 18.4837C46.1351 18.4837 46.8195 18.344 47.1967 18.0786C47.8253 17.5059 48.4818 16.9332 49.1383 16.3325C49.8926 15.7598 50.7307 15.4805 51.6526 15.4805C53.3149 15.4805 54.6559 16.2208 55.6337 17.7434C56.6115 19.2799 57.1004 21.3752 57.1004 24.0851C57.1004 26.795 56.5975 29.0299 55.5638 30.5665C54.5022 32.075 53.0914 32.8293 51.2336 32.8293C49.8228 32.8293 48.6913 32.2566 47.8113 31.1392V37.6485C47.8113 38.2212 47.6297 38.6821 47.2805 39.0733C46.9592 39.4504 46.5262 39.646 45.9954 39.646C45.4925 39.646 45.0595 39.4504 44.7103 39.0453C44.3611 38.6682 44.1795 38.1933 44.1795 37.6485V18.4558H44.1655Z" fill="black"/>
<path fill-rule="evenodd" clip-rule="evenodd" d="M67.074 25.5669C67.074 23.0246 67.0042 21.3345 66.8784 20.5662C66.5572 18.4011 65.747 17.3115 64.5038 17.3115C63.54 17.3115 62.8695 17.8563 62.4644 18.9738C62.0593 20.0633 61.8637 21.7954 61.8637 24.1701C61.8637 26.5447 62.0593 28.1092 62.4225 29.1149C62.8276 30.2045 63.4981 30.7492 64.4898 30.7492C66.194 30.7492 67.074 29.0311 67.074 25.5669ZM70.7058 24.1701C70.7058 29.7994 68.6105 32.6489 64.4759 32.6489C60.3412 32.6489 58.2319 29.7994 58.2319 24.1701C58.2319 18.5408 60.3272 15.4258 64.4759 15.4258C66.3895 15.4258 67.8981 16.194 69.0296 17.7446C70.1471 19.2671 70.7058 21.4322 70.7058 24.1701Z" fill="black"/>
<path fill-rule="evenodd" clip-rule="evenodd" d="M79.492 19.6845C79.492 18.2318 78.7097 17.5194 77.1453 17.5194C75.8043 17.5194 75.1617 18.0642 75.1617 19.2096C75.1617 19.922 75.8602 20.7182 77.271 21.6401C77.9834 22.0731 78.8075 22.6458 79.7713 23.3024C81.0564 24.5316 81.713 26.0122 81.713 27.6745C81.713 29.1272 81.238 30.3285 80.2742 31.2225C79.3104 32.1305 78.0812 32.5635 76.5446 32.5635C75.1897 32.5635 74.0722 32.312 73.2201 31.7952C72.368 31.2784 71.9071 30.6219 71.9071 29.8815C71.9071 29.4206 72.2283 29.1971 72.8849 29.1971C73.0665 29.1971 73.2341 29.1971 73.3598 29.225C74.3655 29.9653 75.3014 30.3425 76.1535 30.3425C77.5922 30.3425 78.3186 29.7698 78.3186 28.6244C78.3186 27.9958 78.0392 27.451 77.4805 26.9342C77.257 26.6967 76.5167 26.1659 75.2875 25.3278C74.0582 24.4757 73.1782 23.7214 72.6614 23.037C72.0607 22.2408 71.7534 21.3188 71.7534 20.2433C71.7534 18.7067 72.2283 17.5334 73.2201 16.6953C74.1839 15.8432 75.5389 15.4102 77.3268 15.4102C78.137 15.4102 79.2964 15.6337 80.7771 16.0667V19.6705H79.492" fill="black"/>
<path fill-rule="evenodd" clip-rule="evenodd" d="M91.3373 38.7238C91.044 40.861 89.1303 42.3556 87.063 42.0762C84.9817 41.7968 83.5429 39.8413 83.8223 37.718C84.1156 35.5809 86.0293 34.0862 88.0966 34.3656C90.164 34.631 91.6167 36.5866 91.3373 38.7238Z" fill="#0076BD"/>
</g>
<defs>
<clipPath id="clip0_133_2835">
<rect width="97" height="49.8546" fill="white" transform="translate(0.5)"/>
</clipPath>
</defs>
</svg>
