<svg width="103" height="65" viewBox="0 0 103 65" fill="none" xmlns="http://www.w3.org/2000/svg">
<g clip-path="url(#clip0_320_9882)">
<mask id="mask0_320_9882" style="mask-type:luminance" maskUnits="userSpaceOnUse" x="0" y="0" width="103" height="65">
<path d="M103 0.800781H0V64.8008H103V0.800781Z" fill="white"/>
</mask>
<g mask="url(#mask0_320_9882)">
<path d="M35.4658 17.5749C36.0908 17.6589 37.1348 18.1945 37.6254 18.5995C39.7725 20.3708 40.0936 24.1277 39.3946 26.6523C41.5564 24.0516 43.7639 21.5712 46.717 19.825C50.2359 17.7429 55.1904 16.5049 58.8982 18.7981C62.3477 17.5602 67.2988 16.615 70.3054 19.2747C73.0092 21.6654 72.8862 25.723 72.6369 29.0362C73.5886 27.77 74.3332 26.3312 75.3714 25.125C78.8209 21.1162 85.4671 18.1241 86.4097 25.8036C86.5679 27.0971 86.4393 28.3316 86.4678 29.6047C88.6979 25.5222 92.2852 18.4668 97.448 17.7406C102.027 17.0961 103.442 20.4479 102.887 24.4102C102.02 30.61 96.1513 40.7665 98.3906 46.6554C98.6183 47.2545 99.0543 47.73 99.2752 48.3268H97.1691C96.6727 48.3268 95.1802 47.8559 94.6964 47.6142C90.5934 45.5605 91.8526 40.8141 92.8179 37.2967C94.044 32.8283 96.0579 28.2079 96.9425 23.7067C97.1076 22.8636 97.366 21.9899 97.0085 21.1684C95.9134 20.5898 94.5962 21.965 93.9279 22.7445C89.9058 27.4352 87.6768 35.1283 83.3416 39.4253C82.0996 40.6564 79.7624 42.0577 78.7617 39.7827C77.5971 37.1378 79.7385 31.6199 80.4591 28.8354C80.6458 28.1126 81.6487 24.8232 80.7574 24.518C79.7282 24.3115 78.7571 25.1477 78.1002 25.8365C73.8083 30.332 71.1729 38.2702 67.8327 43.5964C67.1314 44.7151 67.1132 45.1599 65.648 45.0226C61.9766 44.6788 61.6225 41.7695 62.4217 38.7717C63.4861 34.78 68.0809 26.6092 66.7364 22.833C66.1751 21.2558 64.455 20.7486 62.901 20.7441C62.5754 20.7441 60.8825 20.9233 60.6776 21.0357C60.4864 21.1412 60.6309 21.19 60.6617 21.2819C60.8837 21.9661 61.133 22.5993 61.2366 23.3209C62.2578 30.4421 55.7789 39.0804 50.1289 42.8588C41.3606 48.7239 37.2384 42.0316 41.3823 33.8007C43.954 28.6924 48.7707 24.4567 53.5089 21.3783C50.6924 19.7626 47.3579 22.3769 45.3668 24.2695C35.6741 33.4762 33.14 46.4648 28.8082 58.4855C28.2618 60.0014 27.318 62.93 26.3959 64.1373C25.7242 65.0155 25.2631 64.8431 24.226 64.6366C19.7121 63.7379 21.1796 59.5941 22.2008 56.552C25.6297 46.3411 30.755 36.5228 33.1901 25.976C33.7969 23.3459 34.5733 20.0973 33.3597 17.5783C34.0223 17.6419 34.8226 17.4921 35.4658 17.5783V17.5749ZM54.6473 23.5898C54.5654 23.4945 52.9681 24.6178 52.7905 24.7449C48.872 27.5668 43.7422 33.0972 42.6357 37.8844C42.3317 39.1995 42.03 41.6039 44.0883 41.4893C46.1466 41.3747 49.3183 37.3829 50.4135 35.7648C52.8179 32.2111 54.5619 27.9254 54.6462 23.5887L54.6473 23.5898Z" fill="#B22C37"/>
<path d="M33.5875 4.07202C28.3906 4.19797 23.5078 6.69538 19.5324 9.86451C15.557 13.0336 12.1189 17.2614 9.77482 21.5845C9.55055 21.9975 9.00524 22.928 8.8857 23.3081C8.86749 23.366 8.85497 23.493 8.94035 23.476C11.1899 21.0705 14.0725 18.9805 17.284 18.0625C25.8382 15.6173 29.3446 21.6084 27.0438 29.2651C25.0083 36.0368 16.5064 45.5953 8.82878 45.0348C3.99726 44.6819 1.07034 41.3641 0.267746 36.7744C-2.11159 23.1708 11.8309 2.59241 25.9168 0.910823C29.1226 0.528439 31.955 1.04131 33.5864 4.07202H33.5875ZM17.6244 20.7846C12.4479 21.3871 7.46038 29.247 6.43465 33.9139C5.01275 40.3815 8.06945 44.666 13.8949 39.4204C17.5083 36.1662 21.9971 28.2723 21.0363 23.3353C20.6686 21.4472 19.5734 20.5576 17.6255 20.7846H17.6244Z" fill="#B22C37"/>
</g>
</g>
<defs>
<clipPath id="clip0_320_9882">
<rect width="103" height="65" fill="white"/>
</clipPath>
</defs>
</svg>
