<svg width="101" height="19" viewBox="0 0 101 19" fill="none" xmlns="http://www.w3.org/2000/svg">
<g clip-path="url(#clip0_134_2892)">
<g clip-path="url(#clip1_134_2892)">
<path d="M2.81411 17.5163H1.4102C1.29307 17.5163 1 17.5163 1 17.3408C1 17.2245 1.05879 17.1653 1.23428 17.1065C2.5228 16.6963 2.81367 15.9943 2.81367 15.0006V4.51826C2.81367 3.58115 2.52061 2.87876 1.23428 2.4124C1.05879 2.4124 1 2.29526 1 2.23691C1 2.00307 1.29307 2.06142 1.4102 2.06142H13.0017C15.6362 2.06142 17.803 4.16728 17.803 6.80356C17.803 9.43984 15.6362 11.5431 13.0017 11.5431H7.14693V15.1147C7.20572 16.0514 7.4979 16.6941 8.72633 17.1052C8.90181 17.164 8.96016 17.2228 8.96016 17.3395C8.96016 17.5149 8.66754 17.5149 8.5504 17.5149H2.81411V17.5163ZM89.2335 11.837H91.9852L89.2335 7.15278L88.94 6.68423L86.4831 11.837H89.2335ZM89.2335 2.00132H91.1073L98.952 15.821C99.1868 16.172 99.4785 16.523 99.8295 16.6985C100.122 16.9332 100.473 16.9924 100.766 17.1087C100.883 17.1679 101 17.2267 101 17.3434C101 17.5189 100.707 17.5189 100.59 17.5189H93.6229C93.5062 17.5189 93.1539 17.5189 93.1539 17.3434C93.1539 17.2267 93.2715 17.1679 93.3895 17.1087C93.7405 16.9924 93.9739 16.8165 94.0914 16.4655C94.209 16.0549 94.0914 15.8219 93.7988 15.2937C93.4013 14.4487 92.992 13.6094 92.5704 12.7763H86.0128L85.9549 12.893C85.8957 13.1277 85.4285 13.9459 85.0775 14.8256C84.6098 15.7623 84.4339 15.9961 84.551 16.4647C84.6102 16.8156 84.902 16.9911 85.253 17.1083C85.371 17.1675 85.4285 17.2263 85.4285 17.3425C85.4285 17.518 85.1349 17.518 85.0182 17.518H81.7976C81.6809 17.518 81.3874 17.518 81.3874 17.3425C81.3874 17.2263 81.4466 17.167 81.6217 17.1083C81.9152 16.9916 82.2653 16.9328 82.5583 16.698C82.9093 16.5226 83.2028 16.1716 83.4358 15.8206L83.846 14.9432L88.2959 5.63086L87.651 4.51826C87.0666 3.58115 86.4805 2.9959 85.8365 2.64448C85.5438 2.46899 85.2508 2.46899 84.959 2.35185C84.7835 2.29307 84.7243 2.23428 84.7835 2.11714C84.7835 2 84.9002 2.05879 84.959 2H89.2339V2.00132H89.2335ZM71.7285 17.457H71.9628C82.7365 17.457 82.6198 2.05791 71.9628 2.05791H63.1221C62.9466 2.05791 62.6544 1.99912 62.6544 2.2334C62.6544 2.29175 62.7711 2.40889 62.8878 2.40889C64.1759 2.81865 64.4672 3.52149 64.5269 4.40025V15.1178C64.469 16.054 64.1759 16.6972 62.8878 17.1078C62.7711 17.167 62.6544 17.2258 62.6544 17.3425C62.6544 17.518 62.947 17.518 63.1221 17.518H68.8013V17.4588H71.7285V17.457ZM71.7285 3.17139C73.375 3.17797 74.7087 4.5108 74.7157 6.15733V13.3006C74.7087 14.9471 73.375 16.2804 71.7285 16.2865H68.7992V3.17139H71.7285ZM49.4199 11.837H52.1716L49.4199 7.15278L49.1269 6.68423L46.67 11.837H49.4199ZM49.4199 2.00132H51.3503L59.196 15.821C59.3715 16.172 59.6645 16.523 60.0159 16.6985C60.3081 16.9332 60.6604 16.9924 61.0114 17.1087C61.1281 17.1679 61.2448 17.2267 61.2448 17.3434C61.2448 17.5189 60.8938 17.5189 60.7771 17.5189H53.8124C53.6948 17.5189 53.4022 17.5189 53.4022 17.3434C53.4022 17.2267 53.4601 17.1679 53.6356 17.1087C53.9291 16.9924 54.2209 16.8165 54.2801 16.4655C54.3968 16.0549 54.2801 15.8219 54.0458 15.2937C53.6356 14.4163 53.1684 13.5958 52.7586 12.7763H46.1993L46.1409 12.893C46.0826 13.1277 45.6724 13.9459 45.2635 14.8256C44.8537 15.7623 44.6199 15.9961 44.737 16.4647C44.8542 16.8156 45.088 16.9911 45.439 17.1083C45.5557 17.1675 45.6728 17.2263 45.6728 17.3425C45.6728 17.518 45.3802 17.518 45.2051 17.518H42.0424C41.9253 17.518 41.5738 17.518 41.5738 17.3425C41.5738 17.2263 41.691 17.167 41.8081 17.1083C42.1591 16.9916 42.4522 16.9328 42.804 16.698C43.0962 16.5226 43.4481 16.1716 43.6231 15.8206L44.0329 14.9432L48.5416 5.63086L47.8985 4.51826C47.3132 3.58115 46.67 2.9959 46.0835 2.64448C45.7325 2.46899 45.4978 2.46899 45.1464 2.35185C45.0288 2.29307 44.9116 2.23428 44.9709 2.11714C45.0301 2 45.1464 2.05879 45.2056 2H49.4208L49.4199 2.00132ZM30.0982 12.2472C31.4451 12.7149 33.0846 12.8316 34.3722 12.4227L39.4667 16.8143L39.8764 17.1653C39.9216 17.2118 39.9436 17.2763 39.9357 17.3408C39.9357 17.5163 39.6426 17.5163 39.525 17.5163H34.1388L30.0991 14.1789L26.8196 11.5435V15.1744C26.8789 16.0518 27.2298 16.6963 28.4591 17.1047C28.5763 17.164 28.6346 17.2223 28.6346 17.339C28.6346 17.5145 28.3416 17.5145 28.224 17.5145H21.14C20.9645 17.5145 20.6714 17.5145 20.6714 17.339C20.6714 17.2223 20.789 17.1635 20.9052 17.1047C22.3091 16.6371 22.4846 15.9342 22.5447 14.8234V4.69375C22.4859 3.64082 22.3105 2.87876 20.9052 2.4124C20.7881 2.4124 20.6714 2.29526 20.6714 2.23691C20.6714 2.00307 20.9645 2.06142 21.14 2.06142H32.5572C35.1654 2.05045 37.2889 4.15544 37.2998 6.76364C37.2998 6.76364 37.2998 6.76364 37.2998 6.76408V6.80356C37.309 9.41045 35.2045 11.5317 32.5976 11.5431H28.8685C29.044 11.894 29.4537 12.0116 29.8047 12.1876C29.9223 12.1876 29.9802 12.2472 30.0978 12.2472H30.0982ZM30.0982 10.4322H30.569C32.0909 10.4322 33.3794 8.79229 33.3794 6.68423C33.3768 4.63496 32.0887 2.9959 30.569 2.9959H26.8192V10.4322H30.0982ZM10.4838 2.99634H7.14693V10.4327H11.0116C12.591 10.4327 13.8194 8.79273 13.8194 6.68467C13.8194 4.57661 12.591 2.99634 11.0116 2.99634H10.4838Z" fill="black"/>
</g>
</g>
<defs>
<clipPath id="clip0_134_2892">
<rect width="100" height="18.8889" fill="white" transform="translate(0.5)"/>
</clipPath>
<clipPath id="clip1_134_2892">
<rect width="100" height="15.5189" fill="white" transform="translate(1 2)"/>
</clipPath>
</defs>
</svg>
