<svg width="76" height="63" viewBox="0 0 76 63" fill="none" xmlns="http://www.w3.org/2000/svg">
<path d="M21.3059 59.0252C21.7251 57.7577 22.1376 56.5202 22.5443 55.281C23.7326 51.6593 24.9176 48.036 26.1051 44.4135C26.2968 43.8293 26.2968 43.8268 25.7034 43.8268C22.9926 43.8268 20.2826 43.8227 17.5718 43.8327C17.2934 43.8335 17.0859 43.7668 16.8818 43.5702C16.2609 42.9718 15.6009 42.4127 14.9959 41.7993C14.7151 41.5143 14.5676 41.5435 14.3076 41.8143C11.9209 44.296 7.3476 44.3143 5.1176 43.1902C2.34594 41.7927 1.35094 37.5943 4.62677 35.4768C5.2226 35.0918 5.8401 34.7435 6.5051 34.5002C6.9401 34.341 6.88344 34.1902 6.6101 33.9127C6.29677 33.5943 5.99927 33.2527 5.73927 32.8885C4.13344 30.6435 5.22927 27.9252 7.94177 27.4518C9.01344 27.2643 10.0809 27.3318 11.0759 27.831C12.7851 28.6885 13.3709 30.6435 12.4326 32.3235C11.9076 33.2635 11.0801 33.8718 10.1618 34.3793C9.78177 34.5893 9.74399 34.8382 10.0484 35.126C11.3793 36.3793 12.7109 37.6327 14.0434 38.8852C14.4434 39.2618 14.4768 39.2543 14.6734 38.7368C14.8834 38.1852 15.0243 37.616 15.0293 37.0227C15.0309 36.7893 15.0968 36.6993 15.3526 36.6852C16.6768 36.6093 16.7568 36.6852 16.5168 37.9935C16.3818 38.7285 16.1409 39.4285 15.7551 40.0718C15.6551 40.2377 15.5993 40.3585 15.7784 40.5127C16.2193 40.891 16.6476 41.2852 17.0868 41.6785C17.2559 41.5068 17.1893 41.326 17.1893 41.1677C17.1934 36.5585 17.1859 31.9485 17.2034 27.3393C17.2051 26.8543 17.0751 26.761 16.5934 26.7685C13.6251 26.8118 10.6568 26.811 7.6876 26.8193C5.80594 26.8243 3.92344 26.801 2.0426 26.8327C1.53344 26.841 1.3801 26.7318 1.38177 26.1918C1.4026 19.6318 1.3951 13.071 1.3951 6.511C1.3951 4.56017 1.4051 2.60934 1.38594 0.658504C1.38177 0.271004 1.4876 0.165171 1.8776 0.166838C6.50427 0.180171 11.1309 0.164338 15.7576 0.182671C17.0876 0.187671 18.4109 0.310171 19.6801 0.769338C21.8076 1.53934 23.1318 3.00267 23.4993 5.2535C23.8343 7.30434 23.6401 9.25517 22.1701 10.8852C21.2826 11.8685 20.1284 12.3918 18.8726 12.7252C18.7401 12.7602 18.6076 12.7943 18.4776 12.8368C18.4551 12.8443 18.4459 12.891 18.4076 12.9635C21.7176 13.3877 24.0668 14.951 24.4634 18.4735C24.8751 22.1335 23.4201 24.8118 19.9118 26.2752H27.1134C26.8293 26.046 26.5826 25.871 26.3626 25.6668C23.6168 23.1077 24.3893 18.5177 27.8184 17.0227C29.4159 16.326 31.1234 16.2177 32.8309 16.1077C34.9651 15.9702 37.0984 15.826 39.2318 15.6735C39.5393 15.6518 39.8459 15.5835 40.1484 15.5168C41.0109 15.3252 41.4709 14.7577 41.6126 13.9085C42.0418 11.3368 40.9576 9.62934 38.4209 8.99934C36.0768 8.41767 33.6968 8.40934 31.3318 8.84934C29.1068 9.2635 27.8593 10.7227 27.4201 12.8835C27.3034 13.4552 27.0959 13.621 26.5243 13.5868C25.5843 13.5302 25.5893 13.5727 25.7818 12.6302C26.3634 9.78684 27.9784 7.966 30.9034 7.441C31.3784 7.356 31.8576 7.27434 32.3384 7.24517C34.6168 7.106 36.8909 7.076 39.1359 7.60017C39.8293 7.76184 40.4926 8.00767 41.1059 8.36767C42.7418 9.326 43.3251 10.846 43.3301 12.6477C43.3401 16.3593 43.3326 20.071 43.3334 23.7827C43.3334 25.6093 43.8609 26.0377 45.6443 25.6618C45.8443 25.6193 46.0451 25.5752 46.2476 25.5318C46.3276 27.2085 46.5634 26.936 44.9718 27.1543C44.5993 27.2052 44.2126 27.1927 43.8359 27.1652C42.7993 27.0902 42.2726 26.6177 42.0584 25.6052C41.9184 24.9418 41.9376 24.2668 41.9093 23.5952C41.9018 23.4293 41.9618 23.2543 41.8251 23.0327C39.1359 27.2685 34.9568 27.5835 30.4684 27.3435C31.6884 28.4418 31.9926 29.7893 31.8668 31.2752C31.7343 32.8402 30.9001 33.9168 29.4893 34.5702C29.5434 34.6377 29.5593 34.6793 29.5851 34.6877C31.8401 35.3577 32.5701 37.4293 32.4709 39.2427C32.3568 41.3277 31.1068 42.931 29.0426 43.4752C28.3784 43.6502 28.1084 43.976 27.9101 44.5885C26.0659 50.2818 24.1876 55.9652 22.3334 61.6552C22.2193 62.006 22.0726 62.1352 21.6909 62.1268C20.5168 62.1002 20.5076 62.1218 20.1043 60.9927C18.3584 56.1043 16.6193 51.2127 14.8709 46.3252C14.8168 46.1735 14.8218 45.9785 14.6001 45.8485C14.2468 46.8293 13.8968 47.7935 13.5526 48.7593C12.0301 53.0318 10.5051 57.3035 8.9976 61.581C8.85844 61.9777 8.69344 62.1468 8.24344 62.1293C7.18177 62.0885 7.1776 62.1168 6.83427 61.0802C4.90427 55.251 2.9801 49.4193 1.03677 43.5943C0.895937 43.1727 0.997604 43.1235 1.3901 43.1268C2.76094 43.1368 2.75927 43.1243 3.18677 44.426C4.71427 49.0802 6.24344 53.7335 7.7726 58.386C7.83677 58.581 7.90927 58.7727 7.97677 58.9643C8.22094 58.9385 8.1851 58.7335 8.2301 58.6077C10.0001 53.6368 11.7693 48.6652 13.5159 43.686C13.6668 43.256 13.8493 43.1085 14.3109 43.1218C15.5843 43.1585 15.5801 43.136 16.0143 44.3635C17.6768 49.0618 19.3418 53.7602 21.0118 58.456C21.0768 58.6393 21.0968 58.8543 21.3084 59.0285M10.7276 13.7077C8.11677 13.7077 5.87427 13.7227 3.63177 13.696C3.14344 13.6902 3.03427 13.8443 3.03677 14.3085C3.0551 17.8277 3.05677 21.3468 3.0351 24.866C3.03177 25.3402 3.18177 25.4327 3.62094 25.4302C7.27844 25.4135 10.9351 25.4202 14.5926 25.421C15.3518 25.421 16.1101 25.4018 16.8643 25.316C17.9509 25.1927 19.0084 24.9502 19.9834 24.441C22.1968 23.2877 23.2226 21.041 22.8284 18.316C22.5284 16.246 21.3876 14.9002 19.4143 14.2452C18.6076 13.9768 17.7751 13.8418 16.9293 13.7852C14.7409 13.6377 12.5501 13.7402 10.7284 13.7068M9.9051 12.321C11.7001 12.321 13.4951 12.3243 15.2893 12.3185C15.6509 12.3168 16.0126 12.2885 16.3734 12.2568C17.7884 12.1335 19.1376 11.7952 20.2634 10.8768C21.8001 9.6235 22.1059 7.91517 21.9476 6.06267C21.7518 3.77184 20.4959 2.36184 18.2551 1.86767C17.4076 1.681 16.5484 1.60517 15.6876 1.60184C11.6668 1.58684 7.64594 1.601 3.62427 1.58517C3.18594 1.5835 3.03344 1.67934 3.03677 2.1535C3.05844 5.3635 3.05677 8.5735 3.03844 11.7835C3.03594 12.2177 3.16177 12.3368 3.58927 12.3327C5.69427 12.3127 7.8001 12.3235 9.9051 12.3227M41.6768 16.1043C40.6434 16.8518 39.5601 17.0552 38.4301 17.1277C36.3659 17.2593 34.3034 17.4127 32.2401 17.5577C31.0851 17.6385 29.9343 17.7552 28.8426 18.1718C27.6884 18.6127 26.8184 19.3452 26.5051 20.6018C25.9909 22.6593 26.9309 24.5602 28.9001 25.366C30.5868 26.0568 32.3584 26.1185 34.1418 25.9252C36.0718 25.716 37.9026 25.1927 39.4743 23.9952C40.9201 22.8935 41.7068 21.4468 41.6793 19.5952C41.6676 18.8193 41.6776 18.0427 41.6776 17.266V16.1035L41.6768 16.1043ZM23.3734 35.4743C21.8676 35.4743 20.6243 35.4968 19.3826 35.4635C18.8926 35.4502 18.7818 35.616 18.7884 36.0802C18.8134 37.9785 18.8143 39.8777 18.7884 41.776C18.7818 42.2443 18.9018 42.3943 19.3851 42.3893C21.7151 42.3652 24.0459 42.3827 26.3759 42.3752C27.0326 42.3735 27.6834 42.296 28.3193 42.1177C30.0643 41.6285 30.9668 40.3827 30.8668 38.5902C30.7701 36.8568 29.8693 35.9052 28.0234 35.5935C27.8201 35.5593 27.6134 35.5377 27.4068 35.5218C25.9759 35.4152 24.5418 35.5085 23.3734 35.4743ZM23.4843 27.7527C21.9134 27.7527 20.6009 27.7652 19.2893 27.7443C18.9076 27.7385 18.7851 27.8435 18.7901 28.2368C18.8101 29.9977 18.8134 31.7585 18.7884 33.5185C18.7826 33.9443 18.9276 34.0343 19.3201 34.0318C21.5818 34.0168 23.8426 34.0268 26.1043 34.0243C26.7618 34.0243 27.4151 33.966 28.0509 33.7868C29.5984 33.3502 30.3976 32.206 30.3026 30.5668C30.2093 28.9535 29.4101 28.0952 27.7234 27.8593C26.2301 27.6502 24.7243 27.7952 23.4834 27.7535M8.5076 42.4635C10.4251 42.386 11.8526 41.9118 13.0818 40.8843C13.3659 40.6468 13.4284 40.506 13.1209 40.2168C11.5001 38.6935 9.89927 37.1485 8.29927 35.6035C8.12927 35.4393 7.9901 35.3785 7.75844 35.481C6.98427 35.8218 6.23594 36.1985 5.52594 36.6685C3.3976 38.0777 3.99927 40.7677 5.75594 41.7702C6.71844 42.3202 7.7626 42.4643 8.5076 42.4635ZM8.91844 28.811C8.73094 28.8302 8.54094 28.8385 8.3551 28.8702C6.77677 29.1435 6.17677 30.3685 6.9376 31.7668C7.2876 32.4102 7.7826 32.936 8.30677 33.4377C8.4051 33.5318 8.50177 33.6268 8.66677 33.5468C9.50677 33.1402 10.3518 32.7352 10.8959 31.931C11.6676 30.7918 11.2259 29.4743 9.92927 29.0052C9.60344 28.8877 9.26927 28.8143 8.91844 28.811Z" fill="#005699"/>
<path d="M68.3309 41.7243C68.6684 40.9993 68.9726 40.351 69.2718 39.7002C70.5234 36.9735 71.7793 34.2493 73.0151 31.5152C73.1601 31.1943 73.3309 31.0793 73.6751 31.106C74.0993 31.1385 74.5276 31.1135 75.0234 31.1135C74.4476 32.3402 73.9009 33.5077 73.3518 34.6735C71.5818 38.4327 69.8084 42.1902 68.0426 45.9518C67.7043 46.6718 67.2876 47.3268 66.6518 47.8952C67.3659 47.8952 68.0809 47.8677 68.7934 47.9018C69.8176 47.9502 70.8168 48.1443 71.7326 48.6368C73.1801 49.416 73.7801 50.7135 73.9351 52.2785C73.9534 52.4677 73.9101 52.5827 73.6943 52.5702C73.6259 52.566 73.5559 52.5735 73.4876 52.5718C73.1259 52.566 72.7151 52.6635 72.4151 52.5235C72.1068 52.3802 72.2209 51.9102 72.1184 51.591C71.7743 50.5218 71.0493 49.8643 69.9809 49.6168C68.4476 49.2627 66.9034 49.2443 65.3709 49.6493C64.9343 49.7643 64.5334 49.9685 64.1976 50.2818C63.1118 51.2952 63.3859 52.821 64.7593 53.3802C65.4726 53.671 66.2409 53.6935 66.9901 53.806C68.3884 54.0168 69.8018 54.1302 71.1876 54.4227C71.5068 54.4902 71.8226 54.586 72.1284 54.701C73.5126 55.2202 74.3568 56.1618 74.4484 57.691C74.5484 59.3543 73.9368 60.6135 72.4034 61.3685C71.2459 61.9385 70.0034 62.1043 68.7384 62.1577C67.2484 62.2202 65.7668 62.1635 64.3468 61.6368C62.4834 60.946 61.5459 59.5485 61.3176 57.6177C61.2826 57.3202 61.3368 57.1668 61.6834 57.1952C62.0609 57.2252 62.4909 57.0993 62.8093 57.241C63.1784 57.4052 63.0193 57.9127 63.1151 58.2627C63.3684 59.1943 63.9601 59.8168 64.8368 60.1227C66.9176 60.8493 69.0343 60.8693 71.1443 60.2568C71.8676 60.0468 72.4318 59.5868 72.6709 58.8293C73.0868 57.5127 72.4751 56.4352 71.0909 56.0752C70.1534 55.8318 69.1826 55.781 68.2268 55.6435C67.2709 55.506 66.3126 55.3827 65.3551 55.2485C64.9434 55.191 64.5451 55.0743 64.1593 54.9235C62.9359 54.4435 62.0659 53.6527 61.9109 52.2743C61.7434 50.7802 62.2968 49.6093 63.5634 48.7943C63.8593 48.6035 64.1884 48.4643 64.4893 48.2493C63.6684 48.2668 62.8801 48.056 62.0718 48.6143C59.2626 50.5568 56.3926 52.4127 53.5459 54.3018C53.4751 54.3485 53.4101 54.4043 53.2859 54.4985C56.8993 57.0268 60.4826 59.5335 64.1618 62.1077C63.0543 62.1077 62.0501 62.1093 61.0451 62.106C60.8393 62.106 60.7051 61.9493 60.5543 61.8393C57.8934 59.8943 55.2351 57.9468 52.5718 56.0052C52.4426 55.911 52.3176 55.6935 52.1451 55.7918C51.9884 55.881 52.0743 56.1068 52.0743 56.271C52.0693 58.0835 52.0609 59.8968 52.0793 61.7093C52.0826 62.0827 52.0001 62.2143 51.6001 62.211C50.4043 62.2027 50.4043 62.221 50.4043 61.0335C50.4043 55.1985 50.4001 49.3627 50.4118 43.5277C50.4126 43.0852 50.3043 42.7793 49.9651 42.456C48.4551 41.0168 47.9026 39.1752 47.9776 37.1468C48.0643 34.8068 49.0193 32.9085 51.0801 31.6793C53.5518 30.206 57.5893 30.3152 59.7351 32.8318C59.7759 32.8802 59.8326 32.916 59.9543 33.0185C59.9668 32.7702 59.9834 32.5927 59.9834 32.4143C59.9851 30.5327 59.9984 28.6502 59.9743 26.7693C59.9693 26.3643 60.0951 26.2843 60.4701 26.2902C61.5876 26.3077 61.5876 26.2918 61.5876 27.421C61.5876 28.491 61.5984 29.5618 61.5818 30.6318C61.5759 30.9743 61.6626 31.1885 62.0359 31.1068C62.8143 30.9352 63.1309 31.356 63.4443 31.9977C64.9576 35.0977 66.5209 38.1727 68.0676 41.2568C68.1343 41.3893 68.2134 41.5152 68.3318 41.7235M61.6876 32.166C61.5426 32.4043 61.5909 32.5618 61.5909 32.7118C61.5884 36.0252 61.5884 39.3385 61.5884 42.6527C61.5884 43.8718 61.5884 43.8602 60.3543 43.8343C60.0509 43.8285 59.9693 43.7302 59.9809 43.446C59.9993 42.9743 59.9859 42.501 59.9859 42.0277C59.5626 42.4318 59.1843 42.8018 58.7384 43.0927C56.8318 44.3352 54.7601 44.4327 52.6201 43.9243C52.1893 43.8218 52.0593 43.8543 52.0626 44.3343C52.0818 47.1643 52.0718 49.9952 52.0743 52.8252C52.0743 52.9577 52.0076 53.136 52.1293 53.2135C52.2901 53.316 52.4093 53.1343 52.5293 53.0568C54.6126 51.7043 56.7218 50.3893 58.7584 48.9702C59.7518 48.2777 60.7393 47.8935 61.9618 48.0085C62.8893 48.0952 62.9084 48.026 62.9418 47.0952C62.9518 46.8193 63.0401 46.7377 63.3043 46.7485C63.7351 46.766 64.1676 46.7377 64.5984 46.756C65.3868 46.7902 65.9676 46.471 66.3393 45.7793C66.6576 45.1877 66.9468 44.5793 67.2834 43.9985C67.4634 43.6885 67.4251 43.446 67.2701 43.141C65.7568 40.1785 64.2584 37.2077 62.7543 34.2402C62.4134 33.5685 62.0651 32.9002 61.6876 32.166ZM54.7426 42.7468C58.0309 42.7402 60.1409 40.7193 60.1476 37.5702C60.1551 34.3185 57.9918 32.1543 54.7568 32.1752C51.6318 32.1952 49.5684 34.301 49.5709 37.4677C49.5734 40.6577 51.6268 42.7535 54.7426 42.7468Z" fill="#005699"/>
<path d="M57.2201 10.8718C59.7568 7.42017 63.3376 6.94517 67.1884 7.24017C68.1718 7.31517 69.1343 7.51767 70.0618 7.8685C72.5018 8.79184 73.8059 10.5893 74.1118 13.1452C74.1709 13.6402 74.1926 14.1427 74.1934 14.6418C74.2001 18.5602 74.1909 22.4793 74.2059 26.3985C74.2076 26.801 74.1151 26.9252 73.6984 26.9143C72.5734 26.8852 72.5726 26.906 72.5726 25.7885C72.5726 22.2493 72.5784 18.7102 72.5684 15.1718C72.5659 14.2918 72.5001 13.4135 72.2659 12.5577C71.8268 10.9543 70.8784 9.75267 69.2976 9.2135C66.4476 8.24267 63.5784 8.21684 60.8426 9.57684C58.3968 10.7927 57.1959 12.9002 57.1584 15.606C57.1093 19.196 57.1384 22.7877 57.1576 26.3785C57.1601 26.816 57.0418 26.926 56.6134 26.9152C55.5001 26.8877 55.5001 26.9085 55.5001 25.7718C55.5001 17.3818 55.5043 8.99184 55.4901 0.601838C55.4901 0.136838 55.5976 -0.0139957 56.0793 0.00100427C57.1459 0.0335043 57.1468 0.00683761 57.1468 1.0985C57.1468 4.17184 57.1459 7.24434 57.1501 10.3168C57.1501 10.4827 57.1001 10.6568 57.2201 10.8735" fill="#005699"/>
<path d="M33.3626 47.8585C35.9301 47.8968 38.1443 48.7085 39.6784 50.8777C42.4059 54.7335 40.8368 61.1618 34.7651 62.066C32.5618 62.3943 30.4551 62.0952 28.5859 60.7927C26.2526 59.1668 25.2109 56.2635 25.8651 53.3318C26.4818 50.5677 28.6609 48.5302 31.5576 48.0068C32.1534 47.8993 32.7543 47.8543 33.3626 47.8585ZM33.3001 60.6627C33.7843 60.6652 34.2634 60.6168 34.7401 60.5277C37.0701 60.091 38.7309 58.4243 39.1909 56.0577C39.6243 53.831 38.6518 51.4902 36.7726 50.3035C35.4484 49.4677 33.9868 49.2752 32.4501 49.421C29.0609 49.7427 26.7801 52.7927 27.4518 56.1318C28.0118 58.9177 30.2618 60.6618 33.3001 60.6627Z" fill="#005699"/>
<path d="M46.9876 16.551C46.9876 14.2902 46.9718 12.0293 46.9993 9.7685C47.0051 9.256 46.8393 9.13017 46.3534 9.14517C45.2326 9.1785 44.1101 9.14767 42.9884 9.16184C42.7076 9.16517 42.6051 9.101 42.5993 8.796C42.5801 7.736 42.5668 7.736 43.6334 7.736C44.5484 7.736 45.4643 7.70517 46.3768 7.74767C46.8951 7.77184 47.0051 7.58684 46.9976 7.10267C46.9701 5.32517 46.9976 3.54767 46.9776 1.77017C46.9734 1.38434 47.0743 1.2735 47.4651 1.27934C48.6118 1.29517 48.6118 1.27684 48.6118 2.44434C48.6118 3.99767 48.6401 5.55184 48.5968 7.1035C48.5818 7.656 48.7684 7.756 49.2659 7.746C50.7843 7.71684 52.3034 7.746 53.8218 7.72767C54.1993 7.7235 54.3718 7.78267 54.3576 8.22434C54.3284 9.15434 54.3551 9.15517 53.4368 9.15517C51.9868 9.15517 50.5376 9.1635 49.0876 9.15017C48.7409 9.14684 48.6034 9.2385 48.6051 9.6135C48.6234 14.1518 48.6134 18.691 48.6426 23.2293C48.6526 24.7885 49.4543 25.5827 51.0309 25.7277C52.0684 25.8235 53.1001 25.7568 54.1259 25.6018C54.4434 25.5535 54.5401 25.6085 54.5393 25.9518C54.5376 26.9843 54.5559 27.0035 53.5476 27.1102C52.4826 27.2227 51.4101 27.246 50.3451 27.1302C48.0443 26.8793 47.0751 25.8177 47.0218 23.3852C46.9726 21.1085 47.0109 18.8302 47.0109 16.5518H46.9859" fill="#005699"/>
<path d="M40.1559 44.206C37.6118 44.1485 35.4484 43.3118 34.0451 41.0652C31.7368 37.3702 33.3443 31.5577 39.0068 30.8135C41.0576 30.5435 43.0301 30.821 44.7193 32.0902C47.0443 33.8368 47.7993 36.2418 47.1993 39.021C46.5984 41.7993 44.7468 43.406 42.0109 44.0302C41.4034 44.1685 40.7826 44.211 40.1559 44.206ZM40.1809 42.7452C40.3184 42.7452 40.4568 42.7485 40.5943 42.7443C40.7151 42.7402 40.8351 42.731 40.9551 42.7168C43.1234 42.456 44.7418 41.4102 45.4601 39.2985C46.1868 37.1627 45.7976 35.191 44.1343 33.6018C42.8076 32.3343 41.1434 32.0577 39.3743 32.236C36.7626 32.4993 34.8493 34.4527 34.6618 37.0485C34.4251 40.3135 36.7801 42.7443 40.1801 42.746" fill="#005699"/>
<path d="M43.4459 50.586C44.8326 48.7768 46.6409 48.0852 48.7926 48.1177C48.8443 48.1185 48.8959 48.1152 48.9476 48.1177C49.8351 48.1635 49.8884 48.2193 49.8884 49.1027C49.8884 49.3952 49.8884 49.6868 49.8884 50.0285C48.9851 49.7018 48.0976 49.7027 47.2109 49.881C45.0676 50.311 43.5626 52.026 43.4843 54.3127C43.4009 56.7427 43.4393 59.1785 43.4568 61.611C43.4601 62.0818 43.3409 62.2252 42.8643 62.211C41.7951 62.1802 41.7943 62.2052 41.7943 61.1118C41.7943 58.1093 41.7976 55.106 41.7926 52.1035C41.7909 50.9652 41.7801 49.8268 41.7451 48.6893C41.7343 48.3435 41.8351 48.2568 42.1768 48.2593C43.4459 48.2677 43.4459 48.2535 43.4459 49.5218V50.586Z" fill="#005699"/>
</svg>
