<svg width="398" height="154" viewBox="0 0 398 154" fill="none" xmlns="http://www.w3.org/2000/svg">
<g clip-path="url(#clip0_356_9936)">
<mask id="mask0_356_9936" style="mask-type:luminance" maskUnits="userSpaceOnUse" x="-45" y="-18" width="485" height="188">
<path d="M440 -18H-45V169.866H440V-18Z" fill="white"/>
</mask>
<g mask="url(#mask0_356_9936)">
<mask id="mask1_356_9936" style="mask-type:luminance" maskUnits="userSpaceOnUse" x="-45" y="-18" width="485" height="188">
<path d="M440 -18H-45V169.866H440V-18Z" fill="white"/>
</mask>
<g mask="url(#mask1_356_9936)">
<mask id="mask2_356_9936" style="mask-type:luminance" maskUnits="userSpaceOnUse" x="1" y="16" width="408" height="104">
<path d="M408.078 16.8707H1.66528V119.069H408.078V16.8707Z" fill="white"/>
</mask>
<g mask="url(#mask2_356_9936)">
<path d="M374.415 43.688L366.185 75.6236H365.662L357.578 43.688H344.466C343.066 43.312 341.544 43.0816 340.022 43.0816C334.677 43.0816 330.502 45.9683 328.663 52.4451H328.14V43.6759H294.927L282.789 59.1646H282.132V28.3085H264.126V54.689C260.765 47.448 252.779 43.0694 241.736 43.0694C230.012 43.0694 221.721 48.0423 217.984 56.0959C216.657 48.6124 208.195 43.0694 195.071 43.0694C184.406 43.0694 177.588 46.7324 174.338 51.8751V43.6759H165.73V32.6264H147.724V43.6637H141.332V49.2309C137.339 45.2769 130.582 43.0573 121.695 43.0573C107.377 43.0573 98.5387 48.4547 98.5996 58.0608C98.5387 65.3261 103.652 69.9715 113.867 71.6332L122.742 73.0765C126.65 73.7315 128.415 74.7018 128.476 76.4362C128.415 78.3526 126.029 79.4442 122.742 79.4442C118.663 79.4442 115.79 77.8189 115.303 74.8837H97.4308C98.4048 84.3443 107.28 90.615 122.62 90.615C136.487 90.615 146.701 84.405 146.762 74.5198C146.701 67.7034 141.746 63.7372 131.495 62.0391L121.317 60.3532C117.507 59.7225 116.423 58.4611 116.496 57.1148C116.435 55.1984 119.004 54.1068 122.109 54.1068C125.664 54.1068 128.634 55.8412 128.89 58.6673H145.46C145.411 57.6242 145.253 56.6175 145.021 55.6593H147.736V76.4969C147.602 86.1637 154.091 91.0516 166.534 90.4209C170.612 90.2147 173.644 89.4263 175.275 88.9776L174.898 87.328C177.771 89.4506 181.777 90.4816 186.488 90.4816C193.014 90.4816 197.944 88.4439 200.976 83.277H201.365V89.766H218.203V77.9645C222.014 85.7877 230.219 90.6029 241.761 90.6029C253.302 90.6029 260.814 86.1879 264.15 78.8135V89.766H282.156V76.6788L284.859 73.5253L295.073 89.766H328.688V65.7506C328.688 60.4745 332.632 56.9814 337.952 56.9814C339.596 56.9814 342.116 57.1875 343.918 57.6363L356.421 91.8036L356.032 92.6405C354.826 95.1997 351.332 95.1027 346.901 93.6594L342.993 105.424C345.793 106.443 349.677 107.05 353.828 107.05C366.429 107.05 372.321 101.228 375.097 93.5987L393.371 43.6516H374.44L374.415 43.688ZM170.162 77.0669C170.162 77.3095 170.162 77.54 170.174 77.7704C169.797 77.8068 169.431 77.8432 169.127 77.8432C166.777 77.8432 165.73 76.885 165.73 74.9565V55.6836H172.646C172.366 56.666 172.195 57.6606 172.122 58.6915H188.692C189.118 55.8412 191.394 54.4949 194.828 54.4949C197.957 54.4949 200.172 55.817 200.172 58.2185V58.3398C200.172 61.0082 196.983 61.8451 188.558 62.4151C178.209 63.1065 170.162 66.9514 170.162 77.0669ZM200.306 73.4646C200.306 77.6734 196.423 80.0628 192.344 80.0628C189.276 80.0628 187.121 78.6801 187.121 76.0966C187.121 73.7193 188.947 71.9 193.123 71.2935C195.996 70.8812 198.407 70.3354 200.306 69.6076V73.4525V73.4646ZM249.187 70.5901C248.798 75.4174 245.961 78.0372 242.004 78.0372C237.281 78.0372 234.176 74.3136 234.176 66.7573C234.176 59.201 237.268 55.4774 242.004 55.4774C245.985 55.4774 248.688 58.0851 249.187 62.9246H264.138V70.6143H249.187V70.5901ZM298.129 63.8949L310.657 49.0247V82.3915L298.129 63.8949Z" fill="#0088DB"/>
</g>
<mask id="mask3_356_9936" style="mask-type:luminance" maskUnits="userSpaceOnUse" x="3" y="29" width="88" height="95">
<path d="M90.5765 29.9336H3.46716V123.424H90.5765V29.9336Z" fill="white"/>
</mask>
<g mask="url(#mask3_356_9936)">
<path fill-rule="evenodd" clip-rule="evenodd" d="M67.043 52.1296L48.8419 42.5599C47.661 42.099 46.3705 42.099 45.1895 42.5599L26.9885 52.1296L36.2655 57.0055C37.8239 57.8181 39.5892 57.8181 41.1476 57.0055L44.4347 55.271L44.5808 55.1982C46.127 54.3735 47.9045 54.3735 49.4628 55.1982L49.6089 55.271L52.8961 57.0055C54.4544 57.8181 56.2197 57.8181 57.7781 57.0055L67.043 52.1296ZM3.46713 52.1781L44.5808 73.8041C46.1392 74.6289 47.9045 74.6289 49.4628 73.8041L90.5765 52.1781L49.4628 30.5522C47.9166 29.7274 46.1392 29.7274 44.5808 30.5522L3.46713 52.1781Z" fill="#007ED7"/>
<path fill-rule="evenodd" clip-rule="evenodd" d="M76.4174 71.7059L49.5968 85.8119C47.8558 86.7337 46.1757 86.7337 44.4347 85.8119L17.6141 71.7059C16.0679 70.8933 14.2904 70.8933 12.732 71.7059L3.45498 76.5818L45.1774 98.5352C46.3705 98.984 47.6488 98.984 48.8298 98.5352L90.5643 76.5818L81.2873 71.7059C79.7411 70.8933 77.9636 70.8933 76.4053 71.7059" fill="#00AEE1"/>
<path fill-rule="evenodd" clip-rule="evenodd" d="M76.4174 96.2547L49.5968 110.361C47.8558 111.283 46.1757 111.283 44.4347 110.361L17.6141 96.2547C16.0679 95.4421 14.2904 95.4421 12.732 96.2547L3.45498 101.131L45.1774 123.084C46.3705 123.533 47.6488 123.533 48.8298 123.084L90.5643 101.131L81.2873 96.2547C79.7411 95.4421 77.9636 95.4421 76.4053 96.2547" fill="#57D8F1"/>
</g>
<mask id="mask4_356_9936" style="mask-type:luminance" maskUnits="userSpaceOnUse" x="4" y="71" width="44" height="27">
<path d="M12.7442 71.706L4.5385 76.0239L45.08 97.3588C45.7374 97.7105 46.4557 97.8682 47.1618 97.8439V86.5034C46.2609 86.5276 45.36 86.3093 44.4469 85.8241L17.6262 71.7181C16.847 71.3058 16.0192 71.1117 15.1913 71.1117C14.3634 71.1117 13.5234 71.3179 12.7564 71.7181" fill="white"/>
</mask>
<g mask="url(#mask4_356_9936)">
<path d="M16.4245 52.041L-7.52078 90.3815L35.2538 116.896L59.1991 78.5557L16.4245 52.041Z" fill="url(#paint0_linear_356_9936)"/>
</g>
<mask id="mask5_356_9936" style="mask-type:luminance" maskUnits="userSpaceOnUse" x="3" y="76" width="1" height="1">
<path d="M3.50365 76.5944L3.51588 76.5457L3.66258 76.4727L3.6748 76.6919L3.50365 76.5944Z" fill="white"/>
</mask>
<g mask="url(#mask5_356_9936)">
<path d="M3.53224 76.396L3.39074 76.6226L3.60782 76.7571L3.74931 76.5306L3.53224 76.396Z" fill="url(#paint1_linear_356_9936)"/>
</g>
<mask id="mask6_356_9936" style="mask-type:luminance" maskUnits="userSpaceOnUse" x="4" y="95" width="44" height="28">
<path d="M12.7442 96.255L4.40459 100.646L45.08 122.053C45.7374 122.405 46.4557 122.563 47.1618 122.538V111.052C46.2609 111.077 45.36 110.858 44.4469 110.373L17.6262 96.2671C16.847 95.8547 16.0192 95.6606 15.1913 95.6606C14.3634 95.6606 13.5234 95.8668 12.7564 96.2671" fill="white"/>
</mask>
<g mask="url(#mask6_356_9936)">
<path d="M16.3319 76.5248L-7.71635 115.03L35.2237 141.647L59.2719 103.142L16.3319 76.5248Z" fill="url(#paint2_linear_356_9936)"/>
</g>
<mask id="mask7_356_9936" style="mask-type:luminance" maskUnits="userSpaceOnUse" x="4" y="36" width="44" height="38">
<path d="M4.59935 51.572L45.0678 72.8705C45.7008 73.198 46.3704 73.3678 47.04 73.3556C46.6992 66.8424 45.6034 60.887 43.9599 55.5139L41.1354 57.0058C39.5892 57.8184 37.8117 57.8184 36.2533 57.0058L27.0128 52.1421H26.9763L25.9901 51.669L39.5161 44.5615C37.8969 41.4322 36.0829 38.5819 34.1471 36.0348L4.58717 51.5841L4.59935 51.572Z" fill="white"/>
</mask>
<g mask="url(#mask7_356_9936)">
<path d="M47.0525 36.0222H4.59962V73.3552H47.0525V36.0222Z" fill="url(#paint3_radial_356_9936)"/>
</g>
<path d="M136.499 121.883H133.322L128.805 109.112L124.251 121.883H121.074L115.401 104.794H118.907L122.876 117.711L127.393 104.757H130.18L134.697 117.711L138.666 104.794H142.172L136.499 121.883Z" fill="black"/>
<mask id="mask8_356_9936" style="mask-type:luminance" maskUnits="userSpaceOnUse" x="103" y="93" width="234" height="38">
<path d="M336.029 93.0651H103.311V130.932H336.029V93.0651Z" fill="white"/>
</mask>
<g mask="url(#mask8_356_9936)">
<path d="M159.765 114.145H146.543C146.726 117.529 148.893 119.579 152.07 119.579C155.248 119.579 157.342 117.857 157.744 117.602L159.193 119.579C158.973 119.761 156.77 122.284 151.644 122.284C146.519 122.284 143.049 118.754 143.049 113.32C143.049 107.887 146.994 104.466 151.754 104.466C156.514 104.466 159.887 107.85 159.887 112.641C159.887 113.284 159.777 114.157 159.777 114.157M151.644 106.953C148.211 106.953 146.689 109.791 146.58 111.853H156.587C156.551 109.949 155.102 106.953 151.632 106.953" fill="black"/>
<path d="M163.855 104.757H161.104L163.527 97.0433H167.07L163.855 104.757Z" fill="black"/>
<path d="M176.821 121.883H173.79L166.631 104.794H170.247L175.336 117.675L180.401 104.794H183.98L176.821 121.883Z" fill="black"/>
<path d="M201.134 114.145H187.913C188.095 117.529 190.262 119.579 193.44 119.579C196.617 119.579 198.711 117.857 199.113 117.602L200.562 119.579C200.343 119.761 198.139 122.284 193.014 122.284C187.888 122.284 184.418 118.754 184.418 113.32C184.418 107.887 188.363 104.466 193.123 104.466C197.884 104.466 201.256 107.85 201.256 112.641C201.256 113.284 201.146 114.157 201.146 114.157M193.014 106.953C189.58 106.953 188.059 109.791 187.949 111.853H197.957C197.92 109.949 196.471 106.953 193.002 106.953" fill="black"/>
<path d="M227.334 125.668C226.068 127.22 223.937 128.943 219.676 128.943C215.415 128.943 212.517 126.747 212.018 126.383L213.65 123.97C214.551 124.758 217.229 126.129 219.798 126.129C224.168 126.129 225.8 123.497 225.8 119.47V118.609H225.727C224.57 120.331 222.622 121.665 219.725 121.665C215.318 121.665 211.446 118.5 211.446 113.066C211.446 107.632 215.318 104.466 219.725 104.466C222.72 104.466 224.716 105.91 225.727 107.486H225.836L225.8 104.782H229.233V118.281C229.233 122.065 228.624 124.152 227.358 125.668M220.455 107.232C216.949 107.232 215.001 109.827 215.001 113.066C215.001 116.304 216.949 118.863 220.455 118.863C223.962 118.863 225.909 116.304 225.909 113.066C225.909 109.827 223.998 107.232 220.455 107.232Z" fill="black"/>
<path d="M241.249 122.284C236.124 122.284 232.143 118.718 232.143 113.393C232.143 108.069 236.112 104.466 241.249 104.466C246.387 104.466 250.32 108.105 250.32 113.393C250.32 118.681 246.351 122.284 241.249 122.284ZM241.249 107.268C237.78 107.268 235.649 109.936 235.649 113.284C235.649 116.632 237.78 119.336 241.249 119.336C244.719 119.336 246.813 116.668 246.813 113.284C246.813 109.9 244.683 107.268 241.249 107.268Z" fill="black"/>
<path d="M258.404 122.284C254.106 122.284 253.887 118.754 253.887 115.407V107.596H251.354V104.818H253.887V99.7118H257.357V104.818H261.472V107.596H257.357V115.334C257.357 116.777 257.393 117.748 257.795 118.463C258.124 119.009 258.586 119.324 259.56 119.324C260.534 119.324 261.325 118.924 261.325 118.924L261.545 121.702C260.644 122.102 259.597 122.272 258.404 122.272" fill="black"/>
<path d="M277.554 122.284C273.257 122.284 273.037 118.754 273.037 115.407V107.596H270.505V104.818H273.037V99.7118H276.507V104.818H280.622V107.596H276.507V115.334C276.507 116.777 276.544 117.748 276.945 118.463C277.274 119.009 277.737 119.324 278.711 119.324C279.685 119.324 280.476 118.924 280.476 118.924L280.695 121.702C279.794 122.102 278.747 122.272 277.554 122.272" fill="black"/>
<path d="M295.22 121.883V112.205C295.22 109.754 294.818 107.304 291.677 107.304C288.536 107.304 287.196 110.009 287.196 113.43V121.883H283.763V97.0433H287.196V107.486H287.27C288.17 105.788 290.058 104.466 292.541 104.466C297.496 104.466 298.689 107.632 298.689 111.707V121.896H295.22V121.883Z" fill="black"/>
<path d="M305.264 101.301C303.924 101.301 302.987 100.403 302.987 99.178C302.987 97.953 303.924 97.0554 305.264 97.0554C306.603 97.0554 307.504 97.953 307.504 99.178C307.504 100.403 306.566 101.301 305.264 101.301ZM303.523 104.794H306.992V121.896H303.523V104.794Z" fill="black"/>
<path d="M316.939 122.284C314.054 122.284 311.704 121.095 310.255 119.227L311.923 117.214C313.372 118.73 315.393 119.664 316.988 119.664C318.583 119.664 320.275 119.082 320.275 117.214C320.275 115.346 317.56 114.764 316.403 114.376C313.871 113.515 311.339 112.617 311.339 109.366C311.339 106.116 314.09 104.466 317.122 104.466C320.153 104.466 321.894 105.546 322.978 106.698L321.529 108.821C320.518 107.778 318.85 106.989 317.195 106.989C315.539 106.989 314.443 107.705 314.443 109.112C314.443 110.519 316.111 111.125 317.803 111.671C318.741 111.998 319.398 112.205 320.117 112.496C322.028 113.284 323.477 114.655 323.477 116.886C323.477 120.561 320.263 122.284 316.939 122.284Z" fill="black"/>
</g>
</g>
</g>
</g>
<defs>
<linearGradient id="paint0_linear_356_9936" x1="47.0493" y1="97.6167" x2="5.50948" y2="71.6732" gradientUnits="userSpaceOnUse">
<stop stop-color="#42C8EB"/>
<stop offset="0.08" stop-color="#42C8EB"/>
<stop offset="0.24" stop-color="#19B8E4"/>
<stop offset="0.36" stop-color="#00AEE1"/>
<stop offset="1" stop-color="#00AEE1"/>
</linearGradient>
<linearGradient id="paint1_linear_356_9936" x1="45.356" y1="100.573" x2="3.81644" y2="74.6295" gradientUnits="userSpaceOnUse">
<stop stop-color="white"/>
<stop offset="0.07" stop-color="#C1FFFF"/>
<stop offset="0.19" stop-color="#5AFFFF"/>
<stop offset="0.28" stop-color="#19FFFF"/>
<stop offset="0.31" stop-color="#00FFFF"/>
<stop offset="1" stop-color="#00FFFF"/>
</linearGradient>
<linearGradient id="paint2_linear_356_9936" x1="35.9372" y1="115.408" x2="-5.60256" y2="89.4644" gradientUnits="userSpaceOnUse">
<stop stop-color="#9AE8F7"/>
<stop offset="0.18" stop-color="#70DEF3"/>
<stop offset="0.31" stop-color="#57D8F1"/>
<stop offset="1" stop-color="#57D8F1"/>
</linearGradient>
<radialGradient id="paint3_radial_356_9936" cx="0" cy="0" r="1" gradientUnits="userSpaceOnUse" gradientTransform="translate(5.77276 76.4093) scale(44.3399 44.1737)">
<stop stop-color="#007ED7"/>
<stop offset="0.68" stop-color="#007ED7"/>
<stop offset="0.88" stop-color="#1698E2"/>
<stop offset="0.93" stop-color="#1C9FE5"/>
<stop offset="0.99" stop-color="#39ABE7"/>
<stop offset="1" stop-color="#39ABE7"/>
</radialGradient>
<clipPath id="clip0_356_9936">
<rect width="398" height="154" fill="white"/>
</clipPath>
</defs>
</svg>
