<svg width="90" height="30" viewBox="0 0 90 30" fill="none" xmlns="http://www.w3.org/2000/svg">
<path fill-rule="evenodd" clip-rule="evenodd" d="M15.2959 9.72038H15.3766L15.5116 9.747L15.6729 9.77435L16.1032 9.88307L16.6952 9.99102L17.0184 10.0731L17.3683 10.1541L17.745 10.2085L18.1213 10.3171L18.5252 10.3711L18.9287 10.4798L20.2202 10.7235L20.6241 10.8322L21.0547 10.9136L21.4306 10.9949L21.8349 11.0762L22.2112 11.1576L22.5883 11.2119L22.9111 11.2937L23.2342 11.3476L23.5031 11.4286L23.7452 11.4833L23.9601 11.5099L24.1487 11.5373L24.2837 11.5646L24.364 11.5916H24.4175L24.7678 11.673L25.0906 11.7273L25.3598 11.8087L25.5748 11.8627L25.7904 11.9444L25.9518 11.9988L26.1668 12.1071L26.2475 12.1614L26.3821 12.2967V12.3241L26.4096 12.3511V12.3781H27.5658L27.674 12.4055H27.7814L27.8622 12.4324H27.9429L28.0236 12.4598L28.2389 12.5678L28.2657 12.6225L28.4542 12.9205L28.5081 13.2729L28.4542 13.7073L28.3199 14.114L28.1582 14.5208L27.9964 14.8465L27.8622 15.0635L27.8086 15.1449L27.7547 15.1726L27.6201 15.2259L27.4316 15.3076L27.1623 15.4159L26.8663 15.525L26.4899 15.6873L26.0861 15.85L25.6287 16.013L25.1174 16.2297L24.5789 16.4197L24.0416 16.6364L22.8575 17.1252L22.2383 17.3692L21.6192 17.5866L21.0008 17.8565L20.3552 18.1013L19.736 18.318L19.1436 18.5898L18.5252 18.8072L17.9599 19.0238L16.8834 19.4576L16.3992 19.6476L15.9418 19.8102L15.5383 19.9726L15.1888 20.1083L14.8924 20.244L14.6507 20.3257L14.4621 20.4074L14.3543 20.434L14.3271 20.4606H28.2389L30.4991 9.66602H15.2959V9.72038Z" fill="white"/>
<path fill-rule="evenodd" clip-rule="evenodd" d="M25.7093 13.2192L25.6282 13.2465L25.0901 13.3545H24.9555L24.8477 13.3815H24.7405L24.5784 13.4092L24.4981 13.4362L24.4442 13.4632L24.417 13.5179V13.5715L24.4713 13.6259H24.5784L24.6863 13.6529H24.9555L25.1169 13.6259H25.2783L25.6553 13.5715H25.8439L26.0588 13.5442L26.247 13.5179L26.4091 13.4902L26.5969 13.4632H27.3235L27.4039 13.4902L27.4582 13.5179L27.5117 13.5989V13.7072L27.4849 13.8156L27.4582 13.9512L27.4039 14.1139L27.3235 14.304L27.2697 14.494L27.2429 14.6024L27.2964 14.6567L27.3503 14.6294L27.4582 14.5207L27.5117 14.4397L27.5924 14.304L27.6735 14.1413L27.7542 13.9512L27.8345 13.7889L27.8884 13.6259L27.9152 13.4902V13.3275L27.8617 13.1918L27.7809 13.1105L27.6735 13.0291L27.5389 12.9748L27.3771 12.9478L27.1893 12.9204H26.0588L26.032 12.9478H26.0049L25.9514 12.9748L25.897 13.0835L25.8439 13.1105L25.7899 13.1648L25.7093 13.2192Z" fill="white"/>
<path fill-rule="evenodd" clip-rule="evenodd" d="M14.7844 12.1614L13.0083 20.4606L13.0894 20.434L13.2508 20.3257L13.5196 20.2173L13.8699 20.0273L14.273 19.8376L14.7308 19.5936L15.2689 19.3491L15.7802 19.0778L16.3183 18.8338L16.8293 18.5623L17.3406 18.3179L17.8248 18.0739L18.2287 17.8565L18.5782 17.6942L18.8474 17.5592L19.036 17.4775L19.3048 17.3418L19.5473 17.2061L19.8429 17.07L20.1389 16.9077L20.4082 16.7721L20.731 16.6364L21.027 16.4737L21.3498 16.3387L21.6729 16.1753L23.2872 15.4975L24.0138 15.2531L24.1213 15.2258L24.2288 15.1725L24.3634 15.1448L24.8476 14.9822L25.4132 14.8195L25.6014 14.7921L26.1663 14.6294L26.4894 14.5754L26.5969 14.548L26.6776 14.5207H26.7587L26.839 14.4941L26.8929 14.4397H26.9201V14.412L26.8657 14.304L26.7851 14.2771L26.6776 14.2497H26.5701L26.4091 14.223H26.247L26.0588 14.2497L25.736 14.2771L25.3861 14.331L25.0093 14.412L24.6055 14.4941L24.2024 14.6024L23.7718 14.7381L23.3679 14.8738L22.9377 15.0091L22.5342 15.1725L22.13 15.3075L21.7536 15.4432L21.404 15.5789L21.0806 15.7416L20.8117 15.8499L20.5696 15.959L20.3811 16.0673L19.3588 12.8665H25.8706L25.897 12.7311L25.7899 12.5951L25.6282 12.5137L25.3861 12.4324L25.1168 12.351L24.417 12.2427L23.2872 12.1614H14.7844Z" fill="white"/>
<path fill-rule="evenodd" clip-rule="evenodd" d="M77.4072 15.3153H31.8174L31.8827 14.625H77.4731L77.4072 15.3153Z" fill="white"/>
<path fill-rule="evenodd" clip-rule="evenodd" d="M33.8887 13.7891L33.5387 13.7618L33.1892 13.6804L32.9199 13.5991L32.6778 13.4364L32.5168 13.2467L32.409 13.0019L32.3818 12.7313L32.409 12.4056L32.5436 11.8088L32.6511 11.2664L32.7589 10.8049L32.8396 10.4256L32.8935 10.1002L32.9471 9.85621L32.9742 9.72086L33.0006 9.6665H33.8887L33.8615 9.77449L33.8079 10.0459L33.7001 10.4526L33.6194 10.914L33.5119 11.3755L33.3777 12.0532L33.3506 12.1345L33.3242 12.3516V12.7317L33.3777 12.867L33.4852 12.9753L33.6194 13.0567L33.8079 13.1107L34.0233 13.1377L34.2654 13.1107L34.4539 13.0836L34.6421 13.0019L34.7767 12.8666L34.8845 12.7313L34.9924 12.5679L35.1538 12.1342L35.1802 11.9171L35.2609 11.5917L35.3423 11.185L35.423 10.751L35.5301 10.3435L35.5844 9.99116L35.6379 9.74676L35.6651 9.66577H36.5531L36.3917 10.4522L36.311 10.8597L36.2571 10.995V11.049L36.2299 11.212L36.1493 11.6188L35.9615 12.4056L35.9343 12.5679L35.8536 12.7313L35.7993 12.8666L35.7187 13.0019L35.6115 13.1377L35.3962 13.3543L35.2612 13.436L35.1002 13.5178L34.9656 13.5991L34.8046 13.6531L34.6428 13.6804L34.481 13.7344L34.1047 13.7891H33.8887ZM75.2727 10.3172H74.0084L73.7934 10.3713L73.6327 10.4799L73.6053 10.5339L73.5783 10.6156V10.7239L73.6053 10.8327L73.6856 10.9414L73.7669 11.0767L74.0089 11.3207L74.1701 11.429L74.3043 11.5378L74.4664 11.6735L74.7349 11.9449L74.8431 12.0806L75.0038 12.4059L75.0302 12.5683L75.0038 12.7583L74.9504 12.9487L74.8696 13.1384L74.7349 13.3011L74.5463 13.4368L74.3312 13.5447L74.0618 13.6261L73.7126 13.6804L73.3359 13.7074H71.9638L72.125 13.0567H73.5779L73.7126 13.0293L73.8198 13.0019L73.9011 12.948L73.982 12.8393L74.0354 12.7313L74.0089 12.5139L73.8477 12.2968L73.5783 12.0802L73.3094 11.8361L73.014 11.5651L72.7711 11.2664L72.6104 10.9676L72.5839 10.6153L72.6369 10.4256L72.7451 10.2089L72.8529 10.0463L73.041 9.91052L73.2834 9.80218L73.5254 9.72086L73.8487 9.6665H75.4088L75.2727 10.3172ZM72.1515 10.3172H70.1338L69.8909 11.3751H71.668L71.5333 11.9445H69.7571L69.5416 13.0567H71.5597L71.425 13.7074H68.5193L69.3804 9.66616H72.2871L72.1515 10.3172ZM68.653 10.3172H67.4157L66.6897 13.7074H65.8021L66.5281 10.3172H65.2633L65.425 9.66616H68.7887L68.653 10.3172ZM62.4649 13.7074L62.8151 13.0567H64.0794L63.7301 10.4799L61.954 13.7074H61.0654L63.3794 9.66616H64.4291L65.0483 13.7074H62.4649ZM62.3032 10.3172H61.0654L60.339 13.7074H59.4509L60.1769 10.3172H58.9135L59.0742 9.66616H62.4375L62.3032 10.3172ZM58.4556 10.3172H57.2177L57.083 10.3439L56.9757 10.3713L56.8944 10.4256L56.7872 10.5336V10.7236L56.8141 10.8323L56.868 10.941L56.9753 11.0764L57.2173 11.3204L57.352 11.4287L57.5136 11.5374L57.9163 11.9445L58.0245 12.0802L58.1323 12.2429L58.1857 12.4056L58.2126 12.5679V12.7579L58.1587 12.9483L58.0784 13.138L57.9163 13.3007L57.7556 13.4364L57.5141 13.5444L57.2447 13.6257L56.9219 13.6801L56.5182 13.707H55.1727L55.3069 13.0563H56.7867L56.9214 13.0293L57.0287 13.0019L57.11 12.948L57.1903 12.8393L57.2173 12.7313L57.1903 12.5139L57.0292 12.2968L56.7872 12.0802L56.5187 11.8361L56.2219 11.5651L55.9799 11.2664L55.8188 10.9676L55.7913 10.6153L55.8457 10.4256L55.926 10.2089L56.0607 10.0463L56.2493 9.91052L56.4648 9.80218L56.7333 9.72086L57.0566 9.6665H58.6172L58.4556 10.3172ZM50.3296 11.6731L49.9255 13.7074H51.7286L51.9436 13.6804H52.1592L52.5349 13.5717L52.7509 13.4904L52.9395 13.3817L53.2623 13.165L53.5851 12.8393L53.854 12.4599L53.9618 12.2429L54.0426 12.0262L54.096 11.7818L54.1234 11.6735L54.1499 11.5108L54.2033 11.1314L54.1768 10.7787L54.096 10.4803L53.9613 10.2093L53.7463 9.96488L53.4778 9.80218L53.1276 9.69385L52.724 9.6665H50.7597L50.3296 11.6731ZM53.2623 11.6731L53.2353 11.8088L53.154 11.9715L53.1006 12.1072L53.0477 12.2699L52.9664 12.3778L52.8591 12.5139L52.6431 12.7313L52.3742 12.8936L52.24 12.948L52.0793 13.0019L51.7551 13.0563H50.9488L51.2172 11.6727L51.514 10.3169H52.6706L52.8856 10.3982L53.0477 10.5066L53.1815 10.6689L53.2623 10.8316L53.3162 11.0482V11.4823L53.2623 11.645V11.6731ZM49.9799 10.3172H47.9882L47.7461 11.3751H49.4959L49.3877 11.9445H47.6122L47.3966 13.0567H49.3877L49.2799 13.7074H46.3743L47.2355 9.66616H50.1141L49.9799 10.3172ZM46.5089 10.3172H45.2442L44.5175 13.7074H43.6566L44.3829 10.3172H43.1185L43.2528 9.66616H46.6167L46.5089 10.3172ZM41.7999 13.7074H40.9386L41.7727 9.66616H42.6604L41.7999 13.7074ZM40.0777 13.7074H38.9744L37.9789 10.697H37.9521L37.3333 13.7074H36.5531L37.414 9.66616H38.5441L39.5132 12.7043L40.1324 9.66616H40.9393L40.0777 13.7074ZM32.705 18.9149H32.5975L32.5436 18.8882H32.3822L32.3287 18.8616H32.2751L32.2212 18.2919H32.4365L32.4633 18.3185H32.625L32.84 18.2919L33.1628 18.1835L33.2706 18.0745L33.4316 17.857L33.4855 17.7495V17.6403L33.5123 17.5047V17.3697L33.4855 17.2606L33.4316 17.1797L33.2706 17.0706H33.1628L33.0556 17.044H32.329L31.6024 20.4345H30.7144L31.576 16.3925H33.4863L33.7823 16.4199L33.9976 16.5289L34.1858 16.6639L34.2936 16.8539L34.3471 17.044L34.3743 17.2606V17.478L34.3471 17.6681L34.2665 17.9395L34.1319 18.1835L33.9705 18.4002L33.7555 18.5902L33.5398 18.7259L33.0014 18.8882L32.705 18.9149ZM76.995 17.0436H74.9504L74.7349 18.1014H76.511L76.3763 18.6978H74.6006L74.3851 19.81H76.4032L76.2685 20.4341H73.3628L74.2239 16.3921H77.1302L76.995 17.0436ZM73.4162 17.0979L73.3084 17.0706H73.2281L73.0131 17.017L72.8774 16.9896H72.7437L72.6354 16.9623H72.4743L72.1784 16.9896L71.9095 17.0706L71.6405 17.1797L71.3986 17.3697L71.21 17.5597L71.0214 17.8038L70.9141 18.1021L70.8068 18.4272L70.7525 18.7529L70.7794 19.0513L70.8597 19.2953L70.968 19.4854L71.1292 19.6484L71.3447 19.7841L71.5867 19.8651L71.8551 19.8917H72.0163L72.1779 19.8651H72.3126L72.582 19.8111H72.6888L72.824 19.7845L72.9313 19.7571L72.7158 20.4352L72.6085 20.4618H72.4738L72.3665 20.4892H72.2318L72.124 20.5159H71.5049L71.0743 20.4618L70.8857 20.4083L70.6971 20.3265L70.5365 20.2448L70.3753 20.1365L70.2406 20.0282L70.1059 19.8917L70.0251 19.7294L69.9447 19.5394L69.8634 19.377L69.8365 19.1604V18.943L69.8634 18.6989L69.8899 18.4275L69.9712 18.1842L70.052 17.9129L70.2671 17.4788L70.4018 17.2887L70.725 16.963L70.9131 16.8273L71.2893 16.6106L71.7199 16.4476L71.9354 16.3936L72.1505 16.367L72.3925 16.3403H72.9577L73.0655 16.367H73.1737L73.281 16.3936H73.3883L73.4961 16.421L73.4162 17.0979ZM68.9768 20.4341H68.0887L68.9499 16.3921H69.8375L68.9768 20.4341ZM66.124 20.4341H65.0747L64.483 16.3921H65.3716L65.7747 19.6477L67.5509 16.3921H68.412L66.124 20.4341ZM62.8685 18.6982L63.5146 20.4341H62.5452L61.8188 18.2375H62.3311L62.4918 18.2101L62.653 18.1562L62.7877 18.0745L62.895 17.9935L63.0027 17.8844L63.0561 17.7495L63.1105 17.5871L63.137 17.478V17.3697L63.0831 17.2067L63.0297 17.1527L62.9224 17.0987L62.653 17.0447H61.8457L61.1193 20.4352H60.2317L61.0928 16.3932H62.9493L63.2178 16.4206L63.4607 16.4746L63.6493 16.5563L63.784 16.6646L63.8913 16.8003L63.9726 16.9903L63.9986 17.207V17.4237L63.9726 17.6951L63.8913 17.9398L63.784 18.1565L63.6493 18.3188L63.4877 18.4812L63.2726 18.5902L63.084 18.6719L62.8685 18.6982ZM60.3125 17.0436H58.2939L58.0789 18.1014H59.8281L59.7203 18.6978H57.9442L57.7296 19.81H59.7477L59.613 20.4341H56.6799L57.541 16.3921H60.4472L60.3125 17.0436ZM56.6525 17.0436H55.5229L55.2535 17.0976L55.1462 17.125L55.0923 17.1789L55.0115 17.2329L54.9576 17.3412V17.4769L54.985 17.586L55.0384 17.6936L55.1462 17.8027L55.2535 17.9384L55.3882 18.046L55.5229 18.1824L55.6836 18.2907L55.8183 18.4257L55.9794 18.5348L56.0877 18.6971L56.195 18.8328L56.3027 18.9951L56.3566 19.1308L56.3826 19.3208V19.4832L56.3292 19.7005L56.2484 19.8629L55.9251 20.1886L55.71 20.297L55.4132 20.3787L55.0909 20.4327H53.3421L53.4769 19.8085H54.9562L55.0904 19.7819L55.1982 19.7272L55.279 19.6732L55.3593 19.5922L55.4132 19.4832L55.3593 19.2665L55.1986 19.0491L54.9562 18.8058L54.6877 18.561L54.3909 18.317L54.1489 18.0186L53.9878 17.6929L53.9608 17.3679L54.0142 17.1505L54.0955 16.9604L54.2302 16.7981L54.4188 16.6624L54.6334 16.554L54.9028 16.4723L55.2261 16.4184L55.6018 16.391H56.7862L56.6525 17.0436ZM51.8633 20.4341H49.1457L49.9799 16.3921H50.8949L50.168 19.81H51.9975L51.8633 20.4341ZM46.1047 20.4341L46.4542 19.81H47.7186L47.3426 17.2059L45.5937 20.4338H44.7057L46.9931 16.3917H48.0693L48.6886 20.4338L46.1047 20.4341ZM45.9436 17.0436H44.6789L43.9523 20.4341H43.0642L43.7912 17.0436H42.5533L42.6883 16.3921H46.0515L45.9436 17.0436ZM42.0959 17.0436H40.9654L40.6965 17.0976L40.6158 17.125L40.5351 17.1789L40.428 17.2873L40.4009 17.3412V17.4769L40.428 17.586L40.589 17.8027L40.6962 17.9384L40.8308 18.046L40.965 18.1824L41.1268 18.2907L41.2882 18.4257L41.4224 18.5348L41.5303 18.6971L41.6649 18.8328L41.7456 18.9951L41.7995 19.1308L41.8531 19.3208L41.8263 19.4832L41.7723 19.7005L41.6917 19.8629L41.5574 20.0259L41.3957 20.1882L41.1536 20.2966L40.8579 20.3783L40.5348 20.4323H38.813L38.9204 19.8082H40.4277L40.5348 19.7815L40.7501 19.6725L40.8036 19.5915L40.8576 19.4824L40.8304 19.2658L40.669 19.0484L40.4273 18.8051L40.1309 18.5603L39.8617 18.3162L39.6196 18.0179L39.4582 17.6921L39.4043 17.3671L39.4582 17.1497L39.5653 16.9597L39.701 16.7996L39.8621 16.6639L40.0773 16.5555L40.373 16.4738L40.6958 16.4199L41.0453 16.3925H42.2298L42.0959 17.0436ZM34.6153 18.4264L34.561 18.8613L34.6421 19.4303L34.8038 19.756L34.9109 19.9183L35.1534 20.1624L35.3144 20.2707L35.4758 20.3524L35.6643 20.4341L35.8793 20.4881L36.0946 20.5148H36.5524L36.9826 20.4607L37.1976 20.4071L37.4129 20.3254L37.6014 20.2437L37.7628 20.1354L37.9514 20.0271L38.1128 19.8906L38.247 19.7283L38.4088 19.566L38.5159 19.3759L38.7312 18.9419L38.8119 18.6978L38.8655 18.4264L38.9193 18.2098V17.803L38.8922 17.5864L38.8655 17.3963L38.7041 17.0699L38.4902 16.7996L38.3552 16.6912L38.1938 16.5829L38.0324 16.5012L37.8171 16.4195L37.6286 16.3655L37.4137 16.3389H36.9559L36.5256 16.3925L36.3107 16.4465L36.0953 16.5289L35.9068 16.6099L35.7458 16.7182L35.5573 16.8539L35.3958 16.9623L35.2344 17.1253L35.0998 17.3153L34.9652 17.4777L34.8578 17.6944L34.777 17.9118L34.6964 18.1831L34.6153 18.4264ZM37.9785 18.4264L37.8978 18.7522L37.7636 19.0505L37.6286 19.2946L37.4408 19.4847L37.2254 19.6477L36.983 19.7834L36.7409 19.8644L36.4446 19.891L36.1482 19.8644L35.9332 19.756L35.7447 19.6203L35.6104 19.4303L35.5294 19.2402L35.4758 18.9696V18.6982L35.5294 18.4268L35.6104 18.1018L35.7447 17.8034L35.8793 17.5594L36.0678 17.3694L36.2828 17.1793L36.5252 17.0702L36.7673 16.9893L37.0633 16.9619L37.3326 17.0166L37.5747 17.0702L37.7632 17.2333L37.8974 17.3963L37.9782 17.613L38.0321 17.8563V18.1277L37.9785 18.4264Z" fill="white"/>
</svg>
