<svg width="90" height="30" viewBox="0 0 90 30" fill="none" xmlns="http://www.w3.org/2000/svg">
<path d="M23.1569 10.2935L20.959 13.194H32.938C33.5437 13.194 33.5361 13.4156 33.2401 13.8073C32.9394 14.2035 32.4364 14.8886 32.1298 15.2921C31.9742 15.496 31.6932 15.8672 32.6238 15.8672H37.5226L38.9743 13.9511C39.8746 12.7642 39.0528 10.2949 35.8337 10.2949L23.1569 10.2935Z" fill="white"/>
<path d="M20.0712 19.7069L24.4751 13.9019H29.9397C30.5439 13.9019 30.5364 14.124 30.241 14.5128L29.1261 15.986C28.9709 16.1891 28.6907 16.5589 29.6188 16.5589H36.9381C36.3309 17.3685 34.3542 19.7069 30.8106 19.7069H20.0712ZM45.2894 16.5574L42.9014 19.7069H36.6021L38.9901 16.5574H45.2894ZM54.9379 15.8442H39.5325L43.7451 10.2935H50.0414L47.6278 13.4766H50.4379L52.8543 10.2935H59.1507L54.9379 15.8442ZM54.3971 16.5574L52.0091 19.7069H45.7128L48.1009 16.5574H54.3971ZM11.084 17.7997H20.3619L19.8557 18.4676H11.084V17.7997ZM11.084 16.5574H21.3051L20.7973 17.2253H11.084V16.5574ZM11.084 19.042H19.4203L18.9155 19.7069H11.084V19.042ZM79.7015 18.4676H70.4566L70.9641 17.7997H79.7015V18.4676ZM79.7015 19.7069H69.518L70.0212 19.042H79.7015V19.7069ZM71.9061 16.5574H79.7015V17.2268H71.3995L71.9061 16.5574ZM67.8713 10.2935L63.6584 15.8442H56.9854L61.2011 10.2935H67.8713ZM56.4461 16.5574C56.4461 16.5574 55.9866 17.1683 55.762 17.4606C54.9725 18.4983 55.6701 19.7055 58.2511 19.7055H68.3639L70.752 16.5574H56.4461Z" fill="white"/>
</svg>
