<svg width="72" height="24" viewBox="0 0 72 24" fill="none" xmlns="http://www.w3.org/2000/svg">
<path d="M53.7452 9.70093L55.9516 12.1334L58.0758 9.70093H62.6118L58.1791 14.6874L62.6728 19.7146H57.9538L55.7678 17.2629L53.6021 19.7146H49.0454L53.5 14.7081L49.0454 9.70093H53.7452Z" fill="#E1E1E1"/>
<path d="M49.0465 9.70089V13.0842H44.0013V16.1889H49.0465V19.7145H40.2939V3.94067H49.0465V7.45667H44.0013V9.70089H49.0465Z" fill="#E1E1E1"/>
<path d="M36.6014 3.94067V10.3961H36.5607C35.7427 9.4563 34.7217 9.12943 33.537 9.12943C31.1097 9.12943 29.2811 10.7807 28.6394 12.9627C27.9067 10.5584 26.0188 9.08422 23.2195 9.08422C20.9464 9.08422 19.1511 10.1048 18.2146 11.7679V9.70089H13.5156V7.45667H18.6436V3.94067H9.32715V19.7145H13.5156V13.0842H17.6907C17.5663 13.5712 17.4996 14.0929 17.4996 14.6436C17.4996 17.9336 20.0128 20.243 23.2195 20.243C25.9165 20.243 27.694 18.9763 28.6335 16.6677H25.0437C24.5584 17.3621 24.1901 17.5674 23.2195 17.5674C22.0941 17.5674 21.1234 16.5854 21.1234 15.4211H28.4327C28.7498 18.0343 30.7852 20.2882 33.5777 20.2882C34.7825 20.2882 35.8857 19.6953 36.5599 18.6947H36.6007V19.716H40.2927V3.94067H36.6014ZM21.2405 13.1309C21.4732 12.1289 22.2504 11.4744 23.2203 11.4744C24.288 11.4744 25.0252 12.1089 25.2193 13.1309C25.3008 13.1309 21.2405 13.1309 21.2405 13.1309ZM34.3601 17.3132C32.9991 17.3132 32.1529 16.0444 32.1529 14.7199C32.1529 13.3044 32.8886 11.9428 34.3601 11.9428C35.8857 11.9428 36.4932 13.3044 36.4932 14.7199C36.4932 16.0621 35.8494 17.3132 34.3601 17.3132Z" fill="white"/>
</svg>
