<svg width="90" height="30" viewBox="0 0 90 30" fill="none" xmlns="http://www.w3.org/2000/svg">
<path d="M17.4384 10.7708C16.9393 10.2601 16.3955 9.8747 15.8073 9.62031C15.221 9.36213 14.5882 9.23488 13.9202 9.23304C12.4636 9.23304 11.2278 9.79425 10.2072 10.913C9.18851 12.0336 8.6801 13.4705 8.67822 15.2234C8.67822 16.9146 9.20337 18.3308 10.2554 19.4664C11.3076 20.6057 12.5545 21.1763 13.9963 21.1763C14.6402 21.1773 15.2377 21.0604 15.7869 20.8283C16.338 20.5945 16.8873 20.2148 17.4347 19.6834V20.8863H20.2514V9.5305H17.4384V10.7708ZM16.6925 17.6293C16.1135 18.2541 15.3843 18.5628 14.5047 18.5647C13.653 18.5637 12.9349 18.2466 12.3541 17.6105C11.7715 16.9763 11.4801 16.1663 11.4801 15.1841C11.4801 14.2057 11.7677 13.4068 12.3393 12.782C12.9127 12.1571 13.6308 11.8484 14.4973 11.8484C15.3843 11.8484 16.1172 12.1553 16.6962 12.767C17.2751 13.3825 17.4625 14.0822 17.4606 15.0719C17.4606 16.084 17.2733 17.0063 16.6925 17.6293ZM36.4042 10.7708C35.9051 10.2601 35.3595 9.8747 34.775 9.62031C34.1849 9.36213 33.5559 9.23488 32.8842 9.23304C31.4313 9.23304 30.1917 9.79425 29.173 10.913C28.1543 12.0336 27.6459 13.4705 27.6441 15.2234C27.6422 16.9146 28.1673 18.3308 29.2213 19.4664C30.2734 20.6057 31.5203 21.1763 32.964 21.1763C33.606 21.1773 34.2035 21.0604 34.7509 20.8283C35.302 20.5945 35.8513 20.2148 36.3986 19.6834V20.8863H39.2154V9.5305H36.4042V10.7708ZM35.6583 17.6293C35.0793 18.2541 34.3482 18.5628 33.4724 18.5647C32.6188 18.5637 31.9007 18.2466 31.3181 17.6105C30.7355 16.9763 30.4441 16.1663 30.446 15.1841C30.4478 14.2057 30.7317 13.4068 31.3051 12.782C31.8785 12.1571 32.5966 11.8484 33.4631 11.8484C34.3482 11.8484 35.0812 12.1553 35.662 12.767C36.2409 13.3825 36.4265 14.0822 36.4246 15.0719C36.4246 16.084 36.2391 17.0063 35.6583 17.6293ZM56.1643 9.80735C55.5591 9.43133 54.8596 9.24424 54.062 9.24424C53.2898 9.24332 52.5831 9.41823 51.9317 9.76996C51.2823 10.1198 50.7348 10.6305 50.286 11.3059C49.9444 10.6305 49.4917 10.1179 48.9293 9.76807C48.3634 9.41639 47.7325 9.24051 47.0311 9.23866C46.3371 9.23866 45.6969 9.37144 45.1087 9.63903C44.5205 9.90467 43.9861 10.3069 43.5055 10.8475V9.5305H40.6869L40.6831 20.8863H43.4999L43.5017 15.8482C43.5035 14.7594 43.5982 13.9606 43.7875 13.4536C43.9786 12.9466 44.2644 12.5537 44.6466 12.2713C45.0307 11.9925 45.4556 11.8503 45.9251 11.8503C46.3445 11.8513 46.7044 11.9626 47.0013 12.1852C47.2982 12.4078 47.519 12.7464 47.6675 13.201C47.8159 13.6557 47.8901 14.389 47.8901 15.4049L47.8846 20.8863H50.705V15.779C50.7088 14.6958 50.8017 13.9101 50.9869 13.4218C51.1745 12.9316 51.4603 12.55 51.8427 12.2713C52.2228 11.9944 52.6591 11.8559 53.1431 11.8559C53.7781 11.8559 54.251 12.0842 54.5705 12.5369C54.8894 12.9934 55.0472 13.8633 55.0472 15.1448L55.0434 20.8863H57.8601L57.864 14.2356C57.864 12.8718 57.7321 11.8858 57.4685 11.2816C57.2049 10.6754 56.7709 10.1834 56.1643 9.80735ZM67.6963 17.5395C66.9429 18.2953 66.0414 18.6732 64.9931 18.6732C64.1132 18.6722 63.3954 18.4281 62.8273 17.9454C62.2615 17.4627 61.9147 16.8117 61.7828 15.9923L70.8195 15.9978L70.8305 15.4572C70.8305 13.5864 70.2792 12.0822 69.1737 10.9392C68.0696 9.79983 66.6331 9.22925 64.8666 9.22736C63.204 9.22736 61.8199 9.79799 60.7197 10.9448C59.6156 12.0879 59.0643 13.5265 59.0643 15.2589C59.0623 16.952 59.6156 18.357 60.7177 19.4813C61.8199 20.6075 63.2525 21.1688 65.008 21.1688C66.1395 21.1697 67.1156 20.9667 67.9416 20.5589C68.7633 20.1529 69.4705 19.5225 70.0603 18.6731L67.6963 17.5395ZM62.9461 12.3198C63.5383 11.8803 64.2267 11.6614 65.0095 11.6632C65.7349 11.6632 66.3699 11.8578 66.9136 12.2488C67.4625 12.6417 67.8281 13.1487 68.0138 13.7735L61.9147 13.7698C62.2298 13.0776 62.5752 12.593 62.9461 12.3198ZM77.5051 14.8773L81.3128 9.52865H78.1006L75.8963 12.6248L73.6843 9.52865H70.4221L74.2688 14.9091L70.0161 20.8863H73.2278L75.8756 17.1634L78.5384 20.8863H81.8026L77.5051 14.8773ZM27.0316 9.18066C26.5102 9.18066 26.0555 9.27979 25.6752 9.4725C25.3003 9.66148 24.8698 10.0076 24.3855 10.5146V9.5305H21.6968V20.8863H24.5135L24.5117 14.9802C24.5117 12.8156 25.1055 11.7306 26.5417 11.7306C26.7903 11.7306 27.0446 11.7849 27.3006 11.8821C27.7627 11.102 28.2971 10.3687 28.8946 9.69324C28.2507 9.36028 27.6291 9.18066 27.0316 9.18066Z" fill="white"/>
</svg>
